<?xml version="1.0" encoding="UTF-8"?>
<svg version="1.1" xmlns="http://www.w3.org/2000/svg" width="270" height="100">
<path d="M0 0 C89.1 0 178.2 0 270 0 C270 33 270 66 270 100 C180.9 100 91.8 100 0 100 C0 67 0 34 0 0 Z " fill="#FDFEFC" transform="translate(0,0)"/>
<path d="M0 0 C41.91 0 83.82 0 127 0 C127 2 127 2 124.5625 4.5625 C123.716875 5.366875 122.87125 6.17125 122 7 C121.67 7.33 121.34 7.66 121 8 C119.56537226 8.1119527 118.12541383 8.15671375 116.68652344 8.17358398 C115.30808258 8.19381874 115.30808258 8.19381874 113.90179443 8.21446228 C112.89779602 8.22490067 111.89379761 8.23533905 110.859375 8.24609375 C108.73437162 8.27908008 106.60937172 8.31229079 104.484375 8.34570312 C101.1341435 8.39277612 97.78392085 8.43709796 94.43359375 8.47680664 C69.99372583 7.44634682 69.99372583 7.44634682 48.41015625 16.5390625 C47.94480469 17.02117188 47.47945312 17.50328125 47 18 C46.030625 18.474375 45.06125 18.94875 44.0625 19.4375 C40.29309532 21.36066565 37.62024719 23.13925843 36.25 27.25 C36.1675 27.8275 36.085 28.405 36 29 C37.32 29 38.64 29 40 29 C40.66 27.68 41.32 26.36 42 25 C42.66 25 43.32 25 44 25 C44 24.34 44 23.68 44 23 C48.67316352 19.46663246 53.99891297 16 60 16 C60 15.34 60 14.68 60 14 C72.52408068 9.48094068 85.80254377 9.72588301 98.9375 9.875 C100.50715564 9.8850671 102.07681765 9.89418625 103.64648438 9.90234375 C107.43115191 9.92402245 111.21550189 9.95833815 115 10 C114.64489059 12.57454319 114.17684011 13.81148605 112.38012695 15.72680664 C109.12387602 17.46866208 106.60251948 17.3689836 102.91796875 17.37109375 C101.49544076 17.38851331 100.07291477 17.40609714 98.65039062 17.42382812 C96.43721049 17.43377446 94.22418757 17.43752881 92.01098633 17.43579102 C78.50468831 17.45871672 64.28564213 18.14824352 54 28 C53.071875 28.845625 52.14375 29.69125 51.1875 30.5625 C49.07325244 32.91837585 47.5070717 35.22381529 46 38 C49.95928561 35.84038967 53.13617416 33.22623596 56.44921875 30.20703125 C58 29 58 29 60 29 C60 28.34 60 27.68 60 27 C72.37572853 17.34693175 88.13311832 18.5850212 103 19 C102.67 20.32 102.34 21.64 102 23 C101.16190796 23.029729 101.16190796 23.029729 100.30688477 23.06005859 C97.72502582 23.1565219 95.14384608 23.26569812 92.5625 23.375 C91.68400391 23.4059375 90.80550781 23.436875 89.90039062 23.46875 C82.23304264 23.80826356 74.60214209 24.28121178 68.1875 28.875 C67.44757813 29.4009375 66.70765625 29.926875 65.9453125 30.46875 C63.79308518 32.16287271 61.89695494 34.02716686 60 36 C59.34 36 58.68 36 58 36 C57.566875 37.11375 57.566875 37.11375 57.125 38.25 C56.17697356 40.56739797 55.15154089 42.77917115 54 45 C58.43492338 42.71918226 60.8713317 39.83261866 64 36 C73.64060465 27.37419584 83.36875608 25.51625023 96 26 C95.505 27.485 95.505 27.485 95 29 C94.13117188 29.10957031 93.26234375 29.21914063 92.3671875 29.33203125 C83.01073882 30.61932788 76.99232295 32.65812569 70 39 C69.505 39.99 69.505 39.99 69 41 C68.34 41 67.68 41 67 41 C66.67 42.32 66.34 43.64 66 45 C65.34 45 64.68 45 64 45 C63.67 45.99 63.34 46.98 63 48 C60.9375 48.6875 60.9375 48.6875 59 49 C59 49.99 59 50.98 59 52 C56.03 52 53.06 52 50 52 C50 51.01 50 50.02 50 49 C49.16227051 48.65231567 49.16227051 48.65231567 48.30761719 48.29760742 C45.39500672 46.65980329 43.41809206 44.62461285 41.078125 42.23828125 C40.61444519 41.76939987 40.15076538 41.30051849 39.67303467 40.81742859 C38.19382975 39.32048402 36.72147299 37.81704251 35.25 36.3125 C29.02921036 29.97263733 22.81067362 23.71483692 16 18 C10.18330879 13.07377418 4.52431709 8.19999008 0 2 C0 1.34 0 0.68 0 0 Z " fill="#E58835" transform="translate(72,0)"/>
<path d="M0 0 C0.495 1.98 0.495 1.98 1 4 C3.475 4.495 3.475 4.495 6 5 C6.495 6.98 6.495 6.98 7 9 C8.98 8.67 10.96 8.34 13 8 C13.020625 9.03125 13.04125 10.0625 13.0625 11.125 C14.19215157 15.79422649 15.67774448 16.78354702 19.34375 19.578125 C21.49553592 21.42541292 22.28147508 23.28557251 23 26 C19.90538231 28.22425646 17.49026886 29.19923648 13.75 29.5625 C12.5125 29.706875 11.275 29.85125 10 30 C9.67 30.66 9.34 31.32 9 32 C9.89831543 31.98952637 10.79663086 31.97905273 11.72216797 31.96826172 C15.05064447 31.9342053 18.37893622 31.90911382 21.70751953 31.89013672 C23.14895547 31.88007037 24.59037095 31.8664162 26.03173828 31.84912109 C28.10193934 31.82489988 30.17187076 31.81352359 32.2421875 31.8046875 C34.11173096 31.78897705 34.11173096 31.78897705 36.01904297 31.77294922 C39 32 39 32 41 34 C41 35.32 41 36.64 41 38 C37.24675122 40.50216586 34.28415886 40.30267298 29.93603516 40.30639648 C29.11457504 40.31472 28.29311493 40.32304352 27.44676208 40.33161926 C24.72748087 40.35574162 22.00843941 40.36449403 19.2890625 40.37109375 C17.3996066 40.38005833 15.51015144 40.38918014 13.62069702 40.39845276 C9.65792108 40.41495135 5.69522971 40.42264446 1.73242188 40.42553711 C-3.34436144 40.43092205 -8.4203495 40.46860287 -13.49690819 40.51428127 C-17.40028788 40.54403033 -21.30347556 40.5512602 -25.20695877 40.55226326 C-27.07847359 40.55646979 -28.94998876 40.56892144 -30.82139206 40.58978081 C-33.44060409 40.61665134 -36.0579664 40.61188344 -38.67724609 40.59936523 C-39.44936935 40.61419952 -40.22149261 40.62903381 -41.01701355 40.64431763 C-45.06111359 40.58930454 -46.81798061 40.14539389 -50.02017212 37.58753967 C-52 35 -52 35 -52 33 C-51.4225 33.309375 -50.845 33.61875 -50.25 33.9375 C-47.24217147 35.41571361 -47.24217147 35.41571361 -44 36 C-43.1028125 35.071875 -43.1028125 35.071875 -42.1875 34.125 C-39.28271809 31.30321186 -36.95001521 31.30384732 -33 31 C-32.67 30.01 -32.34 29.02 -32 28 C-26.72 28 -21.44 28 -16 28 C-15.67 26.68 -15.34 25.36 -15 24 C-12.77156512 23.80399423 -10.54220107 23.61853431 -8.3125 23.4375 C-7.07113281 23.33308594 -5.82976562 23.22867188 -4.55078125 23.12109375 C-1.44164467 23.01506159 1.00810972 23.22771475 4 24 C4 24.66 4 25.32 4 26 C4.66 26 5.32 26 6 26 C5.67 24.35 5.34 22.7 5 21 C1.58268208 21.1100917 -1.83355574 21.24067061 -5.25 21.375 C-6.70212891 21.42140625 -6.70212891 21.42140625 -8.18359375 21.46875 C-9.58544922 21.52675781 -9.58544922 21.52675781 -11.015625 21.5859375 C-11.87446289 21.6173584 -12.73330078 21.6487793 -13.61816406 21.68115234 C-16.18874005 22.02526594 -17.84054973 22.56739203 -20 24 C-20.33 24.99 -20.66 25.98 -21 27 C-23.97 27 -26.94 27 -30 27 C-30 25.68 -30 24.36 -30 23 C-29.34 23 -28.68 23 -28 23 C-27.34 20.36 -26.68 17.72 -26 15 C-24.68 14.67 -23.36 14.34 -22 14 C-22 13.34 -22 12.68 -22 12 C-21.34 12 -20.68 12 -20 12 C-20 10.68 -20 9.36 -20 8 C-15.48604689 2.42394027 -10.99717699 1.17208636 -4.125 0.375 C-2.75061045 0.24345777 -1.37577361 0.11617644 0 0 Z " fill="#F8FAF8" transform="translate(224,60)"/>
<path d="M0 0 C1.56965564 0.0100671 3.13931765 0.01918625 4.70898438 0.02734375 C8.49365191 0.04902245 12.27800189 0.08333815 16.0625 0.125 C15.70739059 2.69954319 15.23934011 3.93648605 13.44262695 5.85180664 C10.18637602 7.59366208 7.66501948 7.4939836 3.98046875 7.49609375 C2.55794076 7.51351331 1.13541477 7.53109714 -0.28710938 7.54882812 C-2.50028951 7.55877446 -4.71331243 7.56252881 -6.92651367 7.56079102 C-20.43281169 7.58371672 -34.65185787 8.27324352 -44.9375 18.125 C-45.865625 18.970625 -46.79375 19.81625 -47.75 20.6875 C-49.86424756 23.04337585 -51.4304283 25.34881529 -52.9375 28.125 C-48.97821439 25.96538967 -45.80132584 23.35123596 -42.48828125 20.33203125 C-40.9375 19.125 -40.9375 19.125 -38.9375 19.125 C-38.9375 18.465 -38.9375 17.805 -38.9375 17.125 C-26.56177147 7.47193175 -10.80438168 8.7100212 4.0625 9.125 C3.7325 10.445 3.4025 11.765 3.0625 13.125 C2.50377197 13.14481934 1.94504395 13.16463867 1.36938477 13.18505859 C-1.21247418 13.2815219 -3.79365392 13.39069812 -6.375 13.5 C-7.25349609 13.5309375 -8.13199219 13.561875 -9.03710938 13.59375 C-16.70445736 13.93326356 -24.33535791 14.40621178 -30.75 19 C-31.48992187 19.5259375 -32.22984375 20.051875 -32.9921875 20.59375 C-35.14441482 22.28787271 -37.04054506 24.15216686 -38.9375 26.125 C-39.5975 26.125 -40.2575 26.125 -40.9375 26.125 C-41.370625 27.23875 -41.370625 27.23875 -41.8125 28.375 C-42.76052644 30.69239797 -43.78595911 32.90417115 -44.9375 35.125 C-40.50257662 32.84418226 -38.0661683 29.95761866 -34.9375 26.125 C-25.29689535 17.49919584 -15.56874392 15.64125023 -2.9375 16.125 C-3.4325 17.61 -3.4325 17.61 -3.9375 19.125 C-4.80632812 19.23457031 -5.67515625 19.34414063 -6.5703125 19.45703125 C-15.92676118 20.74432788 -21.94517705 22.78312569 -28.9375 29.125 C-29.2675 29.785 -29.5975 30.445 -29.9375 31.125 C-30.5975 31.125 -31.2575 31.125 -31.9375 31.125 C-32.2675 32.445 -32.5975 33.765 -32.9375 35.125 C-33.5975 35.125 -34.2575 35.125 -34.9375 35.125 C-35.2675 36.115 -35.5975 37.105 -35.9375 38.125 C-38 38.8125 -38 38.8125 -39.9375 39.125 C-39.9375 40.115 -39.9375 41.105 -39.9375 42.125 C-42.9075 42.125 -45.8775 42.125 -48.9375 42.125 C-48.9375 41.135 -48.9375 40.145 -48.9375 39.125 C-49.50823242 38.88023926 -50.07896484 38.63547852 -50.66699219 38.38330078 C-53.33482454 36.9048053 -55.12466315 35.16373452 -57.265625 32.9921875 C-58.06484375 32.18652344 -58.8640625 31.38085938 -59.6875 30.55078125 C-60.925 29.28814453 -60.925 29.28814453 -62.1875 28 C-63.02796875 27.15050781 -63.8684375 26.30101563 -64.734375 25.42578125 C-66.80665683 23.32995077 -68.87412393 21.22959287 -70.9375 19.125 C-68.44657189 17.87953595 -67.52669267 18.3482422 -64.9375 19.125 C-64.9375 17.805 -64.9375 16.485 -64.9375 15.125 C-64.2775 15.125 -63.6175 15.125 -62.9375 15.125 C-62.9375 16.445 -62.9375 17.765 -62.9375 19.125 C-61.6175 19.125 -60.2975 19.125 -58.9375 19.125 C-58.2775 17.805 -57.6175 16.485 -56.9375 15.125 C-56.2775 15.125 -55.6175 15.125 -54.9375 15.125 C-54.9375 14.465 -54.9375 13.805 -54.9375 13.125 C-50.26433648 9.59163246 -44.93858703 6.125 -38.9375 6.125 C-38.9375 5.465 -38.9375 4.805 -38.9375 4.125 C-26.41341932 -0.39405932 -13.13495623 -0.14911699 0 0 Z " fill="#DD974F" transform="translate(170.9375,9.875)"/>
<path d="M0 0 C4.10457704 -0.08166808 8.20749495 -0.14082696 12.3125 -0.1875 C13.46041016 -0.21263672 14.60832031 -0.23777344 15.79101562 -0.26367188 C23.0971345 -0.32576354 30.22477797 -0.0119899 37 3 C39.29013653 6.4352048 39.17842973 7.985331 39 12 C38.360625 12.2475 37.72125 12.495 37.0625 12.75 C34.81258459 13.81562433 34.81258459 13.81562433 34.25 16.125 C34.1675 16.74375 34.085 17.3625 34 18 C35.0725 17.979375 36.145 17.95875 37.25 17.9375 C41 18 41 18 42.88183594 18.49780273 C45.51820173 19.12286088 47.93171724 19.11206533 50.640625 19.09765625 C51.71054688 19.09443359 52.78046875 19.09121094 53.8828125 19.08789062 C54.99398437 19.07951172 56.10515625 19.07113281 57.25 19.0625 C58.37664062 19.05798828 59.50328125 19.05347656 60.6640625 19.04882812 C63.44273106 19.03705411 66.22137227 19.019119 69 19 C69.33 12.73 69.66 6.46 70 0 C72.64 0 75.28 0 78 0 C78 7.26 78 14.52 78 22 C71.25 25.375 71.25 25.375 65.9453125 25.29296875 C64.83671875 25.28330078 63.728125 25.27363281 62.5859375 25.26367188 C61.44382813 25.23853516 60.30171875 25.21339844 59.125 25.1875 C57.37703125 25.16719727 57.37703125 25.16719727 55.59375 25.14648438 C52.72868882 25.11125821 49.86458623 25.06199715 47 25 C47 25.99 47 26.98 47 28 C51.29 28.33 55.58 28.66 60 29 C60 30.65 60 32.3 60 34 C56.37 34 52.74 34 49 34 C49 34.99 49 35.98 49 37 C48.01 37 47.02 37 46 37 C45.67 36.01 45.34 35.02 45 34 C44.01 34 43.02 34 42 34 C41.87625 32.88625 41.7525 31.7725 41.625 30.625 C41.3534187 26.96896323 41.3534187 26.96896323 39 25 C36.99453311 25.29868656 34.99422795 25.63371323 33 26 C29.57990294 24.85996765 28.71130558 23.77829802 26.4375 21.0625 C23.01271077 16.50709844 23.01271077 16.50709844 17.9609375 14.5859375 C16.77757813 14.51632813 15.59421875 14.44671875 14.375 14.375 C13.18648437 14.30023438 11.99796875 14.22546875 10.7734375 14.1484375 C9.85820313 14.09945312 8.94296875 14.05046875 8 14 C8 16.97 8 19.94 8 23 C5.36 23 2.72 23 0 23 C0 15.41 0 7.82 0 0 Z " fill="#D29252" transform="translate(107,63)"/>
<path d="M0 0 C2.875 2.3125 2.875 2.3125 5 5 C5 5.99 5 6.98 5 8 C5.99 8 6.98 8 8 8 C8.33 9.65 8.66 11.3 9 13 C12.82320557 14.42258812 15.91281305 15.24042276 20 15 C20.99 12.69 21.98 10.38 23 8 C23.99 8 24.98 8 26 8 C26 6.68 26 5.36 26 4 C27.32 4 28.64 4 30 4 C30 3.34 30 2.68 30 2 C33.63 2 37.26 2 41 2 C39.87215831 7.63920843 39.0121853 11.00609345 35 15 C32.66134303 17.88059174 30.3584499 20.7875782 28.05859375 23.69921875 C27.37925781 24.45847656 26.69992188 25.21773437 26 26 C25.34 26 24.68 26 24 26 C24.18433594 26.57234375 24.36867187 27.1446875 24.55859375 27.734375 C25.28163726 31.44557179 24.02067687 34.39761105 23 38 C25.64 38 28.28 38 31 38 C31 38.33 31 38.66 31 39 C14.83 39 -1.34 39 -18 39 C-18 36.36 -18 33.72 -18 31 C-13.05 31 -8.1 31 -3 31 C-2.67 32.98 -2.34 34.96 -2 37 C-0.68412059 35.87895467 0.62760353 34.75303035 1.9375 33.625 C2.66839844 32.99851563 3.39929688 32.37203125 4.15234375 31.7265625 C6.08380906 30.12252286 6.08380906 30.12252286 7 28 C6.690625 27.38125 6.38125 26.7625 6.0625 26.125 C5 24 5 24 5 20 C4.34 20 3.68 20 3 20 C3 19.34 3 18.68 3 18 C2.01 17.67 1.02 17.34 0 17 C-0.33 16.34 -0.66 15.68 -1 15 C-3.52733235 14.34444881 -3.52733235 14.34444881 -6 14 C-6 13.34 -6 12.68 -6 12 C-6.99 12 -7.98 12 -9 12 C-9.33 8.7 -9.66 5.4 -10 2 C-5.94802499 -0.02598751 -4.38341943 -0.62620278 0 0 Z " fill="#F8F8F3" transform="translate(37,61)"/>
<path d="M0 0 C0 0.99 0 1.98 0 3 C0.99 2.67 1.98 2.34 3 2 C4.99402048 6.11266723 5.50605388 9.44551506 5 14 C3 15.9375 3 15.9375 1 17 C1.99 17.66 2.98 18.32 4 19 C2.02 19 0.04 19 -2 19 C-1.67 17.35 -1.34 15.7 -1 14 C0.32 13.67 1.64 13.34 3 13 C2.34 10.03 1.68 7.06 1 4 C-7.2432467 2.22067142 -15.26928965 1.60188046 -23.6875 1.375 C-24.87794922 1.33632813 -26.06839844 1.29765625 -27.29492188 1.2578125 C-30.19638976 1.16459265 -33.09817253 1.08125972 -36 1 C-36 8.59 -36 16.18 -36 24 C-33.36 24 -30.72 24 -28 24 C-28 21.03 -28 18.06 -28 15 C-17.0354578 13.62731388 -17.0354578 13.62731388 -12.1328125 16.93359375 C-9.86996831 19.19282317 -7.83118409 21.37861502 -6 24 C-6 24.66 -6 25.32 -6 26 C-2.37 25.67 1.26 25.34 5 25 C7.125 32.75 7.125 32.75 6 35 C7.98 34.505 7.98 34.505 10 34 C10 35.32 10 36.64 10 38 C-5.84 38 -21.68 38 -38 38 C-38.33 35.69 -38.66 33.38 -39 31 C-39.99 30.67 -40.98 30.34 -42 30 C-42 29.34 -42 28.68 -42 28 C-41.01 27.34 -40.02 26.68 -39 26 C-38.58262128 23.28516406 -38.58262128 23.28516406 -38.70703125 20.1171875 C-38.71669922 18.95058594 -38.72636719 17.78398438 -38.73632812 16.58203125 C-38.76146484 15.35871094 -38.78660156 14.13539062 -38.8125 12.875 C-38.82603516 11.64394531 -38.83957031 10.41289063 -38.85351562 9.14453125 C-38.88896457 6.09592157 -38.93837921 3.048175 -39 0 C-34.89263811 -0.16936387 -30.78502658 -0.32971004 -26.67700195 -0.48217773 C-25.28335407 -0.53511737 -23.88979294 -0.59040029 -22.49633789 -0.64819336 C-14.90342256 -0.96149988 -7.53848378 -1.12701585 0 0 Z " fill="#FBFBF7" transform="translate(143,62)"/>
<path d="M0 0 C0.99 0 1.98 0 3 0 C3.20086443 3.71599191 3.1519437 4.77208445 1 8 C-2.77627657 9.59442789 -5.91203491 10.24046853 -10 10 C-10.0825 10.721875 -10.165 11.44375 -10.25 12.1875 C-11.64734953 17.42756072 -15.48127188 21.16265909 -20 24 C-23.8125 24.25 -23.8125 24.25 -27 24 C-26.938125 24.763125 -26.87625 25.52625 -26.8125 26.3125 C-27 29 -27 29 -28.07421875 30.63671875 C-31.72431703 33.22066256 -36.41781146 32.48544529 -40.75 32.59375 C-44.25308022 33.03163503 -44.81985255 33.44187033 -47 36 C-50.1875 36.1875 -50.1875 36.1875 -53 36 C-51.26547793 32.64659066 -49.31012824 31.52348762 -45.875 30.3125 C-41.84501449 29.08368475 -37.94852467 28.54913423 -33.75 28.30859375 C-33.1725 28.20675781 -32.595 28.10492187 -32 28 C-31.67 27.34 -31.34 26.68 -31 26 C-33.52284073 26.25743273 -36.04238144 26.53051317 -38.5625 26.8125 C-39.26697266 26.88275391 -39.97144531 26.95300781 -40.69726562 27.02539062 C-50.85848625 28.19603816 -58.42939458 33.25228647 -66 40 C-66.721875 40.928125 -67.44375 41.85625 -68.1875 42.8125 C-68.785625 43.534375 -69.38375 44.25625 -70 45 C-70.99 45 -71.98 45 -73 45 C-71.70032174 39.91943954 -69.89340028 37.4702046 -66 34 C-65.39800781 33.41863281 -64.79601562 32.83726563 -64.17578125 32.23828125 C-57.1567813 25.66055438 -49.73489641 23.11705984 -40.13671875 22.68359375 C-39.25048828 22.64169922 -38.36425781 22.59980469 -37.45117188 22.55664062 C-36.0831543 22.49766602 -36.0831543 22.49766602 -34.6875 22.4375 C-33.75615234 22.39431641 -32.82480469 22.35113281 -31.86523438 22.30664062 C-29.57695546 22.20102775 -27.28857628 22.09892248 -25 22 C-24.505 20.515 -24.505 20.515 -24 19 C-45.70701208 18.73946636 -45.70701208 18.73946636 -65 27 C-65.66 27 -66.32 27 -67 27 C-67 27.66 -67 28.32 -67 29 C-67.639375 29.103125 -68.27875 29.20625 -68.9375 29.3125 C-69.618125 29.539375 -70.29875 29.76625 -71 30 C-71.33 30.99 -71.66 31.98 -72 33 C-77.34883721 38 -77.34883721 38 -81 38 C-80.67651262 34.98078447 -80.12918552 34.1076546 -77.75 32.125 C-76.8425 31.42375 -75.935 30.7225 -75 30 C-74.175 28.989375 -73.35 27.97875 -72.5 26.9375 C-66.52727816 19.91955184 -56.78638257 17.74108556 -47.87945557 16.76843262 C-42.86174202 16.41855044 -37.84048012 16.38853578 -32.8125 16.375 C-30.60036113 16.35857263 -28.38863486 16.33652231 -26.17668152 16.30337524 C-24.19971195 16.27511945 -22.22251089 16.26468125 -20.24536133 16.25537109 C-17.18139866 16.0142739 -15.43346149 15.85214476 -13 14 C-12.19471111 11.94999129 -12.19471111 11.94999129 -12 10 C-16.56776778 10.09515377 -21.1351023 10.2015509 -25.70239258 10.31738281 C-27.24887345 10.35513697 -28.79542632 10.39007142 -30.34204102 10.421875 C-42.78091967 10.68059721 -54.72372092 11.92353116 -67 14 C-67 14.66 -67 15.32 -67 16 C-67.59167969 16.17015625 -68.18335938 16.3403125 -68.79296875 16.515625 C-73.68570237 18.01616973 -77.09945591 19.57224913 -81 23 C-81.66 23 -82.32 23 -83 23 C-83 23.66 -83 24.32 -83 25 C-84.75 27.125 -84.75 27.125 -87 29 C-88.32 29 -89.64 29 -91 29 C-90.91828946 26.22184153 -90.45693162 24.49264865 -88.55078125 22.4375 C-85.23356668 19.55922272 -81.81734418 17.18133953 -78 15 C-77.34 14.34 -76.68 13.68 -76 13 C-74.00476456 12.24140977 -71.97773652 11.56508152 -69.9375 10.9375 C-68.85339844 10.59589844 -67.76929688 10.25429687 -66.65234375 9.90234375 C-58.75566582 7.95139979 -50.85985995 7.86776963 -42.76171875 7.859375 C-40.62173394 7.84107102 -38.48175964 7.82150301 -36.34179688 7.80078125 C-32.99940797 7.77168054 -29.65771006 7.74999569 -26.31518555 7.74951172 C-23.06758664 7.74618888 -19.82154749 7.71174599 -16.57421875 7.671875 C-15.57315598 7.6789447 -14.5720932 7.6860144 -13.54069519 7.69329834 C-7.87509849 7.72013317 -7.87509849 7.72013317 -3.46411133 4.45800781 C-2.73937622 3.24129395 -2.73937622 3.24129395 -2 2 C-1.34 2 -0.68 2 0 2 C0 1.34 0 0.68 0 0 Z " fill="#FCF8E8" transform="translate(199,0)"/>
<path d="M0 0 C0.33 1.32 0.66 2.64 1 4 C3.475 4.495 3.475 4.495 6 5 C6.495 6.98 6.495 6.98 7 9 C8.98 8.67 10.96 8.34 13 8 C13.020625 9.03125 13.04125 10.0625 13.0625 11.125 C14.19215157 15.79422649 15.67774448 16.78354702 19.34375 19.578125 C21.49553592 21.42541292 22.28147508 23.28557251 23 26 C19.02765186 29.0753663 15.91676047 29.32551243 11.0859375 29.30078125 C9 29 9 29 6 27 C5.3125 23.875 5.3125 23.875 5 21 C1.58268208 21.1100917 -1.83355574 21.24067061 -5.25 21.375 C-6.70212891 21.42140625 -6.70212891 21.42140625 -8.18359375 21.46875 C-9.58544922 21.52675781 -9.58544922 21.52675781 -11.015625 21.5859375 C-11.87446289 21.6173584 -12.73330078 21.6487793 -13.61816406 21.68115234 C-16.18874005 22.02526594 -17.84054973 22.56739203 -20 24 C-20.33 24.99 -20.66 25.98 -21 27 C-23.97 27 -26.94 27 -30 27 C-30 25.68 -30 24.36 -30 23 C-29.34 23 -28.68 23 -28 23 C-27.34 20.36 -26.68 17.72 -26 15 C-24.68 14.67 -23.36 14.34 -22 14 C-22 13.34 -22 12.68 -22 12 C-21.34 12 -20.68 12 -20 12 C-20 10.68 -20 9.36 -20 8 C-15.48604689 2.42394027 -10.99717699 1.17208636 -4.125 0.375 C-2.75061045 0.24345777 -1.37577361 0.11617644 0 0 Z " fill="#FBEFD4" transform="translate(224,60)"/>
<path d="M0 0 C1.56965564 0.0100671 3.13931765 0.01918625 4.70898438 0.02734375 C8.49365191 0.04902245 12.27800189 0.08333815 16.0625 0.125 C15.70739059 2.69954319 15.23934011 3.93648605 13.44262695 5.85180664 C10.18637602 7.59366208 7.66501948 7.4939836 3.98046875 7.49609375 C2.55794076 7.51351331 1.13541477 7.53109714 -0.28710938 7.54882812 C-2.50028951 7.55877446 -4.71331243 7.56252881 -6.92651367 7.56079102 C-22.65365169 7.5874864 -35.95057267 9.34707098 -47.625 20.75 C-48.388125 21.53375 -49.15125 22.3175 -49.9375 23.125 C-54.18999169 27.05855482 -54.18999169 27.05855482 -57.75 27.375 C-58.471875 27.2925 -59.19375 27.21 -59.9375 27.125 C-60.5975 25.145 -61.2575 23.165 -61.9375 21.125 C-60.9375 20.125 -60.9375 20.125 -57.875 20.0625 C-56.4209375 20.0934375 -56.4209375 20.0934375 -54.9375 20.125 C-54.53337891 19.25101563 -54.53337891 19.25101563 -54.12109375 18.359375 C-52.93162977 16.11391824 -51.63166509 14.31805156 -50 12.375 C-49.49597656 11.76140625 -48.99195312 11.1478125 -48.47265625 10.515625 C-46.9375 9.125 -46.9375 9.125 -43.9375 9.125 C-43.9375 8.465 -43.9375 7.805 -43.9375 7.125 C-42.2875 6.795 -40.6375 6.465 -38.9375 6.125 C-38.9375 5.465 -38.9375 4.805 -38.9375 4.125 C-26.41341932 -0.39405932 -13.13495623 -0.14911699 0 0 Z " fill="#EA832C" transform="translate(170.9375,9.875)"/>
<path d="M0 0 C2.64 0 5.28 0 8 0 C8 7.26 8 14.52 8 22 C1.25 25.375 1.25 25.375 -4.0546875 25.29296875 C-5.16328125 25.28330078 -6.271875 25.27363281 -7.4140625 25.26367188 C-8.55617187 25.23853516 -9.69828125 25.21339844 -10.875 25.1875 C-12.62296875 25.16719727 -12.62296875 25.16719727 -14.40625 25.14648438 C-17.27131118 25.11125821 -20.13541377 25.06199715 -23 25 C-23 25.99 -23 26.98 -23 28 C-18.71 28.33 -14.42 28.66 -10 29 C-10 30.65 -10 32.3 -10 34 C-13.63 34 -17.26 34 -21 34 C-21 34.99 -21 35.98 -21 37 C-21.99 37 -22.98 37 -24 37 C-24.33 36.01 -24.66 35.02 -25 34 C-25.99 34 -26.98 34 -28 34 C-28.12375 32.88625 -28.2475 31.7725 -28.375 30.625 C-28.6465813 26.96896323 -28.6465813 26.96896323 -31 25 C-33.00546689 25.29868656 -35.00577205 25.63371323 -37 26 C-37.99 25.67 -38.98 25.34 -40 25 C-40.33 24.01 -40.66 23.02 -41 22 C-37.7 22.33 -34.4 22.66 -31 23 C-31 22.34 -31 21.68 -31 21 C-31.928125 20.7834375 -31.928125 20.7834375 -32.875 20.5625 C-35 20 -35 20 -37 19 C-37 18.34 -37 17.68 -37 17 C-37.639375 16.896875 -38.27875 16.79375 -38.9375 16.6875 C-39.618125 16.460625 -40.29875 16.23375 -41 16 C-41.33 15.01 -41.66 14.02 -42 13 C-38.62902617 11.50178941 -36.79557881 11 -33 11 C-33 9.02 -33 7.04 -33 5 C-32.34 5.33 -31.68 5.66 -31 6 C-31 7.98 -31 9.96 -31 12 C-31.639375 12.2475 -32.27875 12.495 -32.9375 12.75 C-35.18741541 13.81562433 -35.18741541 13.81562433 -35.75 16.125 C-35.8325 16.74375 -35.915 17.3625 -36 18 C-34.9275 17.979375 -33.855 17.95875 -32.75 17.9375 C-29 18 -29 18 -27.11816406 18.49780273 C-24.48179827 19.12286088 -22.06828276 19.11206533 -19.359375 19.09765625 C-18.28945312 19.09443359 -17.21953125 19.09121094 -16.1171875 19.08789062 C-15.00601563 19.07951172 -13.89484375 19.07113281 -12.75 19.0625 C-11.62335938 19.05798828 -10.49671875 19.05347656 -9.3359375 19.04882812 C-6.55726894 19.03705411 -3.77862773 19.019119 -1 19 C-0.67 12.73 -0.34 6.46 0 0 Z " fill="#F5F9F6" transform="translate(177,63)"/>
<path d="M0 0 C7.27272727 -0.36363636 7.27272727 -0.36363636 10.375 1.1875 C14.13799177 5.38468313 14.21401677 9.51723428 14.16796875 14.9140625 C14 17 14 17 13 20 C13.99 19.67 14.98 19.34 16 19 C16 19.66 16 20.32 16 21 C16.99 21 17.98 21 19 21 C19.495 19.515 19.495 19.515 20 18 C20.66 18.33 21.32 18.66 22 19 C21.34 19.61875 20.68 20.2375 20 20.875 C17.7715451 22.75637427 17.7715451 22.75637427 18 25 C19.39303605 25.13657216 20.79006121 25.23271149 22.1875 25.3125 C22.96480469 25.37050781 23.74210937 25.42851563 24.54296875 25.48828125 C27.26595977 25.21152958 27.26595977 25.21152958 29.125 22.5 C33.42444399 18.76135305 37.31697922 19.44760151 42.8125 19.6875 C43.79154297 19.71005859 44.77058594 19.73261719 45.77929688 19.75585938 C48.18777455 19.81460273 50.59309078 19.89667871 53 20 C53.495 22.475 53.495 22.475 54 25 C53.34 25 52.68 25 52 25 C52 24.34 52 23.68 52 23 C45.56688704 22.90492937 39.34241995 22.84683274 33 24 C32.505 25.485 32.505 25.485 32 27 C27.34755986 29.32622007 20.9262419 27.98524838 16 27 C16 28.32 16 29.64 16 31 C15.30132812 31.02578125 14.60265625 31.0515625 13.8828125 31.078125 C12.97273438 31.13484375 12.06265625 31.1915625 11.125 31.25 C10.22007812 31.29640625 9.31515625 31.3428125 8.3828125 31.390625 C5.82889456 31.75611148 5.82889456 31.75611148 4.6796875 34.046875 C4.34324219 35.01367188 4.34324219 35.01367188 4 36 C0.64404172 35.40072174 -1.37801226 34.15377564 -4 32 C-2.35 34.31 -0.7 36.62 1 39 C-5.93 39 -12.86 39 -20 39 C-20 38.01 -20 37.02 -20 36 C-16.37 36 -12.74 36 -9 36 C-9 34.35 -9 32.7 -9 31 C-13.62 31 -18.24 31 -23 31 C-22.67 29.68 -22.34 28.36 -22 27 C-21.26885986 26.98018066 -20.53771973 26.96036133 -19.78442383 26.93994141 C-16.46009731 26.84447086 -13.13638014 26.73488034 -9.8125 26.625 C-8.66201172 26.5940625 -7.51152344 26.563125 -6.32617188 26.53125 C-4.65844727 26.47324219 -4.65844727 26.47324219 -2.95703125 26.4140625 C-1.42526245 26.36693115 -1.42526245 26.36693115 0.13745117 26.31884766 C3.44630326 26.07892563 3.44630326 26.07892563 8 24 C8.33 16.74 8.66 9.48 9 2 C6.36 2 3.72 2 1 2 C0.67 1.34 0.34 0.68 0 0 Z " fill="#FBF6E4" transform="translate(176,61)"/>
<path d="M0 0 C18.48 0 36.96 0 56 0 C56 0.33 56 0.66 56 1 C55.0925 1.2475 54.185 1.495 53.25 1.75 C47.77312963 3.3116331 42.39514824 5.18029256 37 7 C35.36224609 7.4640625 35.36224609 7.4640625 33.69140625 7.9375 C32.80324219 8.288125 31.91507813 8.63875 31 9 C30.67 9.99 30.34 10.98 30 12 C28.34302621 12.69040574 26.6744239 13.3530635 25 14 C24.154375 14.721875 23.30875 15.44375 22.4375 16.1875 C20 18 20 18 18 18.0625 C15.13850338 16.54232992 13.26673288 14.31200287 11 12 C10.03683123 11.0451824 9.07196446 10.09207483 8.10546875 9.140625 C7.13280027 8.17709568 6.16014408 7.21355395 5.1875 6.25 C4.68541016 5.75628906 4.18332031 5.26257813 3.66601562 4.75390625 C2.4250615 3.52139399 1.20996878 2.26294465 0 1 C0 0.67 0 0.34 0 0 Z " fill="#FAFCF6" transform="translate(80,0)"/>
<path d="M0 0 C2.81009519 1.00875212 3.66697708 1.33395417 5 4 C5.39004517 7.46702354 5.5141188 10.95369366 5.6875 14.4375 C5.74744141 15.40494141 5.80738281 16.37238281 5.86914062 17.36914062 C5.9397168 18.76229492 5.9397168 18.76229492 6.01171875 20.18359375 C6.05772217 21.03493896 6.10372559 21.88628418 6.15112305 22.76342773 C6 25 6 25 4 28 C1.94140625 28.36328125 1.94140625 28.36328125 -0.4375 28.3125 C-1.21996094 28.30863281 -2.00242187 28.30476563 -2.80859375 28.30078125 C-5 28 -5 28 -8 26 C-8.9731681 23.0804957 -9.1929546 20.94555049 -9.31640625 17.89453125 C-9.35830078 16.91162109 -9.40019531 15.92871094 -9.44335938 14.91601562 C-9.48267578 13.89185547 -9.52199219 12.86769531 -9.5625 11.8125 C-9.60568359 10.77673828 -9.64886719 9.74097656 -9.69335938 8.67382812 C-9.79944366 6.1160181 -9.90150146 3.55811155 -10 1 C-6.8249479 -0.58752605 -3.46399201 -0.281235 0 0 Z " fill="#F9EBCB" transform="translate(92,60)"/>
<path d="M0 0 C3.20847869 -0.5922192 4.8871648 -0.7856796 8 0 C11.94161243 2.86510888 15.17253848 6.32989928 18.5 9.875 C19.4178125 10.81214844 20.335625 11.74929687 21.28125 12.71484375 C28 19.66355097 28 19.66355097 28 22 C25.03 22 22.06 22 19 22 C18.34 20.68 17.68 19.36 17 18 C12.90189901 15.95094951 7.69192814 16.68278275 3.1875 16.625 C2.09373047 16.58761719 0.99996094 16.55023438 -0.12695312 16.51171875 C-6.62042403 16.31541849 -6.62042403 16.31541849 -12.0546875 19.50390625 C-12.69664062 20.32761719 -13.33859375 21.15132812 -14 22 C-17.3125 22.3125 -17.3125 22.3125 -20 22 C-18.80181826 17.60666696 -17.6495744 14.81538596 -14 12 C-11.25 11.25 -11.25 11.25 -9 11 C-9 10.34 -9 9.68 -9 9 C-7.68 9 -6.36 9 -5 9 C-5 10.65 -5 12.3 -5 14 C0.61 14 6.22 14 12 14 C8.42340123 7.81152956 8.42340123 7.81152956 2.8125 4.3125 C2.214375 4.209375 1.61625 4.10625 1 4 C1 4.66 1 5.32 1 6 C0.01 6 -0.98 6 -2 6 C-2 4.68 -2 3.36 -2 2 C-1.34 2 -0.68 2 0 2 C0 1.34 0 0.68 0 0 Z " fill="#D7904C" transform="translate(215,64)"/>
<path d="M0 0 C4.25174796 -0.60739257 6.67519819 -0.94859502 10.2421875 1.60546875 C13.95000477 5.22500465 16.09072458 8.18961777 18 13 C20.01508358 13.73323796 20.01508358 13.73323796 22 14 C22.33 14.66 22.66 15.32 23 16 C24.94074861 15.72382467 24.94074861 15.72382467 27 15 C27.66 14.01 28.32 13.02 29 12 C29.66 12 30.32 12 31 12 C31.226875 11.443125 31.45375 10.88625 31.6875 10.3125 C34.31347387 5.68578413 38.21432031 2.27319785 43 0 C45.8125 -0.1875 45.8125 -0.1875 48 0 C47.52243931 4.29804624 45.0106917 6.08468834 42 9 C40.98327683 10.02366326 39.96901958 11.04978065 38.95703125 12.078125 C37.90887692 13.13543923 36.86069962 14.19273067 35.8125 15.25 C35.01295898 16.06210938 35.01295898 16.06210938 34.19726562 16.890625 C29.1786222 21.94083222 29.1786222 21.94083222 26.0546875 22.09765625 C24.03645833 22.06510417 22.01822917 22.03255208 20 22 C19.9175 21.38125 19.835 20.7625 19.75 20.125 C19.22833682 17.85523765 19.22833682 17.85523765 17.23046875 17.13671875 C14.45967768 15.72463433 12.72463028 13.91707975 10.5625 11.6875 C9.38880859 10.48480469 9.38880859 10.48480469 8.19140625 9.2578125 C7.46824219 8.51273438 6.74507812 7.76765625 6 7 C5.00217861 6.01861331 4.00270575 5.03889569 3 4.0625 C1 2 1 2 0 0 Z " fill="#D29054" transform="translate(28,64)"/>
<path d="M0 0 C6.82823339 -0.74544033 6.82823339 -0.74544033 9.81445312 1.15429688 C11.56471515 2.77763932 13.1643615 4.46567909 14.75 6.25 C15.30042969 6.83652344 15.85085937 7.42304687 16.41796875 8.02734375 C17.95953129 9.67241649 19.48095124 11.33416675 21 13 C23.12770174 15.33394503 23.12770174 15.33394503 25 17 C27.99400283 17 29.15425926 15.87659259 31.5 14 C33.93808679 12.04953057 35.08836641 11.67938117 38 11 C38.39832031 10.55269531 38.79664063 10.10539063 39.20703125 9.64453125 C41.71644337 7.34287002 44.39112677 6.45476749 47.5625 5.25 C48.71878906 4.80140625 49.87507813 4.3528125 51.06640625 3.890625 C54 3 54 3 56 4 C53.35261084 5.4606285 52.10551666 6 49 6 C49 6.66 49 7.32 49 8 C47.34928604 9.02611949 45.68029994 10.02308143 44 11 C43.525625 11.515625 43.05125 12.03125 42.5625 12.5625 C39.4743884 15.40356267 35.01117089 16.07434518 31 17 C31 17.66 31 18.32 31 19 C28.69 19 26.38 19 24 19 C25.19976433 22.08510827 26.50002556 25.05047042 28 28 C17.79644801 20.80781149 7.38953964 12.12640617 0 2 C0 1.34 0 0.68 0 0 Z " fill="#D98F4B" transform="translate(72,0)"/>
<path d="M0 0 C2.64 0 5.28 0 8 0 C8.11613204 3.10385211 8.18722029 6.20714662 8.25 9.3125 C8.28351563 10.19357422 8.31703125 11.07464844 8.3515625 11.98242188 C8.45041275 18.48182604 8.45041275 18.48182604 6.234375 21.03125 C-4.06188533 25.49536287 -15.35648562 24.8382705 -26 22 C-25.505 20.515 -25.505 20.515 -25 19 C-17.08 19 -9.16 19 -1 19 C-0.67 12.73 -0.34 6.46 0 0 Z " fill="#C38B4F" transform="translate(177,63)"/>
<path d="M0 0 C1.65 0.66 3.3 1.32 5 2 C5 4.64 5 7.28 5 10 C-3.91 10 -12.82 10 -22 10 C-22 7.36 -22 4.72 -22 2 C-17.04649325 0.94523121 -12.62160651 1.04445772 -7.625 1.4375 C-6.88894531 1.48970703 -6.15289062 1.54191406 -5.39453125 1.59570312 C-3.59589371 1.72417723 -1.79787091 1.86120949 0 2 C0 1.34 0 0.68 0 0 Z " fill="#FCFBF9" transform="translate(95,90)"/>
<path d="M0 0 C4.37823917 -0.04938149 8.75633146 -0.0857104 13.13476562 -0.10986328 C14.6247032 -0.11993043 16.11462097 -0.13358518 17.60449219 -0.15087891 C19.74419028 -0.17509653 21.88362753 -0.18647564 24.0234375 -0.1953125 C25.31169434 -0.20578613 26.59995117 -0.21625977 27.92724609 -0.22705078 C31 0 31 0 33 2 C33 3.32 33 4.64 33 6 C29.60102327 8.26598448 28.43680827 8.23742654 24.45703125 8.1953125 C22.84731445 8.18564453 22.84731445 8.18564453 21.20507812 8.17578125 C19.52575195 8.15064453 19.52575195 8.15064453 17.8125 8.125 C16.68134766 8.11597656 15.55019531 8.10695313 14.38476562 8.09765625 C11.58963172 8.07406862 8.79492155 8.041153 6 8 C6 6.02 6 4.04 6 2 C4.35 2 2.7 2 1 2 C0.67 1.34 0.34 0.68 0 0 Z " fill="#AFAEAD" transform="translate(232,92)"/>
<path d="M0 0 C4.95 0 9.9 0 15 0 C15.33 1.98 15.66 3.96 16 6 C16.44730469 5.55527344 16.89460938 5.11054687 17.35546875 4.65234375 C22.27003699 0.05214021 22.27003699 0.05214021 25.625 -0.1875 C28.75806829 1.37903414 30.73535273 3.34712748 33 6 C33 6.66 33 7.32 33 8 C22.11 8 11.22 8 0 8 C0 5.36 0 2.72 0 0 Z " fill="#EBEBEC" transform="translate(19,92)"/>
<path d="M0 0 C-0.33 0.99 -0.66 1.98 -1 3 C-2.30324219 3.16435547 -2.30324219 3.16435547 -3.6328125 3.33203125 C-12.98926118 4.61932788 -19.00767705 6.65812569 -26 13 C-26.33 13.66 -26.66 14.32 -27 15 C-27.66 15 -28.32 15 -29 15 C-29.33 16.32 -29.66 17.64 -30 19 C-30.66 19 -31.32 19 -32 19 C-32.33 19.99 -32.66 20.98 -33 22 C-35.0625 22.6875 -35.0625 22.6875 -37 23 C-37.33 22.34 -37.66 21.68 -38 21 C-40.52733235 20.34444881 -40.52733235 20.34444881 -43 20 C-42.67 18.35 -42.34 16.7 -42 15 C-41.67 15.66 -41.34 16.32 -41 17 C-41.33 17.66 -41.66 18.32 -42 19 C-37.56507662 16.71918226 -35.1286683 13.83261866 -32 10 C-22.35939535 1.37419584 -12.63124392 -0.48374977 0 0 Z " fill="#D3A36A" transform="translate(168,26)"/>
<path d="M0 0 C1.4540625 0.0309375 1.4540625 0.0309375 2.9375 0.0625 C3.4325 2.0425 3.4325 2.0425 3.9375 4.0625 C-2.43765478 6.35549282 -8.39363736 6.32086904 -15.12109375 6.2578125 C-16.26538345 6.2549826 -17.40967316 6.25215271 -18.58863831 6.24923706 C-22.22586743 6.23808578 -25.86284591 6.21299014 -29.5 6.1875 C-31.97330372 6.17746369 -34.44661132 6.16833898 -36.91992188 6.16015625 C-42.96753273 6.13816296 -49.01499845 6.10473564 -55.0625 6.0625 C-53.48950111 4.21822519 -52.50825002 3.17827447 -50.13037109 2.56066895 C-49.41445801 2.50519897 -48.69854492 2.449729 -47.9609375 2.39257812 C-46.76355957 2.29601929 -46.76355957 2.29601929 -45.54199219 2.19750977 C-41.58994645 1.98231862 -37.64477922 1.84811068 -33.6875 1.78125 C-31.94400991 1.74351319 -30.20052034 1.7057521 -28.45703125 1.66796875 C-25.74009593 1.61403578 -23.02313483 1.56175384 -20.30615234 1.51025391 C-17.66233478 1.4587479 -15.01868756 1.40149064 -12.375 1.34375 C-11.55531738 1.33017456 -10.73563477 1.31659912 -9.89111328 1.3026123 C-6.17555621 1.219978 -3.4532724 0.07047495 0 0 Z " fill="#F28225" transform="translate(187.0625,-0.0625)"/>
<path d="M0 0 C-0.33 1.32 -0.66 2.64 -1 4 C-1.55872803 4.01981934 -2.11745605 4.03963867 -2.69311523 4.06005859 C-5.27497418 4.1565219 -7.85615392 4.26569812 -10.4375 4.375 C-11.31599609 4.4059375 -12.19449219 4.436875 -13.09960938 4.46875 C-20.79531942 4.80951945 -28.40945387 5.26885969 -34.8125 9.9375 C-35.52019531 10.44152344 -36.22789062 10.94554687 -36.95703125 11.46484375 C-37.63121094 11.97144531 -38.30539063 12.47804688 -39 13 C-39.74636719 13.55816406 -40.49273437 14.11632813 -41.26171875 14.69140625 C-41.83535156 15.12324219 -42.40898437 15.55507813 -43 16 C-43.33 15.01 -43.66 14.02 -44 13 C-43.34 12.67 -42.68 12.34 -42 12 C-42.99 11.34 -43.98 10.68 -45 10 C-44.34 10 -43.68 10 -43 10 C-43 9.34 -43 8.68 -43 8 C-30.62427147 -1.65306825 -14.86688168 -0.4149788 0 0 Z " fill="#D39B5E" transform="translate(175,19)"/>
<path d="M0 0 C1.125 3.75 1.125 3.75 0 6 C-0.66 5.67 -1.32 5.34 -2 5 C-1.67 4.01 -1.34 3.02 -1 2 C-22.70701208 1.73946636 -22.70701208 1.73946636 -42 10 C-42.66 10 -43.32 10 -44 10 C-44 10.66 -44 11.32 -44 12 C-44.639375 12.103125 -45.27875 12.20625 -45.9375 12.3125 C-46.618125 12.539375 -47.29875 12.76625 -48 13 C-48.33 13.99 -48.66 14.98 -49 16 C-54.34883721 21 -54.34883721 21 -58 21 C-57.67651262 17.98078447 -57.12918552 17.1076546 -54.75 15.125 C-53.8425 14.42375 -52.935 13.7225 -52 13 C-51.175 11.989375 -50.35 10.97875 -49.5 9.9375 C-38.0598741 -3.50464793 -15.6568247 -0.44358444 0 0 Z " fill="#FCE4B5" transform="translate(176,17)"/>
<path d="M0 0 C4.62 0 9.24 0 14 0 C14.66 1.32 15.32 2.64 16 4 C16.66 4.33 17.32 4.66 18 5 C18 3.35 18 1.7 18 0 C21.96 0 25.92 0 30 0 C29.67 0.66 29.34 1.32 29 2 C26.36 1.67 23.72 1.34 21 1 C21 1.66 21 2.32 21 3 C23.31 3 25.62 3 28 3 C28.33 3.66 28.66 4.32 29 5 C26.36 5.33 23.72 5.66 21 6 C23.97 6.33 26.94 6.66 30 7 C30.33 6.01 30.66 5.02 31 4 C31 5.32 31 6.64 31 8 C20.77 8 10.54 8 0 8 C0 5.36 0 2.72 0 0 Z " fill="#E7E6E8" transform="translate(106,92)"/>
<path d="M0 0 C2.875 2.3125 2.875 2.3125 5 5 C5 5.99 5 6.98 5 8 C5.99 8 6.98 8 8 8 C8.33 9.65 8.66 11.3 9 13 C12.63 13.99 16.26 14.98 20 16 C19.01 17.32 18.02 18.64 17 20 C15.0625 19.625 15.0625 19.625 13 19 C12.67 18.34 12.34 17.68 12 17 C11.01 16.67 10.02 16.34 9 16 C7.53515625 14.29296875 7.53515625 14.29296875 6.0625 12.1875 C5.5365625 11.46949219 5.010625 10.75148438 4.46875 10.01171875 C3.9840625 9.34785156 3.499375 8.68398437 3 8 C1.22845348 5.47409152 1.22845348 5.47409152 -1 4 C-4.6675213 3.66582071 -4.6675213 3.66582071 -8 4 C-7.505 4.45375 -7.01 4.9075 -6.5 5.375 C-5 7 -5 7 -5 9 C-4.43539062 9.23589844 -3.87078125 9.47179687 -3.2890625 9.71484375 C-0.47928037 11.29234942 1.39619051 13.24051286 3.625 15.5625 C6.51070681 18.69042054 6.51070681 18.69042054 10 21 C9.67 21.66 9.34 22.32 9 23 C7.02 22.01 5.04 21.02 3 20 C3 19.34 3 18.68 3 18 C2.01 17.67 1.02 17.34 0 17 C-0.33 16.34 -0.66 15.68 -1 15 C-3.52733235 14.34444881 -3.52733235 14.34444881 -6 14 C-6 13.34 -6 12.68 -6 12 C-6.99 12 -7.98 12 -9 12 C-9.33 8.7 -9.66 5.4 -10 2 C-5.94802499 -0.02598751 -4.38341943 -0.62620278 0 0 Z " fill="#F5DFC2" transform="translate(37,61)"/>
<path d="M0 0 C0.69287109 0.00451172 1.38574219 0.00902344 2.09960938 0.01367188 C3.79561068 0.02536844 5.49156703 0.04330076 7.1875 0.0625 C6.8575 1.0525 6.5275 2.0425 6.1875 3.0625 C4.57681641 3.22685547 4.57681641 3.22685547 2.93359375 3.39453125 C1.4973322 3.55411587 0.06113767 3.71430442 -1.375 3.875 C-2.07947266 3.94525391 -2.78394531 4.01550781 -3.50976562 4.08789062 C-13.67098625 5.25853816 -21.24189458 10.31478647 -28.8125 17.0625 C-29.534375 17.990625 -30.25625 18.91875 -31 19.875 C-31.598125 20.596875 -32.19625 21.31875 -32.8125 22.0625 C-33.8025 22.0625 -34.7925 22.0625 -35.8125 22.0625 C-34.51282174 16.98193954 -32.70590028 14.5327046 -28.8125 11.0625 C-27.90951172 10.19044922 -27.90951172 10.19044922 -26.98828125 9.30078125 C-19.03085573 1.84362609 -10.77626873 -0.13405885 0 0 Z " fill="#F9E5B8" transform="translate(161.8125,22.9375)"/>
<path d="M0 0 C2.64 0 5.28 0 8 0 C8 7.26 8 14.52 8 22 C5.36 22 2.72 22 0 22 C0 14.74 0 7.48 0 0 Z " fill="#D39356" transform="translate(86,64)"/>
<path d="M0 0 C1.56965564 0.0100671 3.13931765 0.01918625 4.70898438 0.02734375 C8.49365191 0.04902245 12.27800189 0.08333815 16.0625 0.125 C15.71038892 2.67780531 15.23346499 3.93843774 13.47558594 5.85668945 C10.15453055 7.60222595 7.11021113 7.49872551 3.453125 7.41796875 C2.72631531 7.41372391 1.99950562 7.40947906 1.25067139 7.40510559 C-1.06243504 7.3883613 -3.37465855 7.35071885 -5.6875 7.3125 C-7.25910197 7.29744758 -8.83071764 7.28376015 -10.40234375 7.27148438 C-14.24773415 7.23847195 -18.09246756 7.18672056 -21.9375 7.125 C-21.9375 6.795 -21.9375 6.465 -21.9375 6.125 C-13.0275 6.125 -4.1175 6.125 5.0625 6.125 C5.0625 4.805 5.0625 3.485 5.0625 2.125 C4.09948975 2.18558594 3.13647949 2.24617187 2.14428711 2.30859375 C-1.45437399 2.53441704 -5.05320826 2.75737105 -8.65209961 2.97949219 C-10.20488213 3.07572369 -11.75761768 3.17271638 -13.31030273 3.27050781 C-15.55179901 3.41154578 -17.79345414 3.54977694 -20.03515625 3.6875 C-21.06371483 3.75312134 -21.06371483 3.75312134 -22.11305237 3.82006836 C-26.39420669 4.07974006 -30.64901216 4.16400842 -34.9375 4.125 C-28.15478746 -2.65771254 -9.11826647 -0.10351679 0 0 Z " fill="#D49556" transform="translate(170.9375,9.875)"/>
<path d="M0 0 C0 0.99 0 1.98 0 3 C0.99 2.67 1.98 2.34 3 2 C4.99402048 6.11266723 5.50605388 9.44551506 5 14 C3 15.9375 3 15.9375 1 17 C1.99 17.66 2.98 18.32 4 19 C2.02 19 0.04 19 -2 19 C-1.67 17.35 -1.34 15.7 -1 14 C0.32 13.67 1.64 13.34 3 13 C2.34 10.03 1.68 7.06 1 4 C-7.2432467 2.22067142 -15.26928965 1.60188046 -23.6875 1.375 C-24.87794922 1.33632813 -26.06839844 1.29765625 -27.29492188 1.2578125 C-30.19638976 1.16459265 -33.09817253 1.08125972 -36 1 C-36 8.59 -36 16.18 -36 24 C-36.66 24 -37.32 24 -38 24 C-38.98043964 21.05868109 -39.11621202 19.17498335 -39.09765625 16.11328125 C-39.09443359 15.17548828 -39.09121094 14.23769531 -39.08789062 13.27148438 C-39.07532227 11.80678711 -39.07532227 11.80678711 -39.0625 10.3125 C-39.05798828 9.32443359 -39.05347656 8.33636719 -39.04882812 7.31835938 C-39.03704303 4.87884526 -39.02059011 2.43945311 -39 0 C-34.89263811 -0.16936387 -30.78502658 -0.32971004 -26.67700195 -0.48217773 C-25.28335407 -0.53511737 -23.88979294 -0.59040029 -22.49633789 -0.64819336 C-14.90342256 -0.96149988 -7.53848378 -1.12701585 0 0 Z " fill="#FEF5E0" transform="translate(143,62)"/>
<path d="M0 0 C0.33 0.66 0.66 1.32 1 2 C0.34 2 -0.32 2 -1 2 C-1 3.32 -1 4.64 -1 6 C-0.01 6 0.98 6 2 6 C2 5.34 2 4.68 2 4 C4.86855713 4.08436933 6.55682315 4.58692181 8.66796875 6.5546875 C13 11.51440024 13 11.51440024 13 14 C7.39 14 1.78 14 -4 14 C-4 12.35 -4 10.7 -4 9 C-5.32 9 -6.64 9 -8 9 C-8 9.66 -8 10.32 -8 11 C-9.32 11.33 -10.64 11.66 -12 12 C-8.90644332 6.58627581 -5.11672973 3.50222763 0 0 Z " fill="#D6A16B" transform="translate(214,64)"/>
<path d="M0 0 C0.66 0.99 1.32 1.98 2 3 C0.4176994 3.33820166 -1.16589375 3.67035939 -2.75 4 C-3.63171875 4.185625 -4.5134375 4.37125 -5.421875 4.5625 C-8 5 -8 5 -12 5 C-12 5.66 -12 6.32 -12 7 C-12.59167969 7.17015625 -13.18335938 7.3403125 -13.79296875 7.515625 C-18.68570237 9.01616973 -22.09945591 10.57224913 -26 14 C-26.66 14 -27.32 14 -28 14 C-28 14.66 -28 15.32 -28 16 C-29.75 18.125 -29.75 18.125 -32 20 C-33.32 20 -34.64 20 -36 20 C-35.91828946 17.22184153 -35.45693162 15.49264865 -33.55078125 13.4375 C-30.23356668 10.55922272 -26.81734418 8.18133953 -23 6 C-22.34 5.34 -21.68 4.68 -21 4 C-14.18449885 1.35489049 -7.34082572 -0.96954302 0 0 Z " fill="#FAE3B1" transform="translate(144,9)"/>
<path d="M0 0 C2.75026417 -0.05404449 5.49946203 -0.09369306 8.25 -0.125 C9.02730469 -0.14175781 9.80460937 -0.15851563 10.60546875 -0.17578125 C17.72431144 -0.23662606 17.72431144 -0.23662606 21 2 C21 3.65 21 5.3 21 7 C18.23434618 7.92188461 16.61716298 8.11785222 13.76953125 8.09765625 C12.96708984 8.09443359 12.16464844 8.09121094 11.33789062 8.08789062 C10.50451172 8.07951172 9.67113281 8.07113281 8.8125 8.0625 C7.5450293 8.05573242 7.5450293 8.05573242 6.25195312 8.04882812 C4.16793845 8.03705403 2.08396023 8.0191189 0 8 C0 5.36 0 2.72 0 0 Z " fill="#F4D1A3" transform="translate(115,66)"/>
<path d="M0 0 C0.84046875 0.01804687 1.6809375 0.03609375 2.546875 0.0546875 C4.61507395 0.10169202 6.68268441 0.17343276 8.75 0.25 C8.42 0.91 8.09 1.57 7.75 2.25 C6.1 2.25 4.45 2.25 2.75 2.25 C2.75 4.23 2.75 6.21 2.75 8.25 C-0.31398451 8.38530844 -3.37197126 8.4842407 -6.4375 8.5625 C-7.30181641 8.60439453 -8.16613281 8.64628906 -9.05664062 8.68945312 C-13.65944596 8.77762947 -15.59978795 8.75010036 -19.36328125 5.85546875 C-21.25 3.25 -21.25 3.25 -21.25 1.25 C-20.38375 1.7140625 -20.38375 1.7140625 -19.5 2.1875 C-16.49217147 3.66571361 -16.49217147 3.66571361 -13.25 4.25 C-12.73953125 3.59773438 -12.2290625 2.94546875 -11.703125 2.2734375 C-8.01366444 -0.76977997 -4.62478967 -0.18788208 0 0 Z " fill="#C5C5C6" transform="translate(193.25,91.75)"/>
<path d="M0 0 C1.32 0.33 2.64 0.66 4 1 C3.34 1.66 2.68 2.32 2 3 C2 3.99 2 4.98 2 6 C1.34 6 0.68 6 0 6 C-0.433125 7.2065625 -0.433125 7.2065625 -0.875 8.4375 C-2 11 -2 11 -4 12 C-4.65213292 14.02463255 -4.65213292 14.02463255 -5 16 C-4.195625 15.979375 -3.39125 15.95875 -2.5625 15.9375 C0 16 0 16 1 17 C1.04063832 18.66617115 1.042721 20.33388095 1 22 C-1.97 22 -4.94 22 -8 22 C-8.12375 20.081875 -8.12375 20.081875 -8.25 18.125 C-8.45869931 15.94666582 -8.45869931 15.94666582 -9 14 C-10.92064793 12.4100567 -10.92064793 12.4100567 -13 12 C-12.67 11.01 -12.34 10.02 -12 9 C-10.34561387 8.30341637 -8.67745682 7.63903117 -7 7 C-6.46375 6.46375 -5.9275 5.9275 -5.375 5.375 C-4.92125 4.92125 -4.4675 4.4675 -4 4 C-3.01 4 -2.02 4 -1 4 C-0.67 2.68 -0.34 1.36 0 0 Z " fill="#DA8E42" transform="translate(130,30)"/>
<path d="M0 0 C0.66 0.33 1.32 0.66 2 1 C1.67 1.99 1.34 2.98 1 4 C6.445 3.01 6.445 3.01 12 2 C11 4 11 4 8.1875 5.375 C4.96229984 6.81252857 4.96229984 6.81252857 2.8125 9.1875 C2.214375 9.785625 1.61625 10.38375 1 11 C0.01 11 -0.98 11 -2 11 C-2 12.32 -2 13.64 -2 15 C-5.85322864 14.73727987 -7.56137153 14.42708562 -10.375 11.6875 C-12 9 -12 9 -12 5 C-9.69 5 -7.38 5 -5 5 C-5 4.34 -5 3.68 -5 3 C-2.625 1.3125 -2.625 1.3125 0 0 Z " fill="#E8852F" transform="translate(108,14)"/>
<path d="M0 0 C6.6 0 13.2 0 20 0 C20 0.33 20 0.66 20 1 C18.71802734 1.09087891 18.71802734 1.09087891 17.41015625 1.18359375 C15.75306641 1.30927734 15.75306641 1.30927734 14.0625 1.4375 C12.96035156 1.51871094 11.85820313 1.59992188 10.72265625 1.68359375 C8.08890097 1.70418084 8.08890097 1.70418084 7 3 C6.76924918 4.34747084 6.58846937 5.70377565 6.4375 7.0625 C6.293125 8.361875 6.14875 9.66125 6 11 C7.32 11.33 8.64 11.66 10 12 C9.01 12.33 8.02 12.66 7 13 C6.67 15.64 6.34 18.28 6 21 C4.02 21 2.04 21 0 21 C0 14.07 0 7.14 0 0 Z " fill="#D28D4B" transform="translate(108,64)"/>
<path d="M0 0 C3.63 0 7.26 0 11 0 C9.87836006 5.60819972 9.03214967 9.03702937 5 13 C4.12353659 14.14471434 3.24859121 15.29059224 2.375 16.4375 C-1.6349952 21.11087713 -6.41372729 23.66854146 -12.578125 24.23828125 C-14.72019922 24.24838537 -16.8622066 24.13573291 -19 24 C-19 23.67 -19 23.34 -19 23 C-18.40574219 22.98324219 -17.81148437 22.96648437 -17.19921875 22.94921875 C-8.10432805 22.00153963 -3.81686091 16.46020036 2 10 C2.90492187 9.10539062 3.80984375 8.21078125 4.7421875 7.2890625 C6.77987037 5.2231764 7.91710422 3.65801692 9 1 C1.37580473 3.1783415 -3.25089519 6.85409966 -8 13 C-9 10 -9 10 -8.0625 7.8125 C-7.711875 7.214375 -7.36125 6.61625 -7 6 C-6.01 6 -5.02 6 -4 6 C-4 4.68 -4 3.36 -4 2 C-2.68 2 -1.36 2 0 2 C0 1.34 0 0.68 0 0 Z " fill="#F5E2BE" transform="translate(67,63)"/>
<path d="M0 0 C2.97 0 5.94 0 9 0 C9 2 9 2 6.5625 4.5625 C5.716875 5.366875 4.87125 6.17125 4 7 C3.67 7.33 3.34 7.66 3 8 C1.25161165 8.1231517 -0.50164504 8.17787811 -2.25415039 8.20532227 C-3.37523697 8.22526749 -4.49632355 8.24521271 -5.65138245 8.26576233 C-7.48103798 8.29083107 -7.48103798 8.29083107 -9.34765625 8.31640625 C-10.58921982 8.33718735 -11.83078339 8.35796844 -13.10997009 8.37937927 C-16.41599123 8.43383609 -19.72202245 8.48404205 -23.02813721 8.53222656 C-26.39967491 8.58239856 -29.77112053 8.63810701 -33.14257812 8.69335938 C-39.76164551 8.80070038 -46.3807816 8.90244198 -53 9 C-53 8.67 -53 8.34 -53 8 C-40.83363575 6.16255789 -28.70656154 5.63876285 -16.42333984 5.34204102 C-15.17762207 5.31037842 -13.9319043 5.27871582 -12.6484375 5.24609375 C-11.53645996 5.22216553 -10.42448242 5.1982373 -9.27880859 5.17358398 C-5.80629598 4.98974508 -2.43374291 4.53949499 1 4 C0.505 2.02 0.505 2.02 0 0 Z " fill="#DC9F62" transform="translate(190,0)"/>
<path d="M0 0 C1.32 0 2.64 0 4 0 C4.02888514 3.14581423 4.04675923 6.29159469 4.0625 9.4375 C4.07087891 10.33533203 4.07925781 11.23316406 4.08789062 12.15820312 C4.09272461 13.43920898 4.09272461 13.43920898 4.09765625 14.74609375 C4.10551147 15.93223267 4.10551147 15.93223267 4.11352539 17.14233398 C4 19 4 19 3 20 C0.42657936 20.10091846 -2.11428381 20.1386752 -4.6875 20.125 C-5.39583984 20.12886719 -6.10417969 20.13273437 -6.83398438 20.13671875 C-10.99710733 20.12903062 -14.89906912 19.81372802 -19 19 C-19 18.67 -19 18.34 -19 18 C-17.41058594 17.96132812 -17.41058594 17.96132812 -15.7890625 17.921875 C-14.40099999 17.8656022 -13.01298075 17.80825467 -11.625 17.75 C-10.92632812 17.73582031 -10.22765625 17.72164062 -9.5078125 17.70703125 C-7.22282354 17.63964218 -7.22282354 17.63964218 -4 17 C-1.4782191 14.0955098 -1.65107814 10.54330119 -1.4375 6.8125 C-1.09897172 1.09897172 -1.09897172 1.09897172 0 0 Z " fill="#FCF1D3" transform="translate(173,63)"/>
<path d="M0 0 C2.64 0 5.28 0 8 0 C8 0.33 8 0.66 8 1 C5.69 1 3.38 1 1 1 C1.12568359 2.93166016 1.12568359 2.93166016 1.25390625 4.90234375 C1.35704621 6.58071227 1.45989584 8.25909864 1.5625 9.9375 C1.61857422 10.78763672 1.67464844 11.63777344 1.73242188 12.51367188 C1.78076172 13.32255859 1.82910156 14.13144531 1.87890625 14.96484375 C1.9260376 15.7137085 1.97316895 16.46257324 2.02172852 17.23413086 C2 19 2 19 1 20 C1.99 20.66 2.98 21.32 4 22 C-6.28986317 24.74396351 -15.71013683 24.74396351 -26 22 C-25.505 20.515 -25.505 20.515 -25 19 C-17.08 19 -9.16 19 -1 19 C-0.67 12.73 -0.34 6.46 0 0 Z " fill="#CFA879" transform="translate(177,63)"/>
<path d="M0 0 C-2.64738916 1.4606285 -3.89448334 2 -7 2 C-7 2.66 -7 3.32 -7 4 C-8.65071396 5.02611949 -10.31970006 6.02308143 -12 7 C-12.474375 7.515625 -12.94875 8.03125 -13.4375 8.5625 C-16.5256116 11.40356267 -20.98882911 12.07434518 -25 13 C-25 13.66 -25 14.32 -25 15 C-27.31 15 -29.62 15 -32 15 C-30.80100302 18.0831351 -29.52299523 21.06279492 -28 24 C-32.8 20.67692308 -32.8 20.67692308 -33.8125 17.25 C-33.874375 16.5075 -33.93625 15.765 -34 15 C-34.928125 14.8453125 -34.928125 14.8453125 -35.875 14.6875 C-38 14 -38 14 -40 11 C-39.625 8.8125 -39.625 8.8125 -39 7 C-38.67 8.65 -38.34 10.3 -38 12 C-36.35 12 -34.7 12 -33 12 C-33 12.66 -33 13.32 -33 14 C-28.44036793 12.72754454 -25.63848223 10.9682355 -22 8 C-20.67139075 7.64830932 -19.33841672 7.31229724 -18 7 C-17.60167969 6.55269531 -17.20335938 6.10539063 -16.79296875 5.64453125 C-14.28355663 3.34287002 -11.60887323 2.45476749 -8.4375 1.25 C-7.28121094 0.80140625 -6.12492187 0.3528125 -4.93359375 -0.109375 C-2 -1 -2 -1 0 0 Z " fill="#DD944F" transform="translate(128,4)"/>
<path d="M0 0 C2 1 2 1 3.1875 4.4375 C4 8 4 8 3 10 C4.32 9.67 5.64 9.34 7 9 C7 10.32 7 11.64 7 13 C2.05 13 -2.9 13 -8 13 C-8 10.69 -8 8.38 -8 6 C-6.68 5.34 -5.36 4.68 -4 4 C-3.34 4.66 -2.68 5.32 -2 6 C-2 4.68 -2 3.36 -2 2 C-1.34 2 -0.68 2 0 2 C0 1.34 0 0.68 0 0 Z " fill="#F8FAFA" transform="translate(146,87)"/>
<path d="M0 0 C4.10457704 -0.08166808 8.20749495 -0.14082696 12.3125 -0.1875 C13.46041016 -0.21263672 14.60832031 -0.23777344 15.79101562 -0.26367188 C23.34646181 -0.32788247 29.83519713 0.58204941 37 3 C37 5.64 37 8.28 37 11 C36.34 10.67 35.68 10.34 35 10 C35 8.35 35 6.7 35 5 C32.42788678 3.71394339 30.43093034 3.78956059 27.5546875 3.68359375 C26.47832031 3.64169922 25.40195313 3.59980469 24.29296875 3.55664062 C22.60107422 3.49766602 22.60107422 3.49766602 20.875 3.4375 C19.73933594 3.39431641 18.60367188 3.35113281 17.43359375 3.30664062 C14.62252232 3.2003396 11.81136055 3.09830595 9 3 C9 2.67 9 2.34 9 2 C6.36 1.67 3.72 1.34 1 1 C1 7.93 1 14.86 1 22 C2.98 22 4.96 22 7 22 C7 19.36 7 16.72 7 14 C7.33 14 7.66 14 8 14 C8 16.97 8 19.94 8 23 C5.36 23 2.72 23 0 23 C0 15.41 0 7.82 0 0 Z " fill="#E5BC8C" transform="translate(107,63)"/>
<path d="M0 0 C5.94 0 11.88 0 18 0 C18 2.64 18 5.28 18 8 C14.04 8 10.08 8 6 8 C6 6.02 6 4.04 6 2 C4.35 2 2.7 2 1 2 C0.67 1.34 0.34 0.68 0 0 Z " fill="#F5F6F5" transform="translate(232,92)"/>
<path d="M0 0 C4.62 0 9.24 0 14 0 C13.67 2.64 13.34 5.28 13 8 C8.71 8 4.42 8 0 8 C0 5.36 0 2.72 0 0 Z " fill="#A1A1A1" transform="translate(0,92)"/>
<path d="M0 0 C1.55208664 0.00424484 1.55208664 0.00424484 3.13552856 0.00857544 C6.42640964 0.01973202 9.71701428 0.04482853 13.0078125 0.0703125 C15.24478772 0.08034813 17.48176723 0.08947297 19.71875 0.09765625 C25.1901978 0.11965655 30.66148539 0.15308912 36.1328125 0.1953125 C33.03564325 1.99091474 30.74518725 2.45903866 27.18066406 2.51416016 C25.70959198 2.54396469 25.70959198 2.54396469 24.20880127 2.57437134 C23.15763123 2.58592255 22.10646118 2.59747375 21.0234375 2.609375 C19.94149109 2.62874115 18.85954468 2.6481073 17.74481201 2.6680603 C14.29089224 2.72781487 10.83693906 2.77422547 7.3828125 2.8203125 C5.04035009 2.85849603 2.69790166 2.89754798 0.35546875 2.9375 C-5.38529249 3.03351306 -11.12613803 3.11857277 -16.8671875 3.1953125 C-16.8671875 2.8653125 -16.8671875 2.5353125 -16.8671875 2.1953125 C-11.23227316 -0.2030531 -6.00785873 -0.06219692 0 0 Z " fill="#FEEEBD" transform="translate(155.8671875,7.8046875)"/>
<path d="M0 0 C0.33 0.99 0.66 1.98 1 3 C2.98 3 4.96 3 7 3 C7 4.65 7 6.3 7 8 C7.99 8 8.98 8 10 8 C10 6.35 10 4.7 10 3 C11.32 3.66 12.64 4.32 14 5 C13.01171875 6.984375 13.01171875 6.984375 11 9 C8.12961948 9.29561076 5.66245255 9.37943016 2.8125 9.25 C2.06291016 9.23195313 1.31332031 9.21390625 0.54101562 9.1953125 C-1.3065371 9.14824109 -3.15343159 9.07649766 -5 9 C-5 6.36 -5 3.72 -5 1 C-3.35 0.67 -1.7 0.34 0 0 Z " fill="#F4F7F7" transform="translate(78,91)"/>
<path d="M0 0 C0.66 0.33 1.32 0.66 2 1 C1.67 1.99 1.34 2.98 1 4 C0.34 4 -0.32 4 -1 4 C-1 4.66 -1 5.32 -1 6 C-1.99 6 -2.98 6 -4 6 C-4.66 7.98 -5.32 9.96 -6 12 C-6.66 12 -7.32 12 -8 12 C-8.144375 12.639375 -8.28875 13.27875 -8.4375 13.9375 C-9 16 -9 16 -10 17 C-12.08043713 17.12635423 -14.16576212 17.17581705 -16.25 17.1875 C-17.38953125 17.20167969 -18.5290625 17.21585938 -19.703125 17.23046875 C-22.95951562 17.00283007 -25.11596897 16.49333279 -28 15 C-29.875 12.625 -29.875 12.625 -31 10 C-30.5703125 7.8359375 -30.5703125 7.8359375 -30 6 C-28.65787938 7.09346881 -27.32652025 8.2001575 -26 9.3125 C-25.2575 9.92738281 -24.515 10.54226562 -23.75 11.17578125 C-22 13 -22 13 -22 16 C-19.03 16 -16.06 16 -13 16 C-13 15.01 -13 14.02 -13 13 C-12.0409375 12.566875 -12.0409375 12.566875 -11.0625 12.125 C-8.84793921 11.17176549 -8.84793921 11.17176549 -8 9 C-7.34 9 -6.68 9 -6 9 C-5.67 7.68 -5.34 6.36 -5 5 C-4.34 5 -3.68 5 -3 5 C-2.690625 4.360625 -2.38125 3.72125 -2.0625 3.0625 C-1 1 -1 1 0 0 Z " fill="#F5DBBE" transform="translate(144,36)"/>
<path d="M0 0 C-0.99 0.495 -0.99 0.495 -2 1 C-1.938125 1.763125 -1.87625 2.52625 -1.8125 3.3125 C-2 6 -2 6 -3.07421875 7.63671875 C-6.72431703 10.22066256 -11.41781146 9.48544529 -15.75 9.59375 C-19.25308022 10.03163503 -19.81985255 10.44187033 -22 13 C-25.1875 13.1875 -25.1875 13.1875 -28 13 C-26.26547793 9.64659066 -24.31012824 8.52348762 -20.875 7.3125 C-16.26785599 5.92052217 -11.789589 5.38012611 -7 5 C-6.67 4.01 -6.34 3.02 -6 2 C-6.66 1.67 -7.32 1.34 -8 1 C-5.07175348 0.02391783 -3.04386724 -0.08226668 0 0 Z " fill="#FAEDD2" transform="translate(174,23)"/>
<path d="M0 0 C-0.38703752 3.48333771 -1.88266996 5.15934316 -4.40625 7.4921875 C-5.63963384 8.65906535 -6.81710316 9.88519509 -7.96875 11.1328125 C-8.6596875 11.87273437 -9.350625 12.61265625 -10.0625 13.375 C-10.71347656 14.08398438 -11.36445312 14.79296875 -12.03515625 15.5234375 C-14 17 -14 17 -16.24609375 16.7265625 C-17.11427734 16.36691406 -17.11427734 16.36691406 -18 16 C-18 15.01 -18 14.02 -18 13 C-17.01 13 -16.02 13 -15 13 C-14.67 11.68 -14.34 10.36 -14 9 C-12.35 8.67 -10.7 8.34 -9 8 C-9.12375 6.8553125 -9.12375 6.8553125 -9.25 5.6875 C-9 3 -9 3 -7.3125 1.1875 C-4.65769564 -0.17577792 -2.94425817 -0.24535485 0 0 Z " fill="#CC9351" transform="translate(76,64)"/>
<path d="M0 0 C11.33183857 -1.0735426 11.33183857 -1.0735426 15.421875 1.55859375 C17.11244582 3.29457246 18.60930363 5.01762554 20 7 C18 8 18 8 14.9609375 7.00390625 C13.77757812 6.52824219 12.59421875 6.05257812 11.375 5.5625 C10.18648437 5.08941406 8.99796875 4.61632812 7.7734375 4.12890625 C6.85820313 3.75636719 5.94296875 3.38382812 5 3 C4.566875 3.8971875 4.566875 3.8971875 4.125 4.8125 C3 7 3 7 1 10 C-1.1640625 10.29296875 -1.1640625 10.29296875 -3.625 10.1875 C-4.44226563 10.16042969 -5.25953125 10.13335937 -6.1015625 10.10546875 C-6.72804688 10.07066406 -7.35453125 10.03585938 -8 10 C-8 9.67 -8 9.34 -8 9 C-5.36 9 -2.72 9 0 9 C0 6.03 0 3.06 0 0 Z " fill="#F9E7C3" transform="translate(115,77)"/>
<path d="M0 0 C0.99 0 1.98 0 3 0 C2.25 2.875 2.25 2.875 1 6 C0.34 6.309375 -0.32 6.61875 -1 6.9375 C-3.43335275 7.93554707 -3.43335275 7.93554707 -4.1875 11.5625 C-4.455625 12.696875 -4.72375 13.83125 -5 15 C-6 16 -6 16 -8.5625 16.0625 C-9.366875 16.041875 -10.17125 16.02125 -11 16 C-11.66 14.02 -12.32 12.04 -13 10 C-12 9 -12 9 -8.9375 8.9375 C-7.4834375 8.9684375 -7.4834375 8.9684375 -6 9 C-5.7525 8.443125 -5.505 7.88625 -5.25 7.3125 C-3.76129471 4.55839521 -2.11590028 2.30825486 0 0 Z " fill="#EE8328" transform="translate(122,21)"/>
<path d="M0 0 C2.62113708 0 4.50935112 0.31292445 7 1 C6.34 1 5.68 1 5 1 C6.65 3.31 8.3 5.62 10 8 C3.07 8 -3.86 8 -11 8 C-11 7.01 -11 6.02 -11 5 C-7.37 5 -3.74 5 0 5 C0 3.35 0 1.7 0 0 Z " fill="#F6F6F5" transform="translate(167,92)"/>
<path d="M0 0 C0.66 0 1.32 0 2 0 C2.598125 0.9075 3.19625 1.815 3.8125 2.75 C5.97544701 5.96352127 7.97327638 7.65428919 11 10 C11.61875 10.78375 12.2375 11.5675 12.875 12.375 C15.20360737 15.25151498 17.75077669 17.43550705 20.609375 19.765625 C21.29773438 20.37664063 21.29773438 20.37664063 22 21 C22 21.33 22 21.66 22 22 C20.35 22 18.7 22 17 22 C16.896875 21.360625 16.79375 20.72125 16.6875 20.0625 C16.460625 19.381875 16.23375 18.70125 16 18 C15.01 17.67 14.02 17.34 13 17 C13 17.66 13 18.32 13 19 C12.34 19 11.68 19 11 19 C11 18.01 11 17.02 11 16 C10.34 16 9.68 16 9 16 C8.67 14.02 8.34 12.04 8 10 C6.88625 9.71125 5.7725 9.4225 4.625 9.125 C1 8 1 8 -1 6 C-0.625 2.875 -0.625 2.875 0 0 Z " fill="#FAF2DD" transform="translate(70,0)"/>
<path d="M0 0 C1.39702148 0.00966797 1.39702148 0.00966797 2.82226562 0.01953125 C3.78197266 0.03628906 4.74167969 0.05304687 5.73046875 0.0703125 C6.70951172 0.07933594 7.68855469 0.08835937 8.69726562 0.09765625 C11.10441936 0.12114068 13.51106618 0.1539841 15.91796875 0.1953125 C15.91796875 0.5253125 15.91796875 0.8553125 15.91796875 1.1953125 C14.90597412 1.30020996 14.90597412 1.30020996 13.87353516 1.40722656 C10.76156141 1.73838955 7.65246972 2.09171157 4.54296875 2.4453125 C2.95162109 2.60966797 2.95162109 2.60966797 1.328125 2.77734375 C-5.73007626 3.60007887 -11.62334759 5.27611748 -18.08203125 8.1953125 C-19.74861344 8.86219033 -21.41526875 9.52888547 -23.08203125 10.1953125 C-24.07203125 10.6903125 -24.07203125 10.6903125 -25.08203125 11.1953125 C-23.87821677 8.70169679 -22.62774403 6.51388167 -21.08203125 4.1953125 C-18.65625 3.53515625 -18.65625 3.53515625 -15.76953125 3.1328125 C-12.87295045 2.71788619 -10.41411534 2.33901397 -7.72314453 1.17456055 C-4.93577707 0.1410857 -2.95624828 -0.03627298 0 0 Z " fill="#E0873A" transform="translate(145.08203125,4.8046875)"/>
<path d="M0 0 C3.35611759 1.39156095 5.21954742 3.3178984 7.5625 6.0625 C7.5625 6.7225 7.5625 7.3825 7.5625 8.0625 C2.2825 8.0625 -2.9975 8.0625 -8.4375 8.0625 C-4.46347403 0.11444805 -4.46347403 0.11444805 0 0 Z " fill="#C5C4C4" transform="translate(44.4375,91.9375)"/>
<path d="M0 0 C0.33 0 0.66 0 1 0 C1.33 6.6 1.66 13.2 2 20 C6.455 20.99 6.455 20.99 11 22 C11 22.99 11 23.98 11 25 C7.85069107 26.04976964 5.61185544 26.10131595 2.3125 26.0625 C1.31863281 26.05347656 0.32476562 26.04445313 -0.69921875 26.03515625 C-1.83810547 26.01775391 -1.83810547 26.01775391 -3 26 C-2.34 25.67 -1.68 25.34 -1 25 C-1.00523682 24.42032471 -1.01047363 23.84064941 -1.01586914 23.2434082 C-1.03674334 20.5997833 -1.04969327 17.95617579 -1.0625 15.3125 C-1.07087891 14.40048828 -1.07925781 13.48847656 -1.08789062 12.54882812 C-1.09111328 11.66259766 -1.09433594 10.77636719 -1.09765625 9.86328125 C-1.10289307 9.05157471 -1.10812988 8.23986816 -1.11352539 7.40356445 C-0.9929791 4.85135327 -0.559949 2.48973863 0 0 Z " fill="#FCFAF0" transform="translate(82,66)"/>
<path d="M0 0 C7.59 0.33 15.18 0.66 23 1 C23.33 2.32 23.66 3.64 24 5 C22.68 5.33 21.36 5.66 20 6 C20 5.34 20 4.68 20 4 C18.68 4 17.36 4 16 4 C15.67 4.66 15.34 5.32 15 6 C14.67 5.67 14.34 5.34 14 5 C11.47403741 4.76346477 8.96892793 4.57826308 6.4375 4.4375 C5.72658203 4.39431641 5.01566406 4.35113281 4.28320312 4.30664062 C2.52238088 4.20028223 0.7612168 4.09961154 -1 4 C-0.67 2.68 -0.34 1.36 0 0 Z " fill="#FCFBFA" transform="translate(154,88)"/>
<path d="M0 0 C2.4375 0.8125 2.4375 0.8125 5 2 C5.33 2.99 5.66 3.98 6 5 C7.41750563 4.88490339 8.83401169 4.75746342 10.25 4.625 C11.03890625 4.55539063 11.8278125 4.48578125 12.640625 4.4140625 C15.085877 3.98492887 16.84836903 3.21399362 19 2 C17.63016497 5.16115776 17.0109362 5.9927092 14 8 C13.29875 8.165 12.5975 8.33 11.875 8.5 C11.25625 8.665 10.6375 8.83 10 9 C9.67 9.66 9.34 10.32 9 11 C6.36 10.67 3.72 10.34 1 10 C1.33 9.01 1.66 8.02 2 7 C1.36729133 5.65022151 0.69937532 4.31647119 0 3 C0 2.01 0 1.02 0 0 Z " fill="#FBF5E8" transform="translate(42,82)"/>
<path d="M0 0 C1.56965564 0.0100671 3.13931765 0.01918625 4.70898438 0.02734375 C8.49365191 0.04902245 12.27800189 0.08333815 16.0625 0.125 C15.7325 1.445 15.4025 2.765 15.0625 4.125 C14.4025 3.795 13.7425 3.465 13.0625 3.125 C13.3925 2.465 13.7225 1.805 14.0625 1.125 C9.91637186 1.26313025 5.77068838 1.41178859 1.625 1.5625 C0.44099609 1.60181641 -0.74300781 1.64113281 -1.96289062 1.68164062 C-3.08759766 1.72353516 -4.21230469 1.76542969 -5.37109375 1.80859375 C-6.41322021 1.84525146 -7.45534668 1.88190918 -8.52905273 1.91967773 C-10.8874826 1.86015341 -10.8874826 1.86015341 -11.9375 3.125 C-13.64313778 3.28240605 -15.35477244 3.37593392 -17.06640625 3.44140625 C-18.61811523 3.50424805 -18.61811523 3.50424805 -20.20117188 3.56835938 C-21.8340918 3.62733398 -21.8340918 3.62733398 -23.5 3.6875 C-25.1387207 3.75227539 -25.1387207 3.75227539 -26.81054688 3.81835938 C-29.51939564 3.92482068 -32.22833992 4.02683516 -34.9375 4.125 C-28.15478746 -2.65771254 -9.11826647 -0.10351679 0 0 Z " fill="#E0AA6D" transform="translate(170.9375,9.875)"/>
<path d="M0 0 C4.62 0 9.24 0 14 0 C14 1.65 14 3.3 14 5 C10.37 5 6.74 5 3 5 C3 5.99 3 6.98 3 8 C2.01 8 1.02 8 0 8 C0 5.36 0 2.72 0 0 Z " fill="#D7D6D5" transform="translate(153,92)"/>
<path d="M0 0 C5.36979423 3.2452962 9.50711014 7.27206641 13.875 11.75 C14.56335938 12.44738281 15.25171875 13.14476562 15.9609375 13.86328125 C17.64529582 15.57103343 19.32477617 17.28329443 21 19 C20.34 19.33 19.68 19.66 19 20 C16.875 19.0625 16.875 19.0625 15 18 C15 17.34 15 16.68 15 16 C14.236875 15.731875 13.47375 15.46375 12.6875 15.1875 C10.03046867 14.0134629 8.88677005 13.13287049 7 11 C6.278125 10.34 5.55625 9.68 4.8125 9 C3 7 3 7 3 4 C2.01 3.67 1.02 3.34 0 3 C0 2.01 0 1.02 0 0 Z " fill="#F8E2BD" transform="translate(92,22)"/>
<path d="M0 0 C5.28 0 10.56 0 16 0 C16.33 1.32 16.66 2.64 17 4 C16 5 16 5 12.83984375 5.09765625 C10.90818359 5.08025391 10.90818359 5.08025391 8.9375 5.0625 C7.64714844 5.05347656 6.35679688 5.04445313 5.02734375 5.03515625 C4.02832031 5.02355469 3.02929688 5.01195313 2 5 C2 4.34 2 3.68 2 3 C1.34 3 0.68 3 0 3 C0 2.01 0 1.02 0 0 Z " fill="#FAFDEE" transform="translate(117,68)"/>
<path d="M0 0 C0.99 0 1.98 0 3 0 C3 2.31 3 4.62 3 7 C5.97 7 8.94 7 12 7 C12 7.33 12 7.66 12 8 C4.74 8 -2.52 8 -10 8 C-10 7.34 -10 6.68 -10 6 C-9.34 6 -8.68 6 -8 6 C-8 5.34 -8 4.68 -8 4 C-7.236875 3.896875 -6.47375 3.79375 -5.6875 3.6875 C-2.757381 2.93793468 -2.02209812 2.11401167 0 0 Z " fill="#F3F3F3" transform="translate(221,92)"/>
<path d="M0 0 C0.66 0 1.32 0 2 0 C3.25248502 2.50497004 3.11374406 4.20853274 3.09765625 7.0078125 C3.09282227 8.48701172 3.09282227 8.48701172 3.08789062 9.99609375 C3.07951172 11.02863281 3.07113281 12.06117187 3.0625 13.125 C3.05798828 14.16527344 3.05347656 15.20554687 3.04882812 16.27734375 C3.03701952 18.85161962 3.02055075 21.42578146 3 24 C2.34 24 1.68 24 1 24 C0.01956036 21.05868109 -0.11621202 19.17498335 -0.09765625 16.11328125 C-0.09443359 15.17548828 -0.09121094 14.23769531 -0.08789062 13.27148438 C-0.07532227 11.80678711 -0.07532227 11.80678711 -0.0625 10.3125 C-0.05798828 9.32443359 -0.05347656 8.33636719 -0.04882812 7.31835938 C-0.03704303 4.87884526 -0.02059011 2.43945311 0 0 Z " fill="#FDE6C1" transform="translate(104,62)"/>
<path d="M0 0 C1.09763672 -0.01611328 2.19527344 -0.03222656 3.32617188 -0.04882812 C4.38255859 -0.04947266 5.43894531 -0.05011719 6.52734375 -0.05078125 C7.492771 -0.05376221 8.45819824 -0.05674316 9.45288086 -0.05981445 C12.45352097 0.36828698 13.8277282 1.31654367 16.0625 3.3125 C15.7325 3.9725 15.4025 4.6325 15.0625 5.3125 C14.22235352 4.58123901 14.22235352 4.58123901 13.36523438 3.83520508 C10.70408465 2.07549443 9.37196529 1.93793985 6.21875 1.94921875 C5.30222656 1.94986328 4.38570312 1.95050781 3.44140625 1.95117188 C2.49136719 1.96728516 1.54132813 1.98339844 0.5625 2 C-0.38753906 1.99677734 -1.33757812 1.99355469 -2.31640625 1.99023438 C-8.43397599 1.92537691 -8.43397599 1.92537691 -13.9375 4.3125 C-14.2675 5.3025 -14.5975 6.2925 -14.9375 7.3125 C-17.9075 7.3125 -20.8775 7.3125 -23.9375 7.3125 C-23.9375 5.9925 -23.9375 4.6725 -23.9375 3.3125 C-23.2775 3.6425 -22.6175 3.9725 -21.9375 4.3125 C-22.2675 4.9725 -22.5975 5.6325 -22.9375 6.3125 C-20.9575 6.3125 -18.9775 6.3125 -16.9375 6.3125 C-16.669375 5.69375 -16.40125 5.075 -16.125 4.4375 C-12.77252578 -1.5616644 -5.95702848 -0.0174284 0 0 Z " fill="#F9D9B0" transform="translate(217.9375,79.6875)"/>
<path d="M0 0 C0.69287109 0.00451172 1.38574219 0.00902344 2.09960938 0.01367188 C3.79561068 0.02536844 5.49156703 0.04330076 7.1875 0.0625 C6.8575 1.0525 6.5275 2.0425 6.1875 3.0625 C3.62545456 3.39969047 1.06295682 3.73237153 -1.5 4.0625 C-2.22123047 4.15789063 -2.94246094 4.25328125 -3.68554688 4.3515625 C-7.42242871 4.82933735 -11.03541531 5.18169794 -14.8125 5.0625 C-14.125 3.125 -14.125 3.125 -12.8125 1.0625 C-8.6074659 -0.19273406 -4.34767998 -0.05408597 0 0 Z " fill="#FBE5B1" transform="translate(161.8125,22.9375)"/>
<path d="M0 0 C2 3 2 3 2 6 C-2.29 6 -6.58 6 -11 6 C-8.32417959 -0.68955101 -6.89573063 -0.49255219 0 0 Z " fill="#FBEECC" transform="translate(222,71)"/>
<path d="M0 0 C2.31 0 4.62 0 7 0 C4.23103912 1.41901397 1.43094895 2.67194169 -1.4375 3.875 C-6.36446749 6.06028345 -9.81521518 8.81521518 -13.625 12.625 C-16 15 -16 15 -19 17 C-18.8125 14.1875 -18.8125 14.1875 -18 11 C-15.625 9.3125 -15.625 9.3125 -13 8 C-12.525625 7.505 -12.05125 7.01 -11.5625 6.5 C-8.0871823 3.16369501 -4.74595947 2 0 2 C0 1.34 0 0.68 0 0 Z " fill="#DA9758" transform="translate(137,18)"/>
<path d="M0 0 C4.62 0 9.24 0 14 0 C13.67 0.66 13.34 1.32 13 2 C10.6875 2.5625 10.6875 2.5625 8 3 C6.66457061 3.32483418 5.33038449 3.6550855 4 4 C4 4.99 4 5.98 4 7 C6.97 7 9.94 7 13 7 C13 7.33 13 7.66 13 8 C8.71 8 4.42 8 0 8 C0 5.36 0 2.72 0 0 Z " fill="#B3B3B3" transform="translate(19,92)"/>
<path d="M0 0 C8.91 0 17.82 0 27 0 C28 4 28 4 27 6 C26.34 5.67 25.68 5.34 25 5 C25.33 4.01 25.66 3.02 26 2 C24.92516357 2.06900513 24.92516357 2.06900513 23.82861328 2.1394043 C20.59482481 2.33807155 17.36018252 2.51307188 14.125 2.6875 C12.43310547 2.79674805 12.43310547 2.79674805 10.70703125 2.90820312 C9.09248047 2.99038086 9.09248047 2.99038086 7.4453125 3.07421875 C5.95281982 3.16062622 5.95281982 3.16062622 4.43017578 3.2487793 C3.62821777 3.16668213 2.82625977 3.08458496 2 3 C1.34 2.01 0.68 1.02 0 0 Z " fill="#FCD99C" transform="translate(149,17)"/>
<path d="M0 0 C0 0.33 0 0.66 0 1 C-0.9075 1.2475 -1.815 1.495 -2.75 1.75 C-8.22687037 3.3116331 -13.60485176 5.18029256 -19 7 C-20.09183594 7.309375 -21.18367188 7.61875 -22.30859375 7.9375 C-23.19675781 8.288125 -24.08492188 8.63875 -25 9 C-25.33 9.99 -25.66 10.98 -26 12 C-26.66 11.67 -27.32 11.34 -28 11 C-26.1875 9 -26.1875 9 -24 7 C-23.01 7 -22.02 7 -21 7 C-20.67 5.68 -20.34 4.36 -20 3 C-6.3667426 -0.44419134 -6.3667426 -0.44419134 0 0 Z " fill="#F7DAB6" transform="translate(136,0)"/>
<path d="M0 0 C3.96 0 7.92 0 12 0 C11.67 0.66 11.34 1.32 11 2 C8.36 1.67 5.72 1.34 3 1 C3 1.66 3 2.32 3 3 C5.31 3 7.62 3 10 3 C10.33 3.66 10.66 4.32 11 5 C8.36 5.33 5.72 5.66 3 6 C5.97 6.33 8.94 6.66 12 7 C12.33 6.01 12.66 5.02 13 4 C13 5.32 13 6.64 13 8 C8.71 8 4.42 8 0 8 C0 5.36 0 2.72 0 0 Z " fill="#B2B2B4" transform="translate(124,92)"/>
<path d="M0 0 C5.10880829 -0.61658031 5.10880829 -0.61658031 8 0 C10.44303403 2.03926899 12.2277425 4.36846614 14 7 C11.69 6.34 9.38 5.68 7 5 C7 5.99 7 6.98 7 8 C3.64379729 6.61122646 1.92701272 5.08322035 0 2 C0 1.34 0 0.68 0 0 Z " fill="#D3965E" transform="translate(72,0)"/>
<path d="M0 0 C0 1.98 0 3.96 0 6 C-3.63 6 -7.26 6 -11 6 C-8.23221267 -0.91946833 -6.96860149 -0.12904818 0 0 Z " fill="#F9FAF8" transform="translate(193,94)"/>
<path d="M0 0 C1.98 0 3.96 0 6 0 C6.33 1.32 6.66 2.64 7 4 C0.65811536 6.28487759 -5.24579268 6.23299776 -11.9375 6.125 C-13.00291016 6.11597656 -14.06832031 6.10695313 -15.16601562 6.09765625 C-17.77758034 6.07423414 -20.38866937 6.04143452 -23 6 C-23 5.67 -23 5.34 -23 5 C-13.97582223 4.30962574 -5.05638678 3.84821698 4 4 C4 3.34 4 2.68 4 2 C2.35 2 0.7 2 -1 2 C-0.67 1.34 -0.34 0.68 0 0 Z " fill="#EB842F" transform="translate(184,0)"/>
<path d="M0 0 C0 0.33 0 0.66 0 1 C-4.455 1.495 -4.455 1.495 -9 2 C-9 2.66 -9 3.32 -9 4 C-6.36 4 -3.72 4 -1 4 C-1 4.33 -1 4.66 -1 5 C-4.96 5 -8.92 5 -13 5 C-13 4.34 -13 3.68 -13 3 C-17.95 4.485 -17.95 4.485 -23 6 C-23 5.34 -23 4.68 -23 4 C-21.35 3.67 -19.7 3.34 -18 3 C-18 2.34 -18 1.68 -18 1 C-11.97968656 0.39034801 -6.05329744 -0.13451772 0 0 Z " fill="#E08B40" transform="translate(150,13)"/>
<path d="M0 0 C-1.40742064 3.51855159 -2.66466523 4.38612834 -6 6 C-6.33 6.99 -6.66 7.98 -7 9 C-9.31 9.33 -11.62 9.66 -14 10 C-13.67 8.68 -13.34 7.36 -13 6 C-11.35 5.67 -9.7 5.34 -8 5 C-7.67 4.01 -7.34 3.02 -7 2 C-4 0 -4 0 0 0 Z " fill="#F5831C" transform="translate(123,8)"/>
<path d="M0 0 C0.99 0 1.98 0 3 0 C3.20086443 3.71599191 3.1519437 4.77208445 1 8 C-3.11192754 9.77560507 -6.54533388 10.21212696 -11 10 C-10.443125 9.79375 -9.88625 9.5875 -9.3125 9.375 C-7.02890674 8.01718779 -6.0008439 6.92057214 -4.375 4.875 C-3.199375 3.451875 -3.199375 3.451875 -2 2 C-1.34 2 -0.68 2 0 2 C0 1.34 0 0.68 0 0 Z " fill="#FEF9E4" transform="translate(199,0)"/>
<path d="M0 0 C0.33 0.99 0.66 1.98 1 3 C-4.68632001 6.70591201 -10.11124673 6.44922209 -16.75 6.375 C-17.80316406 6.38660156 -18.85632813 6.39820312 -19.94140625 6.41015625 C-20.94558594 6.40628906 -21.94976562 6.40242188 -22.984375 6.3984375 C-24.35674316 6.39336182 -24.35674316 6.39336182 -25.75683594 6.38818359 C-26.49708008 6.26008301 -27.23732422 6.13198242 -28 6 C-28.66 5.01 -29.32 4.02 -30 3 C-28.88625 3.2475 -28.88625 3.2475 -27.75 3.5 C-18.39521059 4.74730526 -9.91665639 4.22873299 -1 1 C-0.67 0.67 -0.34 0.34 0 0 Z " fill="#FCEBD0" transform="translate(184,82)"/>
<path d="M0 0 C5.625 -0.25 5.625 -0.25 9 2 C9.375 4.5 9.375 4.5 9 7 C5.5647952 9.29013653 4.014669 9.17842973 0 9 C0.495 8.5875 0.99 8.175 1.5 7.75 C3.43386092 5.87797662 3.43386092 5.87797662 3 2 C2.01 2 1.02 2 0 2 C0 1.34 0 0.68 0 0 Z " fill="#CC8D4C" transform="translate(134,66)"/>
<path d="M0 0 C0.66 0.33 1.32 0.66 2 1 C0.7934375 2.11375 0.7934375 2.11375 -0.4375 3.25 C-3.03154151 6.03384943 -3.17596616 6.6008604 -4 10 C-5.50587751 12.25881627 -7.10427987 14.01400748 -9 16 C-9.99 16 -10.98 16 -12 16 C-10.70738073 10.94703375 -8.83736676 8.48040241 -5 5 C-3.6078125 3.6078125 -3.6078125 3.6078125 -2.1875 2.1875 C-1.1046875 1.1046875 -1.1046875 1.1046875 0 0 Z " fill="#F6D099" transform="translate(138,29)"/>
<path d="M0 0 C2.62386487 3.06117568 3 3.73173127 3 8 C0.03 8 -2.94 8 -6 8 C-6 6.02 -6 4.04 -6 2 C-4.02 1.34 -2.04 0.68 0 0 Z " fill="#ECEDEA" transform="translate(202,92)"/>
<path d="M0 0 C0.33 0 0.66 0 1 0 C1 5.94 1 11.88 1 18 C-0.98 18.99 -0.98 18.99 -3 20 C-3.48452463 13.05514697 -1.69287491 6.7009632 0 0 Z " fill="#DC9353" transform="translate(184,64)"/>
<path d="M0 0 C0.66 0 1.32 0 2 0 C2 2.64 2 5.28 2 8 C1.34 7.67 0.68 7.34 0 7 C-1.54023996 6.93049459 -3.08334988 6.91547643 -4.625 6.9375 C-5.44226563 6.94652344 -6.25953125 6.95554687 -7.1015625 6.96484375 C-7.72804687 6.97644531 -8.35453125 6.98804687 -9 7 C-9.33 6.34 -9.66 5.68 -10 5 C-7.36 4.67 -4.72 4.34 -2 4 C-4.31 3.67 -6.62 3.34 -9 3 C-9 2.34 -9 1.68 -9 1 C-7.700625 1.020625 -6.40125 1.04125 -5.0625 1.0625 C-3.70834367 1.08399454 -2.35243917 1.07148199 -1 1 C-0.67 0.67 -0.34 0.34 0 0 Z " fill="#D7D7D7" transform="translate(136,92)"/>
<path d="M0 0 C0 2.64 0 5.28 0 8 C-0.66 7.67 -1.32 7.34 -2 7 C-2 5.35 -2 3.7 -2 2 C-4.57211322 0.71394339 -6.56906966 0.78956059 -9.4453125 0.68359375 C-10.52167969 0.64169922 -11.59804687 0.59980469 -12.70703125 0.55664062 C-14.39892578 0.49766602 -14.39892578 0.49766602 -16.125 0.4375 C-17.26066406 0.39431641 -18.39632812 0.35113281 -19.56640625 0.30664062 C-22.37747768 0.2003396 -25.18863945 0.09830595 -28 0 C-28 -0.33 -28 -0.66 -28 -1 C-7.14160839 -3.00699301 -7.14160839 -3.00699301 0 0 Z " fill="#D5A676" transform="translate(144,66)"/>
<path d="M0 0 C-0.33 0.99 -0.66 1.98 -1 3 C-9.415 3.495 -9.415 3.495 -18 4 C-18 3.34 -18 2.68 -18 2 C-11.84629161 0.176679 -6.40353322 -0.2361959 0 0 Z " fill="#C29B6D" transform="translate(168,26)"/>
<path d="M0 0 C6.6 0 13.2 0 20 0 C20 0.33 20 0.66 20 1 C14.39 1 8.78 1 3 1 C3 1.99 3 2.98 3 4 C3.66 4 4.32 4 5 4 C5 5.32 5 6.64 5 8 C3.35 8.33 1.7 8.66 0 9 C0 6.03 0 3.06 0 0 Z " fill="#C98A50" transform="translate(108,64)"/>
<path d="M0 0 C4.29 0 8.58 0 13 0 C13 0.33 13 0.66 13 1 C9.7 1 6.4 1 3 1 C3 1.66 3 2.32 3 3 C4.65 3 6.3 3 8 3 C8 3.33 8 3.66 8 4 C6.35 4 4.7 4 3 4 C3 4.99 3 5.98 3 7 C6.3 7 9.6 7 13 7 C13 7.33 13 7.66 13 8 C8.71 8 4.42 8 0 8 C0 5.36 0 2.72 0 0 Z " fill="#A6A6A6" transform="translate(106,92)"/>
<path d="M0 0 C1.6875 1.5625 1.6875 1.5625 3 3 C2.071875 3.12375 2.071875 3.12375 1.125 3.25 C-1.18437567 3.81258459 -1.18437567 3.81258459 -2.25 6.0625 C-2.4975 6.701875 -2.745 7.34125 -3 8 C-4.9375 7.625 -4.9375 7.625 -7 7 C-7.33 6.34 -7.66 5.68 -8 5 C-7.34 4.67 -6.68 4.34 -6 4 C-6 2.68 -6 1.36 -6 0 C-3 -1 -3 -1 0 0 Z " fill="#F5F5F4" transform="translate(183,89)"/>
<path d="M0 0 C5.61 0 11.22 0 17 0 C17 1.32 17 2.64 17 4 C9.74 4 2.48 4 -5 4 C-5 3.67 -5 3.34 -5 3 C2.92 2.505 2.92 2.505 11 2 C7.37 1.67 3.74 1.34 0 1 C0 0.67 0 0.34 0 0 Z " fill="#E38637" transform="translate(159,12)"/>
<path d="M0 0 C4.62 0 9.24 0 14 0 C13.67 1.32 13.34 2.64 13 4 C9.66666667 4 6.33333333 4 3 4 C3 3.01 3 2.02 3 1 C2.34 1 1.68 1 1 1 C1 2.65 1 4.3 1 6 C0.67 6 0.34 6 0 6 C0 4.02 0 2.04 0 0 Z " fill="#CACACA" transform="translate(0,92)"/>
<path d="M0 0 C0.66 0.33 1.32 0.66 2 1 C2 2.98 2 4.96 2 7 C0.02 7.99 0.02 7.99 -2 9 C-2 10.65 -2 12.3 -2 14 C-2.66 14 -3.32 14 -4 14 C-4 13.34 -4 12.68 -4 12 C-4.9590625 11.8453125 -4.9590625 11.8453125 -5.9375 11.6875 C-6.618125 11.460625 -7.29875 11.23375 -8 11 C-8.33 10.01 -8.66 9.02 -9 8 C-5.62902617 6.50178941 -3.79557881 6 0 6 C0 4.02 0 2.04 0 0 Z " fill="#F7DCAD" transform="translate(144,68)"/>
<path d="M0 0 C0 1.65 0 3.3 0 5 C-1.65 5.33 -3.3 5.66 -5 6 C-5.33 7.32 -5.66 8.64 -6 10 C-6.99 10 -7.98 10 -9 10 C-8.2236068 13.0745356 -8.2236068 13.0745356 -6 15 C-7.32 15.99 -8.64 16.98 -10 18 C-10 16.35 -10 14.7 -10 13 C-10.66 12.67 -11.32 12.34 -12 12 C-11.34 11.01 -10.68 10.02 -10 9 C-9.34 9 -8.68 9 -8 9 C-7.773125 8.443125 -7.54625 7.88625 -7.3125 7.3125 C-5.959128 4.92798742 -3.0264068 0 0 0 Z " fill="#E0AA74" transform="translate(67,67)"/>
<path d="M0 0 C4.95 0 9.9 0 15 0 C15 0.66 15 1.32 15 2 C13.02 2 11.04 2 9 2 C9 3.65 9 5.3 9 7 C8.01 7 7.02 7 6 7 C6 5.35 6 3.7 6 2 C4.02 2 2.04 2 0 2 C0 1.34 0 0.68 0 0 Z " fill="#B6B4B3" transform="translate(79,92)"/>
<path d="M0 0 C4.62 0 9.24 0 14 0 C14 0.66 14 1.32 14 2 C12.35 2 10.7 2 9 2 C9 3.98 9 5.96 9 8 C8.01 8 7.02 8 6 8 C6 6.02 6 4.04 6 2 C4.35 2 2.7 2 1 2 C0.67 1.34 0.34 0.68 0 0 Z " fill="#B0B3B4" transform="translate(232,92)"/>
<path d="M0 0 C-0.35052635 3.15473719 -0.86519076 4.8233534 -2.8125 7.375 C-5 9 -5 9 -7.25 8.75 C-8.11625 8.37875 -8.11625 8.37875 -9 8 C-9 7.01 -9 6.02 -9 5 C-8.01 5 -7.02 5 -6 5 C-5.87625 4.360625 -5.7525 3.72125 -5.625 3.0625 C-5.41875 2.381875 -5.2125 1.70125 -5 1 C-3 0 -3 0 0 0 Z " fill="#D78D49" transform="translate(67,72)"/>
<path d="M0 0 C1.32 0 2.64 0 4 0 C4.33 0.99 4.66 1.98 5 3 C5.598125 3.12375 6.19625 3.2475 6.8125 3.375 C10.07796913 4.30799118 11.12194196 6.24551487 13 9 C14.25 11.8125 14.25 11.8125 15 14 C10.94772191 12.38873705 8.23778153 9.49978002 5.25 6.4375 C4.74339844 5.93025391 4.23679687 5.42300781 3.71484375 4.90039062 C0 1.14048812 0 1.14048812 0 0 Z " fill="#FAE6C2" transform="translate(80,0)"/>
<path d="M0 0 C0.33 0 0.66 0 1 0 C1 2.31 1 4.62 1 7 C5.29 7 9.58 7 14 7 C14 7.99 14 8.98 14 10 C9.71 10 5.42 10 1 10 C-0.60725635 6.78548731 -0.05748185 3.56387464 0 0 Z " fill="#CFA774" transform="translate(114,67)"/>
<path d="M0 0 C0 0.66 0 1.32 0 2 C-0.5878125 2.24492187 -1.175625 2.48984375 -1.78125 2.7421875 C-5.06736415 4.60509024 -6.91594015 7.37899628 -9.21875 10.3203125 C-11 12 -11 12 -15 12 C-14.34 10.68 -13.68 9.36 -13 8 C-12.34 8 -11.68 8 -11 8 C-11 7.34 -11 6.68 -11 6 C-9.04109119 4.60699818 -7.0360882 3.27754554 -5 2 C-2 0 -2 0 0 0 Z " fill="#E0A060" transform="translate(127,17)"/>
<path d="M0 0 C3.3 0 6.6 0 10 0 C10 1.32 10 2.64 10 4 C9.34 4 8.68 4 8 4 C7.67 4.99 7.34 5.98 7 7 C5.82780457 6.21654285 4.66236332 5.42297164 3.5 4.625 C2.8503125 4.18414063 2.200625 3.74328125 1.53125 3.2890625 C1.0259375 2.86367188 0.520625 2.43828125 0 2 C0 1.34 0 0.68 0 0 Z " fill="#F48216" transform="translate(97,20)"/>
<path d="M0 0 C0.60328125 0.11859375 1.2065625 0.2371875 1.828125 0.359375 C1.828125 0.689375 1.828125 1.019375 1.828125 1.359375 C0.178125 1.359375 -1.471875 1.359375 -3.171875 1.359375 C-3.171875 2.019375 -3.171875 2.679375 -3.171875 3.359375 C-4.161875 3.854375 -4.161875 3.854375 -5.171875 4.359375 C-5.63838707 6.48514282 -5.63838707 6.48514282 -5.796875 8.921875 C-5.87164062 9.74816406 -5.94640625 10.57445313 -6.0234375 11.42578125 C-6.07242188 12.06386719 -6.12140625 12.70195313 -6.171875 13.359375 C-6.501875 13.359375 -6.831875 13.359375 -7.171875 13.359375 C-7.501875 11.049375 -7.831875 8.739375 -8.171875 6.359375 C-9.161875 6.029375 -10.151875 5.699375 -11.171875 5.359375 C-11.171875 3.359375 -11.171875 3.359375 -9.734375 1.171875 C-6.25216006 -1.29115508 -4.07674354 -0.65753928 0 0 Z " fill="#F7F3E6" transform="translate(112.171875,86.640625)"/>
<path d="M0 0 C2.125 0.375 2.125 0.375 4 1 C3.4225 1.2475 2.845 1.495 2.25 1.75 C-0.3002997 3.16683317 -2.01785701 4.87627537 -4 7 C-4 6.34 -4 5.68 -4 5 C-5.32 5 -6.64 5 -8 5 C-8.33 5.99 -8.66 6.98 -9 8 C-9.33 7.01 -9.66 6.02 -10 5 C-9.16855469 4.70996094 -9.16855469 4.70996094 -8.3203125 4.4140625 C-7.59585938 4.15367188 -6.87140625 3.89328125 -6.125 3.625 C-5.04605469 3.24214844 -5.04605469 3.24214844 -3.9453125 2.8515625 C-1.81842006 2.06122217 -1.81842006 2.06122217 0 0 Z M-12 8 C-11.01 8.495 -11.01 8.495 -10 9 C-10.99 9.495 -10.99 9.495 -12 10 C-12 9.34 -12 8.68 -12 8 Z M-15 10 C-14.01 10.33 -13.02 10.66 -12 11 C-13.485 13.475 -13.485 13.475 -15 16 C-15.66 15.67 -16.32 15.34 -17 15 C-16.34 13.35 -15.68 11.7 -15 10 Z " fill="#FDF9E6" transform="translate(155,32)"/>
<path d="M0 0 C4.62 0 9.24 0 14 0 C13.67 0.66 13.34 1.32 13 2 C11.35 2 9.7 2 8 2 C8 3.98 8 5.96 8 8 C7.01 8 6.02 8 5 8 C4.9175 7.05125 4.835 6.1025 4.75 5.125 C4.5025 4.09375 4.255 3.0625 4 2 C2.68 1.34 1.36 0.68 0 0 Z " fill="#AFAFAD" transform="translate(188,92)"/>
<path d="M0 0 C0.33 0.66 0.66 1.32 1 2 C0.67 2.66 0.34 3.32 0 4 C1.65 3.34 3.3 2.68 5 2 C5 2.66 5 3.32 5 4 C5.66 4 6.32 4 7 4 C7.33 3.34 7.66 2.68 8 2 C9.64363134 1.27840576 11.31050386 0.60648579 13 0 C12.67 1.32 12.34 2.64 12 4 C11.34 4 10.68 4 10 4 C9.67 4.99 9.34 5.98 9 7 C6.9375 7.6875 6.9375 7.6875 5 8 C4.67 7.34 4.34 6.68 4 6 C1.47266765 5.34444881 1.47266765 5.34444881 -1 5 C-0.67 3.35 -0.34 1.7 0 0 Z " fill="#E0AB6F" transform="translate(126,41)"/>
<path d="M0 0 C0.99 0.495 0.99 0.495 2 1 C2 2.32 2 3.64 2 5 C3.65 5 5.3 5 7 5 C7 5.66 7 6.32 7 7 C7.66 7.33 8.32 7.66 9 8 C9.35919668 9.66128463 9.68911632 11.32900023 10 13 C10.99083967 15.23408113 10.99083967 15.23408113 12 17 C7.2 13.67692308 7.2 13.67692308 6.1875 10.25 C6.125625 9.5075 6.06375 8.765 6 8 C5.38125 7.896875 4.7625 7.79375 4.125 7.6875 C2 7 2 7 0 4 C0 2.68 0 1.36 0 0 Z " fill="#D38B46" transform="translate(88,11)"/>
<path d="M0 0 C1.32 0 2.64 0 4 0 C4 2.31 4 4.62 4 7 C6.64 7 9.28 7 12 7 C12 7.33 12 7.66 12 8 C8.04 8 4.08 8 0 8 C0 5.36 0 2.72 0 0 Z " fill="#B3B5B4" transform="translate(56,92)"/>
<path d="M0 0 C0.639375 0.474375 1.27875 0.94875 1.9375 1.4375 C5.92181519 3.47031387 9.58494074 3.7210529 14 4 C13.67 3.01 13.34 2.02 13 1 C13.99 1.33 14.98 1.66 16 2 C15.67 2.99 15.34 3.98 15 5 C12.17283905 5.94238698 10.36823877 6.13465647 7.4375 6.125 C6.25994141 6.12886719 6.25994141 6.12886719 5.05859375 6.1328125 C3 6 3 6 1 5 C0.375 2.4375 0.375 2.4375 0 0 Z " fill="#F7E9CA" transform="translate(229,82)"/>
<path d="M0 0 C1.1725131 0.95117134 2.33787015 1.91117009 3.5 2.875 C4.47453125 3.67550781 4.47453125 3.67550781 5.46875 4.4921875 C6.22671875 5.23855469 6.22671875 5.23855469 7 6 C7 6.66 7 7.32 7 8 C4.03 8 1.06 8 -2 8 C-2 7.01 -2 6.02 -2 5 C-1.34 4.67 -0.68 4.34 0 4 C0 2.68 0 1.36 0 0 Z " fill="#C99C65" transform="translate(236,78)"/>
<path d="M0 0 C0.66 0.33 1.32 0.66 2 1 C1.67 1.99 1.34 2.98 1 4 C0.34 4 -0.32 4 -1 4 C-1 4.66 -1 5.32 -1 6 C-1.99 6 -2.98 6 -4 6 C-4.66 7.98 -5.32 9.96 -6 12 C-6.66 12 -7.32 12 -8 12 C-8.12375 12.639375 -8.2475 13.27875 -8.375 13.9375 C-8.58125 14.618125 -8.7875 15.29875 -9 16 C-9.66 16.33 -10.32 16.66 -11 17 C-10.45276317 13.62537285 -9.9451 11.91765 -8 9 C-7.34 9 -6.68 9 -6 9 C-5.67 7.68 -5.34 6.36 -5 5 C-4.34 5 -3.68 5 -3 5 C-2.690625 4.360625 -2.38125 3.72125 -2.0625 3.0625 C-1 1 -1 1 0 0 Z " fill="#FCE7C8" transform="translate(144,36)"/>
<path d="M0 0 C1.32 0.33 2.64 0.66 4 1 C4 1.66 4 2.32 4 3 C5.98 3.66 7.96 4.32 10 5 C10 5.66 10 6.32 10 7 C4.60550707 7.27429625 1.48074195 7.36055646 -3 4 C-0.50907189 2.75453595 0.41080733 3.2232422 3 4 C3 3.34 3 2.68 3 2 C2.01 2 1.02 2 0 2 C0 1.34 0 0.68 0 0 Z " fill="#CE9D68" transform="translate(136,79)"/>
<path d="M0 0 C0.66 0.33 1.32 0.66 2 1 C1.34 1.61875 0.68 2.2375 0 2.875 C-2.2284549 4.75637427 -2.2284549 4.75637427 -2 7 C1.3 7 4.6 7 8 7 C8 7.66 8 8.32 8 9 C2.94997778 10.03590199 -1.87416389 10.10251672 -7 10 C-6.34 9.67 -5.68 9.34 -5 9 C-5 7.35 -5 5.7 -5 4 C-4.360625 3.896875 -3.72125 3.79375 -3.0625 3.6875 C-2.381875 3.460625 -1.70125 3.23375 -1 3 C-0.67 2.01 -0.34 1.02 0 0 Z " fill="#FCEFD9" transform="translate(196,79)"/>
<path d="M0 0 C0.66 0 1.32 0 2 0 C2 3.96 2 7.92 2 12 C1.01 12.33 0.02 12.66 -1 13 C-1.02686553 11.02090602 -1.04633375 9.04171029 -1.0625 7.0625 C-1.07410156 5.96035156 -1.08570312 4.85820313 -1.09765625 3.72265625 C-1 1 -1 1 0 0 Z " fill="#E88439" transform="translate(89,69)"/>
<path d="M0 0 C-1.49097658 3.7952131 -3.75700849 5.61042731 -7 8 C-7.33 7.01 -7.66 6.02 -8 5 C-7.34 4.67 -6.68 4.34 -6 4 C-6.99 3.34 -7.98 2.68 -9 2 C-8.34 2 -7.68 2 -7 2 C-7 1.34 -7 0.68 -7 0 C-3.98968256 -0.93423645 -3.13349732 -1.04449911 0 0 Z " fill="#D6924D" transform="translate(139,27)"/>
<path d="M0 0 C2.97 0 5.94 0 9 0 C9 1.32 9 2.64 9 4 C6.03 4 3.06 4 0 4 C0 2.68 0 1.36 0 0 Z " fill="#F6F5F4" transform="translate(253,94)"/>
<path d="M0 0 C2.31 0 4.62 0 7 0 C7 1.65 7 3.3 7 5 C3.37 5 -0.26 5 -4 5 C-4 5.66 -4 6.32 -4 7 C-4.66 7 -5.32 7 -6 7 C-6 5.02 -6 3.04 -6 1 C-5.34 1 -4.68 1 -4 1 C-4 1.99 -4 2.98 -4 4 C-1.03 4 1.94 4 5 4 C5 3.01 5 2.02 5 1 C3.35 1 1.7 1 0 1 C0 0.67 0 0.34 0 0 Z " fill="#9A9B9A" transform="translate(160,92)"/>
<path d="M0 0 C2.95839355 -0.02689449 5.91654427 -0.04678741 8.875 -0.0625 C9.71675781 -0.07087891 10.55851562 -0.07925781 11.42578125 -0.08789062 C12.23144531 -0.09111328 13.03710938 -0.09433594 13.8671875 -0.09765625 C14.98262939 -0.10551147 14.98262939 -0.10551147 16.12060547 -0.11352539 C18 0 18 0 20 1 C20 2.65 20 4.3 20 6 C19.01 5.67 18.02 5.34 17 5 C17 3.68 17 2.36 17 1 C11.72 1 6.44 1 1 1 C0.67 1.99 0.34 2.98 0 4 C0 2.68 0 1.36 0 0 Z " fill="#FBE0B4" transform="translate(116,67)"/>
<path d="M0 0 C0.66 0.33 1.32 0.66 2 1 C1.67 1.66 1.34 2.32 1 3 C1.66 3.33 2.32 3.66 3 4 C2.34 4 1.68 4 1 4 C1 4.66 1 5.32 1 6 C0.360625 6.12375 -0.27875 6.2475 -0.9375 6.375 C-1.9584375 6.684375 -1.9584375 6.684375 -3 7 C-3.33 7.66 -3.66 8.32 -4 9 C-4 8.01 -4 7.02 -4 6 C-4.66 5.67 -5.32 5.34 -6 5 C-4.02 3.35 -2.04 1.7 0 0 Z " fill="#F5D9A4" transform="translate(131,23)"/>
<path d="M0 0 C0.99 0 1.98 0 3 0 C3 2.31 3 4.62 3 7 C5.97 7 8.94 7 12 7 C12 7.33 12 7.66 12 8 C8.04 8 4.08 8 0 8 C0 5.36 0 2.72 0 0 Z " fill="#ABAAAB" transform="translate(221,92)"/>
<path d="M0 0 C1.70884005 1.62339805 3.37446717 3.29319053 5 5 C5 5.66 5 6.32 5 7 C-0.61 7 -6.22 7 -12 7 C-11.67 5.68 -11.34 4.36 -11 3 C-10.67 3.66 -10.34 4.32 -10 5 C-7.1840151 5.46898963 -7.1840151 5.46898963 -3.9375 5.625 C-2.28041016 5.73714844 -2.28041016 5.73714844 -0.58984375 5.8515625 C0.26480469 5.90054688 1.11945313 5.94953125 2 6 C1.34 4.02 0.68 2.04 0 0 Z " fill="#E9B67C" transform="translate(222,71)"/>
<path d="M0 0 C1.65 0 3.3 0 5 0 C4.34 1.32 3.68 2.64 3 4 C6.96 4 10.92 4 15 4 C15.33 2.68 15.66 1.36 16 0 C16.5625 1.9375 16.5625 1.9375 17 4 C16 5 16 5 12.83984375 5.09765625 C10.90818359 5.08025391 10.90818359 5.08025391 8.9375 5.0625 C7.64714844 5.05347656 6.35679688 5.04445313 5.02734375 5.03515625 C4.02832031 5.02355469 3.02929688 5.01195313 2 5 C2 4.34 2 3.68 2 3 C1.34 3 0.68 3 0 3 C0 2.01 0 1.02 0 0 Z " fill="#FEF6D3" transform="translate(117,68)"/>
<path d="M0 0 C0.99 0.33 1.98 0.66 3 1 C-0.61328125 5.6875 -0.61328125 5.6875 -2 7 C-2.99 7 -3.98 7 -5 7 C-5.33 7.99 -5.66 8.98 -6 10 C-6.66 9.67 -7.32 9.34 -8 9 C-8 8.34 -8 7.68 -8 7 C-7.34 7 -6.68 7 -6 7 C-5.731875 6.360625 -5.46375 5.72125 -5.1875 5.0625 C-4 3 -4 3 -1 2 C-0.67 1.34 -0.34 0.68 0 0 Z " fill="#C88B50" transform="translate(139,36)"/>
<path d="M0 0 C1.2964351 0.76278623 2.58699148 1.53556959 3.875 2.3125 C4.59429687 2.74175781 5.31359375 3.17101562 6.0546875 3.61328125 C8 5 8 5 10 8 C10.99 8.33 11.98 8.66 13 9 C13.33 10.65 13.66 12.3 14 14 C12.33984619 12.57701102 10.68024699 11.15344741 9.0234375 9.7265625 C7.68471179 8.58425215 6.3357983 7.45376463 4.9765625 6.3359375 C4.34492187 5.81257812 3.71328125 5.28921875 3.0625 4.75 C2.47597656 4.27046875 1.88945313 3.7909375 1.28515625 3.296875 C0 2 0 2 0 0 Z " fill="#DCAF7D" transform="translate(81,10)"/>
<path d="M0 0 C0 3.10551666 -0.5393715 4.35261084 -2 7 C-1.34 7 -0.68 7 0 7 C0 7.99 0 8.98 0 10 C-1.98 10 -3.96 10 -6 10 C-4.79157144 5.56909529 -3.48331435 3.01887244 0 0 Z " fill="#CEA268" transform="translate(201,76)"/>
<path d="M0 0 C0.66 0 1.32 0 2 0 C2.2396943 5.63281599 1.38529821 10.54538831 0 16 C-0.33 16 -0.66 16 -1 16 C-1.02685095 13.52076199 -1.04676547 11.0418116 -1.0625 8.5625 C-1.07506836 7.50192383 -1.07506836 7.50192383 -1.08789062 6.41992188 C-1.09653588 4.61306441 -1.05220011 2.80612397 -1 1 C-0.67 0.67 -0.34 0.34 0 0 Z " fill="#D58B3F" transform="translate(181,67)"/>
<path d="M0 0 C-1.0725 0.5775 -2.145 1.155 -3.25 1.75 C-6.3026529 3.48375824 -8.64597393 5.3634908 -11 8 C-11.33 6.68 -11.66 5.36 -12 4 C-11.34 4 -10.68 4 -10 4 C-10 3.34 -10 2.68 -10 2 C-8.71211992 1.46987262 -7.41953322 0.9511671 -6.125 0.4375 C-5.40570313 0.14746094 -4.68640625 -0.14257812 -3.9453125 -0.44140625 C-2 -1 -2 -1 0 0 Z " fill="#DE9046" transform="translate(120,17)"/>
<path d="M0 0 C4.455 0.99 4.455 0.99 9 2 C8.01 3.32 7.02 4.64 6 6 C4.125 5.8125 4.125 5.8125 2 5 C0.75 2.4375 0.75 2.4375 0 0 Z " fill="#FAE8C0" transform="translate(48,75)"/>
<path d="M0 0 C2.64 0 5.28 0 8 0 C6.515 1.485 6.515 1.485 5 3 C5.66 4.65 6.32 6.3 7 8 C3.64379729 6.61122646 1.92701272 5.08322035 0 2 C0 1.34 0 0.68 0 0 Z " fill="#DDA97A" transform="translate(72,0)"/>
<path d="M0 0 C2.62113708 0 4.50935112 0.31292445 7 1 C6.34 1 5.68 1 5 1 C5.66 2.32 6.32 3.64 7 5 C6.34 5.66 5.68 6.32 5 7 C5 6.34 5 5.68 5 5 C3.35 5 1.7 5 0 5 C0 3.35 0 1.7 0 0 Z " fill="#E4E5E4" transform="translate(167,92)"/>
<path d="M0 0 C0.99 0.33 1.98 0.66 3 1 C4.1875 3.5625 4.1875 3.5625 5 6 C0.43672206 9.53286034 -3.49633208 9.32374517 -9 9 C-9 8.67 -9 8.34 -9 8 C-3.555 7.01 -3.555 7.01 2 6 C2 5.34 2 4.68 2 4 C1.34 3.67 0.68 3.34 0 3 C0 2.01 0 1.02 0 0 Z " fill="#FDF5E0" transform="translate(242,80)"/>
<path d="M0 0 C0.47050781 0.40992187 0.94101562 0.81984375 1.42578125 1.2421875 C2.04839844 1.78101562 2.67101563 2.31984375 3.3125 2.875 C4.23482422 3.67550781 4.23482422 3.67550781 5.17578125 4.4921875 C7.13498212 6.1640447 7.13498212 6.1640447 10 8 C9.67 8.66 9.34 9.32 9 10 C7.02 9.01 5.04 8.02 3 7 C3 6.34 3 5.68 3 5 C2.01 4.67 1.02 4.34 0 4 C0 2.68 0 1.36 0 0 Z " fill="#F1CCA0" transform="translate(37,74)"/>
<path d="M0 0 C0.66 0.33 1.32 0.66 2 1 C1.0625 3.5 1.0625 3.5 -1 6 C-4.03816258 6.45787911 -6.94925785 6.28780586 -10 6 C-10 4.68 -10 3.36 -10 2 C-9.34 2.33 -8.68 2.66 -8 3 C-8.33 3.66 -8.66 4.32 -9 5 C-7.02 5 -5.04 5 -3 5 C-2.690625 4.360625 -2.38125 3.72125 -2.0625 3.0625 C-1 1 -1 1 0 0 Z " fill="#EBC99F" transform="translate(204,81)"/>
<path d="M0 0 C0.66 0.33 1.32 0.66 2 1 C1.505 1.433125 1.01 1.86625 0.5 2.3125 C-1.33218192 3.99740483 -1.33218192 3.99740483 -1 7 C-1.99 7.66 -2.98 8.32 -4 9 C-4 8.34 -4 7.68 -4 7 C-5.32 6.67 -6.64 6.34 -8 6 C-7.05125 5.38125 -6.1025 4.7625 -5.125 4.125 C-2.05554891 2.18029031 -2.05554891 2.18029031 0 0 Z " fill="#F4D29D" transform="translate(123,13)"/>
<path d="M0 0 C5.625 -0.25 5.625 -0.25 9 2 C8.67 2.66 8.34 3.32 8 4 C7.34 3.67 6.68 3.34 6 3 C6 3.66 6 4.32 6 5 C5.34 5 4.68 5 4 5 C4 4.34 4 3.68 4 3 C2.68 2.67 1.36 2.34 0 2 C0 1.34 0 0.68 0 0 Z " fill="#F6EBCD" transform="translate(142,81)"/>
<path d="M0 0 C0.99 0.33 1.98 0.66 3 1 C3.33 2.65 3.66 4.3 4 6 C2.35 5.67 0.7 5.34 -1 5 C-1.33 3.68 -1.66 2.36 -2 1 C-1.34 0.67 -0.68 0.34 0 0 Z " fill="#DB873C" transform="translate(41,72)"/>
<path d="M0 0 C1.98 1.65 3.96 3.3 6 5 C3 6 3 6 1 6 C0.67 6.66 0.34 7.32 0 8 C-0.66 7.01 -1.32 6.02 -2 5 C-1.34 5 -0.68 5 0 5 C0 3.35 0 1.7 0 0 Z " fill="#D4955D" transform="translate(38,67)"/>
<path d="M0 0 C2.8125 0.125 2.8125 0.125 6 1 C7.9375 3.9375 7.9375 3.9375 9 7 C8.67 7.66 8.34 8.32 8 9 C6.66368764 7.6905332 5.33102075 6.37734515 4 5.0625 C3.2575 4.33160156 2.515 3.60070313 1.75 2.84765625 C0 1 0 1 0 0 Z " fill="#D49458" transform="translate(109,37)"/>
<path d="M0 0 C2.4375 1.1875 2.4375 1.1875 5 3 C5.625 5.5 5.625 5.5 6 8 C7.4579186 9.79385992 7.4579186 9.79385992 9 11 C6.5625 10.3125 6.5625 10.3125 4 9 C3.1875 6.375 3.1875 6.375 3 4 C2.01 3.67 1.02 3.34 0 3 C0 2.01 0 1.02 0 0 Z " fill="#FBEED9" transform="translate(92,22)"/>
<path d="M0 0 C0.99 0 1.98 0 3 0 C3 2.64 3 5.28 3 8 C2.01 8 1.02 8 0 8 C0 5.36 0 2.72 0 0 Z " fill="#A5AAAC" transform="translate(97,92)"/>
<path d="M0 0 C2.0625 0.4375 2.0625 0.4375 4 1 C2.25 4.875 2.25 4.875 0 6 C-0.66 5.67 -1.32 5.34 -2 5 C-1.125 1.125 -1.125 1.125 0 0 Z " fill="#D88A3F" transform="translate(201,78)"/>
<path d="M0 0 C1.32 0 2.64 0 4 0 C3.42655063 2.86724686 3.1385485 3.8614515 1 6 C0.01 6 -0.98 6 -2 6 C-1.34 4.02 -0.68 2.04 0 0 Z " fill="#FCE2AA" transform="translate(128,39)"/>
<path d="M0 0 C0.99 0.33 1.98 0.66 3 1 C3 3.31 3 5.62 3 8 C2.01 8 1.02 8 0 8 C0 5.36 0 2.72 0 0 Z " fill="#ACADAD" transform="translate(73,92)"/>
<path d="M0 0 C0 0.66 0 1.32 0 2 C-3.3 2.66 -6.6 3.32 -10 4 C-10.33 3.34 -10.66 2.68 -11 2 C-7.17010894 0.19769832 -4.21878192 -0.19622241 0 0 Z " fill="#FDF7E8" transform="translate(159,79)"/>
<path d="M0 0 C0.66 0 1.32 0 2 0 C0.375 7.75 0.375 7.75 -3 10 C-2.39009109 6.44219804 -1.4216319 3.3171411 0 0 Z M-5 10 C-3 11 -3 11 -3 11 Z " fill="#F9F6E7" transform="translate(78,63)"/>
<path d="M0 0 C2.475 0.99 2.475 0.99 5 2 C5 3.32 5 4.64 5 6 C5.99 6 6.98 6 8 6 C7.67 6.66 7.34 7.32 7 8 C4.625 7.375 4.625 7.375 2 6 C0.6875 2.875 0.6875 2.875 0 0 Z " fill="#F7F9E9" transform="translate(44,68)"/>
<path d="M0 0 C1.2065625 0.0309375 1.2065625 0.0309375 2.4375 0.0625 C2.4375 1.3825 2.4375 2.7025 2.4375 4.0625 C1.1175 4.3925 -0.2025 4.7225 -1.5625 5.0625 C-2.2225 3.7425 -2.8825 2.4225 -3.5625 1.0625 C-2.5625 0.0625 -2.5625 0.0625 0 0 Z " fill="#E9872E" transform="translate(120.5625,38.9375)"/>
<path d="M0 0 C1.32 0 2.64 0 4 0 C3.375 1.9375 3.375 1.9375 2 4 C-1.125 4.75 -1.125 4.75 -4 5 C-2.25 2.5 -2.25 2.5 0 0 Z " fill="#FDEABF" transform="translate(125,13)"/>
<path d="M0 0 C1.32 0.33 2.64 0.66 4 1 C-0.38235294 5.01715686 -0.38235294 5.01715686 -3.25 4.9375 C-5 4 -5 4 -6 1 C-4.02 1 -2.04 1 0 1 C0 0.67 0 0.34 0 0 Z " fill="#FDE2BB" transform="translate(101,13)"/>
<path d="M0 0 C2.3431213 0.25561323 4.67843403 0.59270772 7 1 C7.33 1.66 7.66 2.32 8 3 C4.7 3 1.4 3 -2 3 C-1.34 2.67 -0.68 2.34 0 2 C0 1.34 0 0.68 0 0 Z " fill="#E5E5E5" transform="translate(2,97)"/>
<path d="M0 0 C0.33 0 0.66 0 1 0 C1 1.65 1 3.3 1 5 C1.99 5 2.98 5 4 5 C4 3.35 4 1.7 4 0 C5.32 0.66 6.64 1.32 8 2 C6.8125 4 6.8125 4 5 6 C2.3125 6.25 2.3125 6.25 0 6 C0 4.02 0 2.04 0 0 Z " fill="#E8E7E2" transform="translate(84,94)"/>
<path d="M0 0 C3.3 0.33 6.6 0.66 10 1 C10 1.66 10 2.32 10 3 C4.375 4.125 4.375 4.125 1 3 C0.67 2.01 0.34 1.02 0 0 Z " fill="#F5E5CC" transform="translate(136,85)"/>
<path d="M0 0 C1.15227823 0.76116551 2.2966386 1.53432693 3.4375 2.3125 C4.07558594 2.74175781 4.71367188 3.17101562 5.37109375 3.61328125 C7 5 7 5 8 8 C7.34 8 6.68 8 6 8 C6 7.34 6 6.68 6 6 C4.35 6 2.7 6 1 6 C0.67 4.02 0.34 2.04 0 0 Z " fill="#DD9D5C" transform="translate(89,10)"/>
<path d="M0 0 C0.99 0 1.98 0 3 0 C3 0.66 3 1.32 3 2 C2.34 2 1.68 2 1 2 C1 2.99 1 3.98 1 5 C-0.98 5.33 -2.96 5.66 -5 6 C-3.625 4 -3.625 4 -2 2 C-1.34 2 -0.68 2 0 2 C0 1.34 0 0.68 0 0 Z " fill="#F4E1BF" transform="translate(199,0)"/>
<path d="M0 0 C1.98 0 3.96 0 6 0 C6.33 2.31 6.66 4.62 7 7 C5.83040013 6.02433888 4.66438823 5.044375 3.5 4.0625 C2.8503125 3.51722656 2.200625 2.97195312 1.53125 2.41015625 C1.0259375 1.94480469 0.520625 1.47945313 0 1 C0 0.67 0 0.34 0 0 Z " fill="#F4E0BF" transform="translate(224,65)"/>
<path d="M0 0 C1.14926266 0.95421808 2.29430541 1.91352045 3.4375 2.875 C4.07558594 3.40867187 4.71367188 3.94234375 5.37109375 4.4921875 C7 6 7 6 8 8 C5.0280615 6.87548273 2.66559313 5.77706209 0 4 C0 2.68 0 1.36 0 0 Z " fill="#F5D8B3" transform="translate(97,26)"/>
<path d="M0 0 C3.3 0 6.6 0 10 0 C10 0.66 10 1.32 10 2 C7.69 1.67 5.38 1.34 3 1 C2.67 1.99 2.34 2.98 2 4 C1.34 2.68 0.68 1.36 0 0 Z " fill="#F38424" transform="translate(97,20)"/>
<path d="M0 0 C0 0.99 0 1.98 0 3 C-0.928125 3.4021875 -0.928125 3.4021875 -1.875 3.8125 C-4.2995233 4.95556848 -4.2995233 4.95556848 -6 8 C-6.66 7.67 -7.32 7.34 -8 7 C-8 5.68 -8 4.36 -8 3 C-6.865625 2.690625 -5.73125 2.38125 -4.5625 2.0625 C-1.21224901 1.37075469 -1.21224901 1.37075469 0 0 Z " fill="#FBEDCE" transform="translate(184,14)"/>
<path d="M0 0 C2.64 0 5.28 0 8 0 C9.125 3.75 9.125 3.75 8 6 C7.34 5.67 6.68 5.34 6 5 C6.33 4.01 6.66 3.02 7 2 C4.69 1.67 2.38 1.34 0 1 C0 0.67 0 0.34 0 0 Z " fill="#F5DDAB" transform="translate(168,17)"/>
<path d="M0 0 C1.65 0 3.3 0 5 0 C2 2 2 2 0 2 C-0.268125 2.639375 -0.53625 3.27875 -0.8125 3.9375 C-2 6 -2 6 -5 7 C-4.67 5.68 -4.34 4.36 -4 3 C-3.01 3 -2.02 3 -1 3 C-0.67 2.01 -0.34 1.02 0 0 Z " fill="#FEF3DC" transform="translate(110,6)"/>
<path d="M0 0 C0.33 0.99 0.66 1.98 1 3 C-0.81115956 4.81115956 -3.61278227 4.38199448 -6.0625 4.5625 C-7.16722656 4.64628906 -8.27195313 4.73007813 -9.41015625 4.81640625 C-10.26480469 4.87699219 -11.11945313 4.93757813 -12 5 C-8.43914263 3.12131366 -4.87246652 2.09598109 -1 1 C-0.67 0.67 -0.34 0.34 0 0 Z " fill="#F1D6B0" transform="translate(184,82)"/>
<path d="M0 0 C0.99 0.99 1.98 1.98 3 3 C-0.96 2.67 -4.92 2.34 -9 2 C-5.53076119 -0.31282587 -4.07794425 -0.42478586 0 0 Z " fill="#FDF3DA" transform="translate(37,61)"/>
<path d="M0 0 C-0.99 0.495 -0.99 0.495 -2 1 C-2 1.66 -2 2.32 -2 3 C-3.5 4.625 -3.5 4.625 -5 6 C-5.66 5.67 -6.32 5.34 -7 5 C-6.67 4.01 -6.34 3.02 -6 2 C-6.66 1.67 -7.32 1.34 -8 1 C-5.07175348 0.02391783 -3.04386724 -0.08226668 0 0 Z " fill="#F6E6CE" transform="translate(174,23)"/>
<path d="M0 0 C2.31 0 4.62 0 7 0 C1 3 1 3 -5 6 C-4.34 4.68 -3.68 3.36 -3 2 C-2.01 2 -1.02 2 0 2 C0 1.34 0 0.68 0 0 Z " fill="#DB9455" transform="translate(125,10)"/>
<path d="M0 0 C2.4375 0.8125 2.4375 0.8125 5 2 C5.33 2.99 5.66 3.98 6 5 C4.35 4.67 2.7 4.34 1 4 C0.67 2.68 0.34 1.36 0 0 Z " fill="#FBE9CB" transform="translate(42,82)"/>
<path d="M0 0 C1.65 0 3.3 0 5 0 C5.33 1.98 5.66 3.96 6 6 C3.97945196 4.35830472 1.97956942 2.69088222 0 1 C0 0.67 0 0.34 0 0 Z " fill="#F7E7C2" transform="translate(236,77)"/>
<path d="M0 0 C0 1.65 0 3.3 0 5 C-0.66 5 -1.32 5 -2 5 C-2 5.66 -2 6.32 -2 7 C-2.99 7.33 -3.98 7.66 -5 8 C-3.91891892 0 -3.91891892 0 0 0 Z " fill="#F9FAED" transform="translate(204,67)"/>
<path d="M0 0 C0.99 0 1.98 0 3 0 C2.67 0.99 2.34 1.98 2 3 C1.34 3 0.68 3 0 3 C-0.12375 3.639375 -0.2475 4.27875 -0.375 4.9375 C-0.58125 5.618125 -0.7875 6.29875 -1 7 C-1.99 7.495 -1.99 7.495 -3 8 C-2.45276317 4.62537285 -1.9451 2.91765 0 0 Z " fill="#FEF0D5" transform="translate(136,45)"/>
<path d="M0 0 C3.36591866 1.44253657 5.51047079 3.33264727 8 6 C5.21788056 5.62403791 3.4120716 5.32681541 1.1875 3.5625 C0 2 0 2 0 0 Z " fill="#A3A3A4" transform="translate(172,93)"/>
<path d="M0 0 C2.64 0 5.28 0 8 0 C8 0.99 8 1.98 8 3 C5.69 3 3.38 3 1 3 C0.67 2.01 0.34 1.02 0 0 Z " fill="#E1E1E1" transform="translate(22,94)"/>
<path d="M0 0 C1.32 0.66 2.64 1.32 4 2 C3.34 2 2.68 2 2 2 C2 4.31 2 6.62 2 9 C0.79371992 6.66785852 -0.1654738 4.50357861 -1 2 C-0.67 1.34 -0.34 0.68 0 0 Z " fill="#E8F1F5" transform="translate(95,90)"/>
<path d="M0 0 C1.98 1.65 3.96 3.3 6 5 C4.125 5.625 4.125 5.625 2 6 C1.34 5.34 0.68 4.68 0 4 C0 2.68 0 1.36 0 0 Z " fill="#D19762" transform="translate(225,67)"/>
<path d="M0 0 C2.4375 0.375 2.4375 0.375 5 1 C5.33 1.66 5.66 2.32 6 3 C3.36 3.33 0.72 3.66 -2 4 C-2 3.34 -2 2.68 -2 2 C-1.34 2 -0.68 2 0 2 C0 1.34 0 0.68 0 0 Z " fill="#F6CC86" transform="translate(216,68)"/>
<path d="M0 0 C0.66 0.33 1.32 0.66 2 1 C0.25 3.0625 0.25 3.0625 -2 5 C-4.25 4.75 -4.25 4.75 -6 4 C-3.94766315 1.7522025 -2.99332739 0.9977758 0 0 Z " fill="#FAE3AF" transform="translate(152,31)"/>
<path d="M0 0 C-0.33 0.99 -0.66 1.98 -1 3 C-3.64 3 -6.28 3 -9 3 C-7.01532024 -0.96935951 -3.9567243 -1.41311582 0 0 Z " fill="#F9D1A0" transform="translate(149,26)"/>
<path d="M0 0 C2.0625 0.4375 2.0625 0.4375 4 1 C4 2.32 4 3.64 4 5 C2.35 5.33 0.7 5.66 -1 6 C-0.34 4.68 0.32 3.36 1 2 C0.34 1.67 -0.32 1.34 -1 1 C-0.67 0.67 -0.34 0.34 0 0 Z " fill="#F3CF97" transform="translate(128,11)"/>
<path d="M0 0 C2.35171131 0.59861742 4.6859378 1.26924352 7 2 C7.33 2.66 7.66 3.32 8 4 C4.7 3.67 1.4 3.34 -2 3 C-1.34 2.67 -0.68 2.34 0 2 C0 1.34 0 0.68 0 0 Z " fill="#FBF8E5" transform="translate(148,84)"/>
<path d="M0 0 C0.66 0 1.32 0 2 0 C3.625 2 3.625 2 5 4 C3.68 4.99 2.36 5.98 1 7 C1 5.35 1 3.7 1 2 C0.34 1.67 -0.32 1.34 -1 1 C-0.67 0.67 -0.34 0.34 0 0 Z " fill="#DA9D63" transform="translate(56,78)"/>
<path d="M0 0 C0.66 1.32 1.32 2.64 2 4 C1.34 4.66 0.68 5.32 0 6 C-0.99 6 -1.98 6 -3 6 C-2.42655063 3.13275314 -2.1385485 2.1385485 0 0 Z " fill="#F7DBA0" transform="translate(121,32)"/>
<path d="M0 0 C0.8353125 0.37125 0.8353125 0.37125 1.6875 0.75 C1.11 0.9975 0.5325 1.245 -0.0625 1.5 C-2.6127997 2.91683317 -4.33035701 4.62627537 -6.3125 6.75 C-6.6425 5.76 -6.9725 4.77 -7.3125 3.75 C-2.88173077 -0.31153846 -2.88173077 -0.31153846 0 0 Z " fill="#F7FDEF" transform="translate(157.3125,32.25)"/>
<path d="M0 0 C1.98 0 3.96 0 6 0 C5.67 1.32 5.34 2.64 5 4 C3.0625 3.6875 3.0625 3.6875 1 3 C0.67 2.01 0.34 1.02 0 0 Z " fill="#F57E16" transform="translate(110,31)"/>
<path d="M0 0 C2.02054804 1.64169528 4.02043058 3.30911778 6 5 C6 5.33 6 5.66 6 6 C4.35 6 2.7 6 1 6 C0.67 4.02 0.34 2.04 0 0 Z " fill="#FBE9CA" transform="translate(86,16)"/>
</svg>
