<?xml version="1.0" encoding="UTF-8"?>
<svg version="1.1" xmlns="http://www.w3.org/2000/svg" width="200" height="200">
<path d="M0 0 C85.14 0 170.28 0 258 0 C258 77.55 258 155.1 258 235 C172.86 235 87.72 235 0 235 C0 157.45 0 79.9 0 0 Z " fill="#FEFEFE" transform="translate(0,0)"/>
<path d="M0 0 C1.98 0 3.96 0 6 0 C6.495 1.485 6.495 1.485 7 3 C7.66 3 8.32 3 9 3 C9.495 4.485 9.495 4.485 10 6 C10.29132813 5.195625 10.58265625 4.39125 10.8828125 3.5625 C13.32615221 0.60524751 13.84477915 0.5712847 17.4921875 0.1875 C19.28540481 0.0998316 21.08004951 0.03829909 22.875 0 C23.77347656 -0.05027344 24.67195313 -0.10054688 25.59765625 -0.15234375 C29.46467682 -0.29514362 32.43593892 -0.19604131 36.11328125 1.08203125 C38 3 38 3 38.48828125 6.13671875 C38.43027344 7.30847656 38.37226563 8.48023438 38.3125 9.6875 C38.26738281 10.86699219 38.22226563 12.04648438 38.17578125 13.26171875 C38.11777344 14.16535156 38.05976563 15.06898438 38 16 C36.68 16.33 35.36 16.66 34 17 C34.495 19.475 34.495 19.475 35 22 C41.93 22 48.86 22 56 22 C56.33 15.73 56.66 9.46 57 3 C58.98 3 60.96 3 63 3 C63.495 13.395 63.495 13.395 64 24 C69.09623473 20.94225916 69.78148697 20.23876842 72.0625 15.1875 C72.56910156 14.12402344 73.07570313 13.06054688 73.59765625 11.96484375 C74.06042969 10.98644531 74.52320313 10.00804687 75 9 C76.20732626 6.5808924 77.17966345 5.04787861 79 3 C82.25 2.625 82.25 2.625 85 3 C92 15.06896552 92 15.06896552 92 18 C93.98 18.495 93.98 18.495 96 19 C96.33 20.32 96.66 21.64 97 23 C98.32 23.33 99.64 23.66 101 24 C99.92598892 26.91517292 99.22189824 28.77810176 97 31 C96.01 31 95.02 31 94 31 C94 31.66 94 32.32 94 33 C95.65 33.33 97.3 33.66 99 34 C97.68 34.33 96.36 34.66 95 35 C95 37.64 95 40.28 95 43 C94.01 43.495 94.01 43.495 93 44 C93 43.34 93 42.68 93 42 C89.7 42 86.4 42 83 42 C83 39.36 83 36.72 83 34 C84.98 33.67 86.96 33.34 89 33 C88.7834375 32.13375 88.7834375 32.13375 88.5625 31.25 C88 29 88 29 87.625 26.8125 C87.315625 25.9153125 87.315625 25.9153125 87 25 C83.05448165 23.68482722 78.8231584 23.0884208 75 25 C74.34444881 27.52733235 74.34444881 27.52733235 74 30 C73.01 30 72.02 30 71 30 C71.99 32.475 71.99 32.475 73 35 C71.515 35.495 71.515 35.495 70 36 C69.34 35.67 68.68 35.34 68 35 C68 37.31 68 39.62 68 42 C67.67 42 67.34 42 67 42 C67 39.69 67 37.38 67 35 C64.58414426 35.03093173 64.58414426 35.03093173 62 36 C60.14083176 38.96707046 60.14083176 38.96707046 59 42 C56 41 56 41 54.25 38.6875 C53 36 53 36 53.1875 33.875 C54 32 54 32 56 29 C49.07 28.505 49.07 28.505 42 28 C42 27.34 42 26.68 42 26 C41.34 26 40.68 26 40 26 C40 26.66 40 27.32 40 28 C32.68765617 28.49575212 32.68765617 28.49575212 29.3125 26.0625 C28.549375 25.381875 27.78625 24.70125 27 24 C24.31492671 23.21053391 24.31492671 23.21053391 22 23 C21.896875 23.7425 21.79375 24.485 21.6875 25.25 C20.95746496 28.17014018 19.93210602 29.73187554 18 32 C19.32 32.99 20.64 33.98 22 35 C20.02 35 18.04 35 16 35 C16 35.66 16 36.32 16 37 C16.99 37 17.98 37 19 37 C19 37.66 19 38.32 19 39 C18.01 39 17.02 39 16 39 C16 39.66 16 40.32 16 41 C17.98 41 19.96 41 22 41 C22 41.33 22 41.66 22 42 C15.9453125 42.1953125 15.9453125 42.1953125 14 42 C13.34 41.34 12.68 40.68 12 40 C11.505 40.99 11.505 40.99 11 42 C10.01 42 9.02 42 8 42 C7.505 39.03 7.505 39.03 7 36 C5.68 36 4.36 36 3 36 C3 37.98 3 39.96 3 42 C2.34 42 1.68 42 1 42 C1 39.69 1 37.38 1 35 C0.01 35 -0.98 35 -2 35 C-1.67 31.37 -1.34 27.74 -1 24 C-1.33 24 -1.66 24 -2 24 C-2.33 21.36 -2.66 18.72 -3 16 C-3.5775 16.144375 -4.155 16.28875 -4.75 16.4375 C-7 17 -7 17 -9.125 17.25 C-11.2507107 17.85652183 -11.2507107 17.85652183 -12.125 20.3125 C-12.558125 21.6428125 -12.558125 21.6428125 -13 23 C-13.65213539 24.34050052 -14.31379969 25.67661368 -15 27 C-16.98 27 -18.96 27 -21 27 C-22.33838733 24.54429825 -23.67086232 22.08570084 -25 19.625 C-25.3815625 18.92632812 -25.763125 18.22765625 -26.15625 17.5078125 C-29 12.2265625 -29 12.2265625 -29 10 C-29.66 10 -30.32 10 -31 10 C-31.66 7.69 -32.32 5.38 -33 3 C-31.35 3 -29.7 3 -28 3 C-19 19.36893204 -19 19.36893204 -19 22 C-18.34 22 -17.68 22 -17 22 C-16.73316406 21.14019531 -16.46632813 20.28039062 -16.19140625 19.39453125 C-14.99863631 15.99611461 -13.56481796 12.89815436 -11.9375 9.6875 C-11.41027344 8.63949219 -10.88304688 7.59148437 -10.33984375 6.51171875 C-9 4 -9 4 -8 3 C-6.33382885 2.95936168 -4.66611905 2.957279 -3 3 C-2.67 3.99 -2.34 4.98 -2 6 C-1.34 6 -0.68 6 0 6 C0 4.02 0 2.04 0 0 Z " fill="#FBFAE9" transform="translate(98,120)"/>
<path d="M0 0 C2.31640625 -0.27734375 2.31640625 -0.27734375 5 0 C6.58984375 1.87109375 6.58984375 1.87109375 7.9375 4.4375 C9.9555982 8.11201127 12.0269877 11.64994179 14.375 15.125 C15.12910156 16.24261719 15.12910156 16.24261719 15.8984375 17.3828125 C16.26195313 17.91648437 16.62546875 18.45015625 17 19 C17.60585937 18.20335938 18.21171875 17.40671875 18.8359375 16.5859375 C24.78937368 8.97843611 30.57548056 3.14150648 40 0 C42.80426452 -0.08518867 45.5829635 -0.1158852 48.38671875 -0.09765625 C49.20372757 -0.0962413 50.02073639 -0.09482635 50.86250305 -0.09336853 C53.47087268 -0.08777294 56.07915634 -0.07522129 58.6875 -0.0625 C60.45637897 -0.05748443 62.22525928 -0.05292162 63.99414062 -0.04882812 C68.32946019 -0.03780496 72.66471552 -0.02054338 77 0 C76.30058404 3.14737182 75.23921302 6.02588876 74 9 C73.1028125 9.01458252 72.205625 9.02916504 71.28125 9.04418945 C67.918693 9.1056308 64.55690297 9.1798513 61.19482422 9.26245117 C59.74603719 9.29548803 58.29712801 9.32358455 56.84814453 9.34643555 C44.19423516 9.38094091 44.19423516 9.38094091 32.86328125 14.54296875 C29.06937367 18.56623094 25.15417329 22.83895983 23 28 C23.33 28.99 23.66 29.98 24 31 C24.66 31 25.32 31 26 31 C26.08636719 30.27296875 26.17273438 29.5459375 26.26171875 28.796875 C27.1471896 25.44239284 28.495923 23.81155824 30.8125 21.25 C31.49957031 20.47140625 32.18664062 19.6928125 32.89453125 18.890625 C35.02359762 16.9788103 36.20732084 16.37654101 39 16 C39 15.34 39 14.68 39 14 C45.61615806 11.99939983 51.61503266 11.75753993 58.5 11.875 C59.51320312 11.88402344 60.52640625 11.89304687 61.5703125 11.90234375 C64.04712801 11.92570993 66.52343379 11.95846832 69 12 C68.38722388 14.96175123 67.74627478 16.38058783 66 19 C63.25785727 19.30964478 60.68441386 19.4597201 57.9375 19.5 C49.8014334 19.7948653 42.35720499 20.39960513 36 26 C34.27216498 28.52777337 34.27216498 28.52777337 32.8125 31.375 C32.30332031 32.31085938 31.79414062 33.24671875 31.26953125 34.2109375 C30.06870791 36.849054 29.43074609 39.14565841 29 42 C29.66 42.33 30.32 42.66 31 43 C31.09410156 42.12085938 31.18820313 41.24171875 31.28515625 40.3359375 C32.0677717 36.68373207 33.26352818 34.63511483 35.4375 31.625 C36.05496094 30.75101563 36.67242187 29.87703125 37.30859375 28.9765625 C37.86675781 28.32429688 38.42492187 27.67203125 39 27 C39.66 27 40.32 27 41 27 C41 26.34 41 25.68 41 25 C46.01986699 21.98332915 49.71323804 21.61285378 55.375 21.8125 C56.11105469 21.82603516 56.84710938 21.83957031 57.60546875 21.85351562 C59.40396743 21.88855131 61.20208422 21.94234712 63 22 C62.505 23.485 62.505 23.485 62 25 C61.11957031 25.10957031 60.23914063 25.21914062 59.33203125 25.33203125 C58.17058594 25.49058594 57.00914062 25.64914063 55.8125 25.8125 C54.66394531 25.96332031 53.51539063 26.11414063 52.33203125 26.26953125 C48.96837279 27.00693352 46.86106672 28.14513437 44 30 C43.34 30 42.68 30 42 30 C41.773125 30.66 41.54625 31.32 41.3125 32 C40.19677922 34.55021893 39.00835793 36.61934519 37.5 38.9375 C35.41120578 42.18468158 34.03057221 45.25246468 33 49 C33.66 49 34.32 49 35 49 C36.07959572 46.87038652 37.12120693 44.73462062 38.11328125 42.5625 C41.05463554 36.27739115 43.39501207 32.5020783 50 29.75 C52.81646501 29.04588375 55.11480631 28.83028272 58 29 C58 29.99 58 30.98 58 32 C57.38511719 32.19335938 56.77023438 32.38671875 56.13671875 32.5859375 C54.92435547 32.97652344 54.92435547 32.97652344 53.6875 33.375 C52.48673828 33.75785156 52.48673828 33.75785156 51.26171875 34.1484375 C44.66084927 36.63373896 42.57848419 42.62201257 39.8125 48.625 C38.45990645 51.72800873 37.43632934 54.61844765 37 58 C34.6875 58.25 34.6875 58.25 32 58 C29.74357898 55.43274548 28.26629428 52.70053591 26.8125 49.625 C24.35438434 44.58136634 21.61086048 39.74341118 18.7668457 34.91064453 C16.88704025 31.68483395 15.28328923 28.50765722 14 25 C13.34 25 12.68 25 12 25 C11.46890625 23.91460937 10.9378125 22.82921875 10.390625 21.7109375 C9.6773009 20.26551761 8.96374699 18.82021111 8.25 17.375 C7.90195313 16.66214844 7.55390625 15.94929688 7.1953125 15.21484375 C5.54357557 11.88078216 3.87291956 8.71346863 1.734375 5.6640625 C0 3 0 3 0 0 Z " fill="#E18E41" transform="translate(91,53)"/>
<path d="M0 0 C1.98 0 3.96 0 6 0 C6.495 1.485 6.495 1.485 7 3 C7.66 3 8.32 3 9 3 C9.495 4.485 9.495 4.485 10 6 C10.29132813 5.195625 10.58265625 4.39125 10.8828125 3.5625 C13.32615221 0.60524751 13.84477915 0.5712847 17.4921875 0.1875 C19.28540481 0.0998316 21.08004951 0.03829909 22.875 0 C23.77347656 -0.05027344 24.67195313 -0.10054688 25.59765625 -0.15234375 C29.46467682 -0.29514362 32.43593892 -0.19604131 36.11328125 1.08203125 C38 3 38 3 38.48828125 6.13671875 C38.43027344 7.30847656 38.37226563 8.48023438 38.3125 9.6875 C38.26738281 10.86699219 38.22226563 12.04648438 38.17578125 13.26171875 C38.11777344 14.16535156 38.05976563 15.06898438 38 16 C36.68 16.33 35.36 16.66 34 17 C34.495 18.98 34.495 18.98 35 21 C34.34 21 33.68 21 33 21 C32.25 18.75 32.25 18.75 32 16 C33.33333333 14.66666667 34.66666667 13.33333333 36 12 C36.33448259 8.832168 36.33448259 8.832168 36 6 C31.12996548 4.11036516 26.77266811 3.59918121 21.625 3.375 C17.850625 3.189375 17.850625 3.189375 14 3 C14 11.58 14 20.16 14 29 C15.65 29 17.3 29 19 29 C19 30.32 19 31.64 19 33 C19.99 33.66 20.98 34.32 22 35 C20.02 35 18.04 35 16 35 C16 35.66 16 36.32 16 37 C16.99 37 17.98 37 19 37 C19 37.66 19 38.32 19 39 C18.01 39 17.02 39 16 39 C16 39.66 16 40.32 16 41 C17.98 41 19.96 41 22 41 C22 41.33 22 41.66 22 42 C15.9453125 42.1953125 15.9453125 42.1953125 14 42 C13.34 41.34 12.68 40.68 12 40 C11.505 40.99 11.505 40.99 11 42 C10.01 42 9.02 42 8 42 C7.505 39.03 7.505 39.03 7 36 C5.68 36 4.36 36 3 36 C3 37.98 3 39.96 3 42 C2.34 42 1.68 42 1 42 C1 39.69 1 37.38 1 35 C0.01 35 -0.98 35 -2 35 C-1.67 31.37 -1.34 27.74 -1 24 C-1.33 24 -1.66 24 -2 24 C-2.33 21.36 -2.66 18.72 -3 16 C-3.5775 16.144375 -4.155 16.28875 -4.75 16.4375 C-7 17 -7 17 -9.125 17.25 C-11.2507107 17.85652183 -11.2507107 17.85652183 -12.125 20.3125 C-12.558125 21.6428125 -12.558125 21.6428125 -13 23 C-13.65213539 24.34050052 -14.31379969 25.67661368 -15 27 C-16.98 27 -18.96 27 -21 27 C-22.33838733 24.54429825 -23.67086232 22.08570084 -25 19.625 C-25.3815625 18.92632812 -25.763125 18.22765625 -26.15625 17.5078125 C-29 12.2265625 -29 12.2265625 -29 10 C-29.66 10 -30.32 10 -31 10 C-31.66 7.69 -32.32 5.38 -33 3 C-31.35 3 -29.7 3 -28 3 C-19 19.36893204 -19 19.36893204 -19 22 C-18.34 22 -17.68 22 -17 22 C-16.73316406 21.14019531 -16.46632813 20.28039062 -16.19140625 19.39453125 C-14.99863631 15.99611461 -13.56481796 12.89815436 -11.9375 9.6875 C-11.41027344 8.63949219 -10.88304688 7.59148437 -10.33984375 6.51171875 C-9 4 -9 4 -8 3 C-6.33382885 2.95936168 -4.66611905 2.957279 -3 3 C-2.67 3.99 -2.34 4.98 -2 6 C-1.34 6 -0.68 6 0 6 C0 4.02 0 2.04 0 0 Z " fill="#FCF9EE" transform="translate(98,120)"/>
<path d="M0 0 C2.51625 -0.061875 5.0325 -0.12375 7.625 -0.1875 C8.79603271 -0.22846802 8.79603271 -0.22846802 9.99072266 -0.27026367 C14.7028853 -0.32589088 17.94979639 0.33719332 22 3 C23.0625 5.9375 23.0625 5.9375 23 9 C21.6875 11.375 21.6875 11.375 20 13 C19.34 13 18.68 13 18 13 C18.33 14.65 18.66 16.3 19 18 C23.77074617 19.23398119 28.4259418 19.11225053 33.3125 19.0625 C36.179375 19.041875 39.04625 19.02125 42 19 C42.33 12.73 42.66 6.46 43 0 C44.65 0 46.3 0 48 0 C48.13530844 3.06398451 48.2342407 6.12197126 48.3125 9.1875 C48.35439453 10.05181641 48.39628906 10.91613281 48.43945312 11.80664062 C48.52644245 16.34748338 48.50731098 18.33633187 45.66796875 22.05078125 C41.61777764 25.00985206 38.70380988 25.11509473 33.8125 25.0625 C32.18248047 25.04896484 32.18248047 25.04896484 30.51953125 25.03515625 C29.68808594 25.02355469 28.85664063 25.01195312 28 25 C28 24.34 28 23.68 28 23 C27.34 23 26.68 23 26 23 C26 23.66 26 24.32 26 25 C18.68765617 25.49575212 18.68765617 25.49575212 15.3125 23.0625 C14.549375 22.381875 13.78625 21.70125 13 21 C10.31492671 20.21053391 10.31492671 20.21053391 8 20 C7.855625 20.804375 7.71125 21.60875 7.5625 22.4375 C7 25 7 25 6 26 C4.02 26 2.04 26 0 26 C0 17.42 0 8.84 0 0 Z " fill="#FAE2BD" transform="translate(112,123)"/>
<path d="M0 0 C4.94791294 -0.0246826 9.8957902 -0.04285166 14.84375 -0.05493164 C16.52767562 -0.05996653 18.21159686 -0.06679481 19.89550781 -0.07543945 C22.31316203 -0.08754196 24.73075856 -0.09323668 27.1484375 -0.09765625 C27.9036972 -0.10281754 28.65895691 -0.10797882 29.43710327 -0.11329651 C34.77225659 -0.11387171 34.77225659 -0.11387171 37 1 C36.75 4.375 36.75 4.375 36 8 C34 9.25 34 9.25 32 10 C31.67 10.99 31.34 11.98 31 13 C30.01 13 29.02 13 28 13 C27.66269158 14.43657245 27.33030409 15.87430093 27 17.3125 C26.7215625 18.51326172 26.7215625 18.51326172 26.4375 19.73828125 C25.90504177 22.10695938 25.90504177 22.10695938 26 25 C22.17482487 27.39073445 18.40334476 27.55966552 14 28 C14.495 28.99 14.495 28.99 15 30 C14.07316406 30.18175781 13.14632812 30.36351563 12.19140625 30.55078125 C10.99386719 30.80214844 9.79632813 31.05351563 8.5625 31.3125 C6.77005859 31.67794922 6.77005859 31.67794922 4.94140625 32.05078125 C3.97074219 32.36402344 3.00007813 32.67726562 2 33 C1.67 33.99 1.34 34.98 1 36 C0.34 36 -0.32 36 -1 36 C-1.226875 37.010625 -1.45375 38.02125 -1.6875 39.0625 C-2.93397876 43.4565618 -5.12184173 46.47425613 -8 50 C-8.66 50 -9.32 50 -10 50 C-8.6669796 42.149991 -5.20302888 35.09768981 0.55859375 29.48046875 C5.22617052 26.37263085 10.85323633 26.10066383 16.3046875 25.4921875 C17.19414062 25.32976562 18.08359375 25.16734375 19 25 C19.33 24.34 19.66 23.68 20 23 C17.45749979 23.11474466 14.91652662 23.2414697 12.375 23.375 C11.66214844 23.4059375 10.94929688 23.436875 10.21484375 23.46875 C5.82847392 23.71020155 2.1405166 24.39342731 -2 26 C-2 26.66 -2 27.32 -2 28 C-2.7425 28.721875 -3.485 29.44375 -4.25 30.1875 C-8.06450483 34.08869812 -11.11631978 38.47699862 -12 44 C-12.99 43.67 -13.98 43.34 -15 43 C-13.93911885 35.51872122 -9.63900787 28.30913189 -4 23.375 C2.39260345 20.44505675 8.02803122 19.72106154 14.9375 19.875 C15.71673828 19.88402344 16.49597656 19.89304687 17.29882812 19.90234375 C19.19935447 19.92566309 21.09972008 19.96152414 23 20 C24.20628008 17.66785852 25.1654738 15.50357861 26 13 C22.49976144 13.14042495 18.99987601 13.28833226 15.5 13.4375 C14.51773438 13.47681641 13.53546875 13.51613281 12.5234375 13.55664062 C6.9626941 13.79760617 1.51144691 14.21921169 -4 15 C-4 15.66 -4 16.32 -4 17 C-4.86625 17.53625 -5.7325 18.0725 -6.625 18.625 C-11.52031787 21.70637585 -15.1794477 26.53834311 -17 32 C-18.485 32.495 -18.485 32.495 -20 33 C-20.68359375 31.30078125 -20.68359375 31.30078125 -21 29 C-17.39855114 21.71164416 -11.00356279 14.01203887 -3.32983398 10.92626953 C0.38786883 9.89210541 3.51156759 9.77282287 7.3671875 9.8046875 C8.04677521 9.8075174 8.72636292 9.81034729 9.42654419 9.81326294 C11.57621608 9.82437036 13.72545614 9.84945609 15.875 9.875 C17.34113977 9.88504205 18.80728614 9.89416575 20.2734375 9.90234375 C23.84909631 9.92427841 27.42450594 9.95874186 31 10 C31.185625 8.88625 31.185625 8.88625 31.375 7.75 C32 5 32 5 34 1 C22.78 1 11.56 1 0 1 C0 0.67 0 0.34 0 0 Z " fill="#FEF0C3" transform="translate(134,52)"/>
<path d="M0 0 C0.81700882 0.00141495 1.63401764 0.0028299 2.4757843 0.00428772 C5.08415393 0.00988331 7.69243759 0.02243496 10.30078125 0.03515625 C12.06966022 0.04017182 13.83854053 0.04473463 15.60742188 0.04882812 C19.94274144 0.05985129 24.27799677 0.07711287 28.61328125 0.09765625 C27.91386529 3.24502807 26.85249427 6.12354501 25.61328125 9.09765625 C24.71609375 9.11223877 23.81890625 9.12682129 22.89453125 9.1418457 C19.53197425 9.20328705 16.17018422 9.27750755 12.80810547 9.36010742 C11.35931844 9.39314428 9.91040926 9.4212408 8.46142578 9.4440918 C-4.19248359 9.47859716 -4.19248359 9.47859716 -15.5234375 14.640625 C-19.03986488 18.36963237 -21.84826831 22.10528976 -24.34375 26.59375 C-24.68792969 27.09003906 -25.03210938 27.58632812 -25.38671875 28.09765625 C-26.04671875 28.09765625 -26.70671875 28.09765625 -27.38671875 28.09765625 C-27.71671875 29.41765625 -28.04671875 30.73765625 -28.38671875 32.09765625 C-29.04671875 31.76765625 -29.70671875 31.43765625 -30.38671875 31.09765625 C-30.38671875 29.77765625 -30.38671875 28.45765625 -30.38671875 27.09765625 C-31.04671875 27.09765625 -31.70671875 27.09765625 -32.38671875 27.09765625 C-32.38671875 25.77765625 -32.38671875 24.45765625 -32.38671875 23.09765625 C-31.72671875 23.09765625 -31.06671875 23.09765625 -30.38671875 23.09765625 C-30.38671875 22.43765625 -30.38671875 21.77765625 -30.38671875 21.09765625 C-29.72671875 21.09765625 -29.06671875 21.09765625 -28.38671875 21.09765625 C-28.38671875 20.10765625 -28.38671875 19.11765625 -28.38671875 18.09765625 C-27.72671875 18.09765625 -27.06671875 18.09765625 -26.38671875 18.09765625 C-26.05671875 17.10765625 -25.72671875 16.11765625 -25.38671875 15.09765625 C-24.72671875 15.09765625 -24.06671875 15.09765625 -23.38671875 15.09765625 C-23.05671875 13.77765625 -22.72671875 12.45765625 -22.38671875 11.09765625 C-21.72671875 11.09765625 -21.06671875 11.09765625 -20.38671875 11.09765625 C-20.38671875 10.37578125 -20.38671875 9.65390625 -20.38671875 8.91015625 C-18.84578789 4.57628821 -15.3662382 3.11064274 -11.38671875 1.09765625 C-7.56516495 -0.17619502 -3.97987405 -0.02587563 0 0 Z " fill="#F28324" transform="translate(139.38671875,52.90234375)"/>
<path d="M0 0 C0.33 2.64 0.66 5.28 1 8 C1.33 8 1.66 8 2 8 C1.85904936 9.6254308 1.71207913 11.25034051 1.5625 12.875 C1.48128906 13.77992188 1.40007812 14.68484375 1.31640625 15.6171875 C1 18 1 18 0 20 C0.99 20 1.98 20 3 20 C2.67 20.66 2.34 21.32 2 22 C-0.0625 22.625 -0.0625 22.625 -2 23 C-2 24.65 -2 26.3 -2 28 C-5.77371512 29.3357457 -8.85831347 28.72408671 -12.75 28.0625 C-13.92046875 27.86785156 -15.0909375 27.67320312 -16.296875 27.47265625 C-17.18890625 27.31667969 -18.0809375 27.16070312 -19 27 C-19 26.34 -19 25.68 -19 25 C-20.65 25 -22.3 25 -24 25 C-24 25.66 -24 26.32 -24 27 C-24.66 27 -25.32 27 -26 27 C-25.88490339 25.58249437 -25.75746342 24.16598831 -25.625 22.75 C-25.55539063 21.96109375 -25.48578125 21.1721875 -25.4140625 20.359375 C-24.98449974 17.91167779 -24.13129001 16.1918744 -23 14 C-23.36707617 12.11280345 -23.36707617 12.11280345 -24 10 C-24.03888349 7.66699067 -24.0448635 5.33290199 -24 3 C-22.39842575 5.03836723 -21.09505087 6.7440938 -20.1875 9.1875 C-19.05763667 11.36374675 -19.05763667 11.36374675 -15.875 11.75 C-14.92625 11.8325 -13.9775 11.915 -13 12 C-12.896875 11.443125 -12.79375 10.88625 -12.6875 10.3125 C-11.4978862 6.31107175 -9.93149139 3.69264744 -6.5625 1.1875 C-4 0 -4 0 0 0 Z " fill="#FAFDFA" transform="translate(96,135)"/>
<path d="M0 0 C1.65 0 3.3 0 5 0 C14 16.36893204 14 16.36893204 14 19 C14.66 19 15.32 19 16 19 C16.26683594 18.14019531 16.53367187 17.28039062 16.80859375 16.39453125 C18.00136369 12.99611461 19.43518204 9.89815436 21.0625 6.6875 C21.58972656 5.63949219 22.11695312 4.59148437 22.66015625 3.51171875 C24 1 24 1 25 0 C26.66617115 -0.04063832 28.33388095 -0.042721 30 0 C28.36971726 4.40685802 26.23570155 8.44346291 24 12.5625 C20.92287749 18.24112379 20.92287749 18.24112379 18 24 C16.02 24 14.04 24 12 24 C10.66161267 21.54429825 9.32913768 19.08570084 8 16.625 C7.6184375 15.92632812 7.236875 15.22765625 6.84375 14.5078125 C4 9.2265625 4 9.2265625 4 7 C3.34 7 2.68 7 2 7 C1.34 4.69 0.68 2.38 0 0 Z " fill="#DD8D45" transform="translate(65,123)"/>
<path d="M0 0 C0.81700882 0.00141495 1.63401764 0.0028299 2.4757843 0.00428772 C5.08415393 0.00988331 7.69243759 0.02243496 10.30078125 0.03515625 C12.06966022 0.04017182 13.83854053 0.04473463 15.60742188 0.04882812 C19.94274144 0.05985129 24.27799677 0.07711287 28.61328125 0.09765625 C27.91386529 3.24502807 26.85249427 6.12354501 25.61328125 9.09765625 C24.71609375 9.11223877 23.81890625 9.12682129 22.89453125 9.1418457 C19.53197425 9.20328705 16.17018422 9.27750755 12.80810547 9.36010742 C11.35931844 9.39314428 9.91040926 9.4212408 8.46142578 9.4440918 C-5.18413349 9.41242652 -5.18413349 9.41242652 -16.88671875 15.78515625 C-17.71171875 16.54828125 -18.53671875 17.31140625 -19.38671875 18.09765625 C-19.07421875 16.16015625 -19.07421875 16.16015625 -18.38671875 14.09765625 C-17.39671875 13.76765625 -16.40671875 13.43765625 -15.38671875 13.09765625 C-15.38671875 12.10765625 -15.38671875 11.11765625 -15.38671875 10.09765625 C-7.93697088 6.51387603 -1.04357549 6.74851122 7.11328125 6.91015625 C8.41265625 6.92369141 9.71203125 6.93722656 11.05078125 6.95117188 C14.23871537 6.98633291 17.42577724 7.03554961 20.61328125 7.09765625 C20.61328125 6.43765625 20.61328125 5.77765625 20.61328125 5.09765625 C21.60328125 5.09765625 22.59328125 5.09765625 23.61328125 5.09765625 C23.11828125 4.10765625 23.11828125 4.10765625 22.61328125 3.09765625 C18.30079516 3.06879088 13.98833363 3.0509037 9.67578125 3.03515625 C8.44408203 3.02677734 7.21238281 3.01839844 5.94335938 3.00976562 C4.77353516 3.00654297 3.60371094 3.00332031 2.3984375 3 C1.3144165 2.99476318 0.23039551 2.98952637 -0.88647461 2.98413086 C-3.32721823 2.81338728 -3.32721823 2.81338728 -4.38671875 4.09765625 C-6.33647675 4.49633811 -8.29718833 4.84215672 -10.26171875 5.16015625 C-11.33164063 5.33675781 -12.4015625 5.51335938 -13.50390625 5.6953125 C-16.38671875 6.09765625 -16.38671875 6.09765625 -19.38671875 6.09765625 C-18.11840182 5.28123371 -16.84695944 4.4696652 -15.57421875 3.66015625 C-14.86652344 3.20769531 -14.15882812 2.75523438 -13.4296875 2.2890625 C-9.05418281 -0.26261805 -4.9038982 -0.03188329 0 0 Z " fill="#E2863C" transform="translate(139.38671875,52.90234375)"/>
<path d="M0 0 C1.98 0 3.96 0 6 0 C6.66 1.65 7.32 3.3 8 5 C8.99 4.67 9.98 4.34 11 4 C11 4.66 11 5.32 11 6 C13.31 6 15.62 6 18 6 C18 7.65 18 9.3 18 11 C15.69 11 13.38 11 11 11 C11 11.99 11 12.98 11 14 C9 15.6875 9 15.6875 7 17 C6.34 15.35 5.68 13.7 5 12 C2.72826908 12.84566739 2.72826908 12.84566739 2.125 15.5 C1 18 1 18 -1.125 18.8125 C-1.74375 18.874375 -2.3625 18.93625 -3 19 C-3 17.68 -3 16.36 -3 15 C-4.65 14.67 -6.3 14.34 -8 14 C-7.67 13.34 -7.34 12.68 -7 12 C-4.03 12.495 -4.03 12.495 -1 13 C-1 12.34 -1 11.68 -1 11 C-3.31 11 -5.62 11 -8 11 C-8 9.35 -8 7.7 -8 6 C-5.36 5.67 -2.72 5.34 0 5 C0 3.35 0 1.7 0 0 Z " fill="#FBF9F5" transform="translate(131,148)"/>
<path d="M0 0 C10.625 -0.25 10.625 -0.25 14 2 C15.1875 5.625 15.1875 5.625 16 9 C15.01 9.33 14.02 9.66 13 10 C13.33 11.65 13.66 13.3 14 15 C14.66 15 15.32 15 16 15 C19 18.46153846 19 18.46153846 19 21 C16.75 21.3125 16.75 21.3125 14 21 C11.00182346 18.00182346 9.36768421 14.98907894 8 11 C5.36 11 2.72 11 0 11 C0 7.37 0 3.74 0 0 Z " fill="#D59658" transform="translate(117,126)"/>
<path d="M0 0 C0.9075 0.12375 1.815 0.2475 2.75 0.375 C5.68746323 5.41632202 8.40253373 10.52620673 11 15.75 C11.36351562 16.47316406 11.72703125 17.19632813 12.1015625 17.94140625 C14.75 23.24823778 14.75 23.24823778 14.75 24.375 C12.4375 24.6875 12.4375 24.6875 9.75 24.375 C7.93116991 21.9917054 6.75 20.41681663 6.75 17.375 C2.13 17.375 -2.49 17.375 -7.25 17.375 C-7.25 16.715 -7.25 16.055 -7.25 15.375 C-3.29 15.375 0.67 15.375 4.75 15.375 C4.09 14.09625 3.43 12.8175 2.75 11.5 C0.75 7.625 0.75 7.625 0.75 5.375 C-1.55675444 7.52266793 -3.24656775 9.36895924 -4.8125 12.125 C-5.286875 12.8675 -5.76125 13.61 -6.25 14.375 C-7.24 14.375 -8.23 14.375 -9.25 14.375 C-6.42934783 0.74184783 -6.42934783 0.74184783 0 0 Z " fill="#D89354" transform="translate(180.25,122.625)"/>
<path d="M0 0 C0.33 0 0.66 0 1 0 C1.02505615 0.61520508 1.0501123 1.23041016 1.07592773 1.86425781 C1.19218487 4.65970156 1.31477642 7.45483298 1.4375 10.25 C1.47681641 11.21808594 1.51613281 12.18617188 1.55664062 13.18359375 C1.61948242 14.58544922 1.61948242 14.58544922 1.68359375 16.015625 C1.72025146 16.87446289 1.75690918 17.73330078 1.79467773 18.61816406 C1.99125371 20.89853883 2.18602778 22.85774727 3 25 C3.969375 25.309375 4.93875 25.61875 5.9375 25.9375 C9 27 9 27 10.375 29.625 C10.684375 30.800625 10.684375 30.800625 11 32 C9.515 32.495 9.515 32.495 8 33 C7.34 32.67 6.68 32.34 6 32 C6 34.31 6 36.62 6 39 C5.67 39 5.34 39 5 39 C5 36.69 5 34.38 5 32 C2.58414426 32.03093173 2.58414426 32.03093173 0 33 C-1.85916824 35.96707046 -1.85916824 35.96707046 -3 39 C-6 38 -6 38 -7.75 35.6875 C-9 33 -9 33 -8.8125 30.875 C-8 29 -8 29 -6 26 C-8.31 26 -10.62 26 -13 26 C-13 25.67 -13 25.34 -13 25 C-12.30132812 24.81824219 -11.60265625 24.63648438 -10.8828125 24.44921875 C-9.97273437 24.19785156 -9.06265625 23.94648438 -8.125 23.6875 C-6.76761719 23.32205078 -6.76761719 23.32205078 -5.3828125 22.94921875 C-2.67886681 22.13330148 -2.67886681 22.13330148 -1 19 C-0.63566627 16.87662229 -0.63566627 16.87662229 -0.5859375 14.55078125 C-0.52792969 13.27944336 -0.52792969 13.27944336 -0.46875 11.98242188 C-0.4378125 11.10134766 -0.406875 10.22027344 -0.375 9.3125 C-0.33632812 8.41982422 -0.29765625 7.52714844 -0.2578125 6.60742188 C-0.16359782 4.4051538 -0.07798412 2.20289278 0 0 Z " fill="#DDDEDE" transform="translate(160,123)"/>
<path d="M0 0 C2.31640625 -0.27734375 2.31640625 -0.27734375 5 0 C6.58984375 1.87109375 6.58984375 1.87109375 7.9375 4.4375 C10.71526881 9.49520373 13.76368286 14.22257946 17 19 C20.3 15.04 23.6 11.08 27 7 C27.66 7.33 28.32 7.66 29 8 C28.67 8.99 28.34 9.98 28 11 C27.34 11 26.68 11 26 11 C25.896875 11.598125 25.79375 12.19625 25.6875 12.8125 C24.90175967 15.31258286 24.03081147 16.37535082 22 18 C21.34 18 20.68 18 20 18 C20 18.99 20 19.98 20 21 C19.34 21 18.68 21 18 21 C18 21.66 18 22.32 18 23 C17.34 23 16.68 23 16 23 C16 24.32 16 25.64 16 27 C15.34 27 14.68 27 14 27 C14 26.34 14 25.68 14 25 C13.34 25 12.68 25 12 25 C11.46890625 23.91460937 10.9378125 22.82921875 10.390625 21.7109375 C9.6773009 20.26551761 8.96374699 18.82021111 8.25 17.375 C7.90195313 16.66214844 7.55390625 15.94929688 7.1953125 15.21484375 C5.54357557 11.88078216 3.87291956 8.71346863 1.734375 5.6640625 C0 3 0 3 0 0 Z " fill="#E0964F" transform="translate(91,53)"/>
<path d="M0 0 C2.35125 -0.061875 4.7025 -0.12375 7.125 -0.1875 C7.85348145 -0.21481201 8.58196289 -0.24212402 9.33251953 -0.27026367 C13.97740191 -0.32884437 17.11546336 0.4576092 21 3 C21.97636076 6.18944514 22.51413749 7.97172501 21 11 C20.01 10.67 19.02 10.34 18 10 C18 8.35 18 6.7 18 5 C14.99221479 3.99740493 12.46179353 3.69685358 9.3125 3.4375 C7.559375 3.293125 5.80625 3.14875 4 3 C4 9.93 4 16.86 4 24 C2.68 24 1.36 24 0 24 C0 16.08 0 8.16 0 0 Z " fill="#D58B4C" transform="translate(113,123)"/>
<path d="M0 0 C1.65 0 3.3 0 5 0 C5.13530844 3.06398451 5.2342407 6.12197126 5.3125 9.1875 C5.35439453 10.05181641 5.39628906 10.91613281 5.43945312 11.80664062 C5.52644245 16.34748338 5.50731098 18.33633187 2.66796875 22.05078125 C-1.56731227 25.1450788 -5.84685393 25.79837474 -11 25 C-13.5 23 -13.5 23 -15 21 C-11.25 19.875 -11.25 19.875 -9 21 C-6 21.25 -6 21.25 -3 21 C-0.6031335 18.6031335 -0.71718867 17.92971686 -0.5859375 14.6484375 C-0.54726562 13.79765625 -0.50859375 12.946875 -0.46875 12.0703125 C-0.4378125 11.18085938 -0.406875 10.29140625 -0.375 9.375 C-0.31699219 8.02921875 -0.31699219 8.02921875 -0.2578125 6.65625 C-0.16340643 4.4377073 -0.07783252 2.21917597 0 0 Z " fill="#D2995E" transform="translate(155,123)"/>
<path d="M0 0 C0 0.99 0 1.98 0 3 C-0.61488281 3.19335938 -1.22976562 3.38671875 -1.86328125 3.5859375 C-3.07564453 3.97652344 -3.07564453 3.97652344 -4.3125 4.375 C-5.11300781 4.63023438 -5.91351563 4.88546875 -6.73828125 5.1484375 C-13.33915073 7.63373896 -15.42151581 13.62201257 -18.1875 19.625 C-19.54009355 22.72800873 -20.56367066 25.61844765 -21 29 C-23.3125 29.25 -23.3125 29.25 -26 29 C-28.7772785 26.32191002 -29.47755558 23.76159981 -30 20 C-29.34 20 -28.68 20 -28 20 C-27.34 21.32 -26.68 22.64 -26 24 C-25.34 24 -24.68 24 -24 24 C-24 24.66 -24 25.32 -24 26 C-23.34 26 -22.68 26 -22 26 C-22 24.68 -22 23.36 -22 22 C-23.32 21.67 -24.64 21.34 -26 21 C-25.67 19.35 -25.34 17.7 -25 16 C-24.67 16.66 -24.34 17.32 -24 18 C-24.33 18.66 -24.66 19.32 -25 20 C-24.34 20 -23.68 20 -23 20 C-21.92040428 17.87038652 -20.87879307 15.73462062 -19.88671875 13.5625 C-16.94536446 7.27739115 -14.60498793 3.5020783 -8 0.75 C-5.18353499 0.04588375 -2.88519369 -0.16971728 0 0 Z " fill="#D39A62" transform="translate(149,82)"/>
<path d="M0 0 C0 3 0 3 -1 5 C-1.99 5 -2.98 5 -4 5 C-4.33 6.32 -4.66 7.64 -5 9 C-5 8.34 -5 7.68 -5 7 C-7.54250021 7.11474466 -10.08347338 7.2414697 -12.625 7.375 C-13.33785156 7.4059375 -14.05070312 7.436875 -14.78515625 7.46875 C-19.17152608 7.71020155 -22.8594834 8.39342731 -27 10 C-27 10.66 -27 11.32 -27 12 C-27.7425 12.721875 -28.485 13.44375 -29.25 14.1875 C-33.06450483 18.08869812 -36.11631978 22.47699862 -37 28 C-37.99 27.67 -38.98 27.34 -40 27 C-38.93911885 19.51872122 -34.63900787 12.30913189 -29 7.375 C-22.60739655 4.44505675 -16.97196878 3.72106154 -10.0625 3.875 C-9.28326172 3.88402344 -8.50402344 3.89304687 -7.70117188 3.90234375 C-5.80064553 3.92566309 -3.90027992 3.96152414 -2 4 C-1.34 2.68 -0.68 1.36 0 0 Z " fill="#FADFAE" transform="translate(159,68)"/>
<path d="M0 0 C0.73605469 0.01353516 1.47210938 0.02707031 2.23046875 0.04101562 C4.02896743 0.07605131 5.82708422 0.12984712 7.625 0.1875 C7.295 1.1775 6.965 2.1675 6.625 3.1875 C5.74457031 3.29707031 4.86414063 3.40664062 3.95703125 3.51953125 C2.79558594 3.67808594 1.63414062 3.83664063 0.4375 4 C-0.71105469 4.15082031 -1.85960937 4.30164063 -3.04296875 4.45703125 C-6.40662721 5.19443352 -8.51393328 6.33263437 -11.375 8.1875 C-12.035 8.1875 -12.695 8.1875 -13.375 8.1875 C-13.6225 8.88875 -13.87 9.59 -14.125 10.3125 C-15.53588026 13.55752459 -17.35395398 16.29066737 -19.375 19.1875 C-19.705 18.1975 -20.035 17.2075 -20.375 16.1875 C-21.035 16.1875 -21.695 16.1875 -22.375 16.1875 C-22.375 16.8475 -22.375 17.5075 -22.375 18.1875 C-23.035 17.8575 -23.695 17.5275 -24.375 17.1875 C-23.28130138 15.36866422 -22.17468608 13.55759022 -21.0625 11.75 C-20.14017578 10.23599609 -20.14017578 10.23599609 -19.19921875 8.69140625 C-17.375 6.1875 -17.375 6.1875 -14.375 5.1875 C-14.375 4.5275 -14.375 3.8675 -14.375 3.1875 C-9.35513301 0.17082915 -5.66176196 -0.19964622 0 0 Z " fill="#D39359" transform="translate(146.375,74.8125)"/>
<path d="M0 0 C0.66 0 1.32 0 2 0 C2.67154933 1.28913487 3.33708859 2.58140204 4 3.875 C4.37125 4.59429687 4.7425 5.31359375 5.125 6.0546875 C6 8 6 8 6 10 C2.04 10 -1.92 10 -6 10 C-6 10.66 -6 11.32 -6 12 C-1.38 12 3.24 12 8 12 C8 12.33 8 12.66 8 13 C3.38 13 -1.24 13 -6 13 C-6.33 13.99 -6.66 14.98 -7 16 C-7.66 16 -8.32 16 -9 16 C-9 16.99 -9 17.98 -9 19 C-10.65 19 -12.3 19 -14 19 C-13.45865928 15.10234681 -12.39582337 13.06665391 -10 10 C-9.28837557 8.35202764 -8.60968047 6.68834592 -8 5 C-7.67 5.66 -7.34 6.32 -7 7 C-7.33 7.66 -7.66 8.32 -8 9 C-4.45031266 7.81677089 -4.20689574 7.08247613 -2.4375 3.9375 C-1.18359375 1.71484375 -1.18359375 1.71484375 0 0 Z " fill="#F1B67A" transform="translate(179,128)"/>
<path d="M0 0 C6.6 0 13.2 0 20 0 C20 0.33 20 0.66 20 1 C17.69 1 15.38 1 13 1 C13 1.66 13 2.32 13 3 C14.32 3 15.64 3 17 3 C17 3.66 17 4.32 17 5 C16.01 5 15.02 5 14 5 C14 5.66 14 6.32 14 7 C15.98 7 17.96 7 20 7 C20 7.33 20 7.66 20 8 C18.88625 8.268125 17.7725 8.53625 16.625 8.8125 C12.78159049 9.65809019 12.78159049 9.65809019 11 13 C10.01 13.495 10.01 13.495 9 14 C8.01 12.68 7.02 11.36 6 10 C6.66 10 7.32 10 8 10 C8 9.34 8 8.68 8 8 C7.34 8 6.68 8 6 8 C5.67 7.34 5.34 6.68 5 6 C4.01 5.67 3.02 5.34 2 5 C2 5.99 2 6.98 2 8 C1.34 8 0.68 8 0 8 C0 5.36 0 2.72 0 0 Z " fill="#F5F5F5" transform="translate(48,154)"/>
<path d="M0 0 C0.33 0 0.66 0 1 0 C1 1.65 1 3.3 1 5 C2.65 5 4.3 5 6 5 C6 6.32 6 7.64 6 9 C6.99 9.66 7.98 10.32 9 11 C7.02 11 5.04 11 3 11 C3 11.66 3 12.32 3 13 C3.99 13 4.98 13 6 13 C6 13.66 6 14.32 6 15 C5.01 15 4.02 15 3 15 C3 15.66 3 16.32 3 17 C4.98 17 6.96 17 9 17 C9 17.33 9 17.66 9 18 C6.14501278 18.23401535 3.79722422 18.41848236 1 18 C-1.0625 16.0625 -1.0625 16.0625 -2 13 C-1.96028794 8.53636446 -1.13213793 4.30407609 0 0 Z M-3 9 C-3 10.98 -3 12.96 -3 15 C-2.34 15.33 -1.68 15.66 -1 16 C-1.33 16.66 -1.66 17.32 -2 18 C-2.99 18 -3.98 18 -5 18 C-5.33 16.02 -5.66 14.04 -6 12 C-7.32 12 -8.64 12 -10 12 C-10 13.98 -10 15.96 -10 18 C-10.66 18 -11.32 18 -12 18 C-12 15.69 -12 13.38 -12 11 C-12.99 10.67 -13.98 10.34 -15 10 C-13.56496445 9.63597631 -12.12683494 9.28413409 -10.6875 8.9375 C-9.88699219 8.74027344 -9.08648437 8.54304687 -8.26171875 8.33984375 C-6 8 -6 8 -3 9 Z " fill="#FCF9F0" transform="translate(111,144)"/>
<path d="M0 0 C0.66 0.66 1.32 1.32 2 2 C-0.7978457 4.7978457 -3.5597967 4.37836805 -7.3125 4.5 C-12.06594275 4.68622694 -15.65281501 5.09185508 -20 7 C-20.99 7 -21.98 7 -23 7 C-23.33 7.99 -23.66 8.98 -24 10 C-25.65 10 -27.3 10 -29 10 C-28.67 8.68 -28.34 7.36 -28 6 C-26.35 5.67 -24.7 5.34 -23 5 C-23 4.01 -23 3.02 -23 2 C-15.51585478 -0.44380252 -7.81441494 -0.64960907 0 0 Z " fill="#F48124" transform="translate(155,66)"/>
<path d="M0 0 C0 2.64 0 5.28 0 8 C1.98 8 3.96 8 6 8 C6 8.33 6 8.66 6 9 C1.71 9 -2.58 9 -7 9 C-7 8.34 -7 7.68 -7 7 C-8.65 7 -10.3 7 -12 7 C-12 7.66 -12 8.32 -12 9 C-12.66 9 -13.32 9 -14 9 C-13.66442953 0.9966443 -13.66442953 0.9966443 -11.5 -2.25 C-7.36634149 -3.49009755 -3.86484926 -1.61035386 0 0 Z " fill="#D2D3D2" transform="translate(84,153)"/>
<path d="M0 0 C0.33 0.66 0.66 1.32 1 2 C-0.98 2.33 -2.96 2.66 -5 3 C-4.67 3.66 -4.34 4.32 -4 5 C-5.39025391 5.27263672 -5.39025391 5.27263672 -6.80859375 5.55078125 C-8.00613281 5.80214844 -9.20367187 6.05351563 -10.4375 6.3125 C-12.22994141 6.67794922 -12.22994141 6.67794922 -14.05859375 7.05078125 C-15.02925781 7.36402344 -15.99992188 7.67726563 -17 8 C-17.33 8.99 -17.66 9.98 -18 11 C-18.66 11 -19.32 11 -20 11 C-20.226875 12.010625 -20.45375 13.02125 -20.6875 14.0625 C-21.93397876 18.4565618 -24.12184173 21.47425613 -27 25 C-27.66 25 -28.32 25 -29 25 C-27.6669796 17.149991 -24.20302888 10.09768981 -18.44140625 4.48046875 C-13.1109682 0.93127434 -6.20244572 0.70885094 0 0 Z " fill="#FBE0B1" transform="translate(153,77)"/>
<path d="M0 0 C1.65 0 3.3 0 5 0 C5 7.92 5 15.84 5 24 C3.35 24 1.7 24 0 24 C0 16.08 0 8.16 0 0 Z " fill="#DB8F4D" transform="translate(100,123)"/>
<path d="M0 0 C0.99386719 0.02707031 1.98773438 0.05414063 3.01171875 0.08203125 C4.15060547 0.13423828 4.15060547 0.13423828 5.3125 0.1875 C5.3125 0.8475 5.3125 1.5075 5.3125 2.1875 C6.6325 1.8575 7.9525 1.5275 9.3125 1.1875 C9.3125 2.1775 9.3125 3.1675 9.3125 4.1875 C8.9825 4.5175 8.6525 4.8475 8.3125 5.1875 C9.6325 5.1875 10.9525 5.1875 12.3125 5.1875 C11.6525 7.8275 10.9925 10.4675 10.3125 13.1875 C10.9725 13.5175 11.6325 13.8475 12.3125 14.1875 C11.6525 14.8475 10.9925 15.5075 10.3125 16.1875 C9.33086578 14.25124902 8.35227546 12.31345461 7.375 10.375 C6.82972656 9.29605469 6.28445312 8.21710938 5.72265625 7.10546875 C4.3125 4.1875 4.3125 4.1875 3.3125 1.1875 C1.3325 1.1875 -0.6475 1.1875 -2.6875 1.1875 C-2.935 1.88875 -3.1825 2.59 -3.4375 3.3125 C-4.6875 6.1875 -4.6875 6.1875 -6.625 9.0625 C-8.81469366 12.38021766 -10.21601049 15.50877622 -11.6875 19.1875 C-13.1176492 15.38293642 -12.22542878 12.89079177 -10.9375 9.125 C-10.59203125 8.08214844 -10.2465625 7.03929687 -9.890625 5.96484375 C-7.57934532 0.62938968 -5.78308446 -0.20410886 0 0 Z " fill="#FCEFD6" transform="translate(179.6875,121.8125)"/>
<path d="M0 0 C4.94791294 -0.0246826 9.8957902 -0.04285166 14.84375 -0.05493164 C16.52767562 -0.05996653 18.21159686 -0.06679481 19.89550781 -0.07543945 C22.31316203 -0.08754196 24.73075856 -0.09323668 27.1484375 -0.09765625 C27.9036972 -0.10281754 28.65895691 -0.10797882 29.43710327 -0.11329651 C34.77225659 -0.11387171 34.77225659 -0.11387171 37 1 C36.75 4.375 36.75 4.375 36 8 C34 9.25 34 9.25 32 10 C31.67 10.99 31.34 11.98 31 13 C30.01 13 29.02 13 28 13 C27.66269158 14.43657245 27.33030409 15.87430093 27 17.3125 C26.814375 18.11300781 26.62875 18.91351563 26.4375 19.73828125 C25.90504177 22.10695938 25.90504177 22.10695938 26 25 C24.02 25.66 22.04 26.32 20 27 C20.33 25.02 20.66 23.04 21 21 C21.99 21 22.98 21 24 21 C24.66 17.7 25.32 14.4 26 11 C27.32 10.67 28.64 10.34 30 10 C31.32 7.03 32.64 4.06 34 1 C22.78 1 11.56 1 0 1 C0 0.67 0 0.34 0 0 Z " fill="#FAF5E2" transform="translate(134,52)"/>
<path d="M0 0 C0.99 0.33 1.98 0.66 3 1 C3 1.66 3 2.32 3 3 C5.31 3 7.62 3 10 3 C8.68 3.33 7.36 3.66 6 4 C6 6.64 6 9.28 6 12 C5.01 12.495 5.01 12.495 4 13 C4 12.34 4 11.68 4 11 C0.7 11 -2.6 11 -6 11 C-6 8.36 -6 5.72 -6 3 C-4.02 2.67 -2.04 2.34 0 2 C0 1.34 0 0.68 0 0 Z " fill="#F1F2F0" transform="translate(187,151)"/>
<path d="M0 0 C1.60157425 2.03836723 2.90494913 3.7440938 3.8125 6.1875 C4.94236333 8.36374675 4.94236333 8.36374675 8.125 8.75 C9.07375 8.8325 10.0225 8.915 11 9 C11.0825 8.443125 11.165 7.88625 11.25 7.3125 C12.22610013 4.30285794 13.95188814 2.37845248 16 0 C16.05422947 1.4370809 16.09289723 2.87475462 16.125 4.3125 C16.14820312 5.11300781 16.17140625 5.91351563 16.1953125 6.73828125 C16 9 16 9 14 12 C13.34 12 12.68 12 12 12 C12 12.66 12 13.32 12 14 C9.13536054 14.81846842 7.24992893 15.05231071 4.3125 14.4375 C2 13 2 13 0.6875 10.3125 C-0.04501766 6.78309671 -0.14379461 3.59486524 0 0 Z " fill="#FEF8E7" transform="translate(72,138)"/>
<path d="M0 0 C0.33 1.65 0.66 3.3 1 5 C0.01 5.66 -0.98 6.32 -2 7 C-2.309375 7.845625 -2.61875 8.69125 -2.9375 9.5625 C-3.288125 10.366875 -3.63875 11.17125 -4 12 C-6.125 12.8125 -6.125 12.8125 -8 13 C-8 11.68 -8 10.36 -8 9 C-9.65 8.67 -11.3 8.34 -13 8 C-12.67 7.34 -12.34 6.68 -12 6 C-9.03 6.495 -9.03 6.495 -6 7 C-6 6.34 -6 5.68 -6 5 C-8.31 5 -10.62 5 -13 5 C-13 3.35 -13 1.7 -13 0 C-11.58456585 -0.19658808 -10.16755969 -0.38187546 -8.75 -0.5625 C-7.96109375 -0.66691406 -7.1721875 -0.77132812 -6.359375 -0.87890625 C-3.99467126 -1.00027349 -2.2488963 -0.69633257 0 0 Z " fill="#F4F6F6" transform="translate(136,154)"/>
<path d="M0 0 C1.79133978 -0.05391993 3.58313899 -0.09275571 5.375 -0.125 C6.37273437 -0.14820312 7.37046875 -0.17140625 8.3984375 -0.1953125 C11 0 11 0 13 2 C13.125 4.625 13.125 4.625 13 7 C10.35541621 8.32229189 8.32238699 8.09677194 5.375 8.0625 C4.37210937 8.05347656 3.36921875 8.04445312 2.3359375 8.03515625 C1.56507812 8.02355469 0.79421875 8.01195312 0 8 C0 5.36 0 2.72 0 0 Z " fill="#FBFCE9" transform="translate(117,126)"/>
<path d="M0 0 C-0.33 0.66 -0.66 1.32 -1 2 C-2.01835937 2.01981934 -3.03671875 2.03963867 -4.0859375 2.06005859 C-7.89557949 2.13663117 -11.70486499 2.22526507 -15.51416016 2.31738281 C-17.15699175 2.35546062 -18.79990071 2.39034888 -20.44287109 2.421875 C-22.8163604 2.46799015 -25.1893267 2.52590261 -27.5625 2.5859375 C-28.28679199 2.59748871 -29.01108398 2.60903992 -29.75732422 2.62094116 C-34.7638078 2.76302678 -39.17522022 3.64659229 -44 5 C-43.34 3.35 -42.68 1.7 -42 0 C-36.34017703 -0.16740321 -30.68021782 -0.32798446 -25.02001953 -0.48217773 C-23.09353392 -0.53562804 -21.16709958 -0.59095971 -19.24072266 -0.64819336 C-16.4756984 -0.73001986 -13.71056186 -0.80513291 -10.9453125 -0.87890625 C-10.0806839 -0.90594131 -9.2160553 -0.93297638 -8.32522583 -0.96083069 C-2.22774341 -1.11387171 -2.22774341 -1.11387171 0 0 Z " fill="#FBFAE6" transform="translate(170,50)"/>
<path d="M0 0 C0.97646484 0.00322266 1.95292969 0.00644531 2.95898438 0.00976562 C3.96638672 0.01814453 4.97378906 0.02652344 6.01171875 0.03515625 C7.03845703 0.03966797 8.06519531 0.04417969 9.12304688 0.04882812 C11.64849757 0.06057441 14.1738278 0.0770006 16.69921875 0.09765625 C16.08644263 3.05940748 15.44549353 4.47824408 13.69921875 7.09765625 C10.93330303 7.43372988 8.34692723 7.6106436 5.57421875 7.66015625 C-0.36346134 7.80078552 -5.56957783 8.47966345 -11.30078125 10.09765625 C-11.30078125 9.43765625 -11.30078125 8.77765625 -11.30078125 8.09765625 C-3.84936968 4.6000549 3.61292611 4.40299803 11.69921875 4.09765625 C11.69921875 3.43765625 11.69921875 2.77765625 11.69921875 2.09765625 C3.28729838 1.99671321 -4.94477717 1.99662983 -13.30078125 3.09765625 C-8.95076435 0.19764498 -5.14105485 -0.03006465 0 0 Z " fill="#D79656" transform="translate(143.30078125,64.90234375)"/>
<path d="M0 0 C2.25 0.0625 2.25 0.0625 5 1 C7.58029503 4.83358119 9.41933089 8.65315995 11 13 C8.6875 13.3125 8.6875 13.3125 6 13 C4.18116991 10.6167054 3 9.04181663 3 6 C-1.62 6 -6.24 6 -11 6 C-11 5.34 -11 4.68 -11 4 C-7.04 4 -3.08 4 1 4 C0.67 2.68 0.34 1.36 0 0 Z " fill="#D68F4C" transform="translate(184,134)"/>
<path d="M0 0 C0 0.66 0 1.32 0 2 C-0.99 2 -1.98 2 -3 2 C-3 2.66 -3 3.32 -3 4 C-2.01 4.33 -1.02 4.66 0 5 C-1.299375 5.7425 -1.299375 5.7425 -2.625 6.5 C-7.45812376 9.702949 -11.17187238 14.51561714 -13 20 C-13.99 20.33 -14.98 20.66 -16 21 C-16.68359375 19.30078125 -16.68359375 19.30078125 -17 17 C-14.29065954 11.51702965 -6.86172095 0 0 0 Z " fill="#F9E0B4" transform="translate(130,64)"/>
<path d="M0 0 C0.81700882 0.00141495 1.63401764 0.0028299 2.4757843 0.00428772 C5.08415393 0.00988331 7.69243759 0.02243496 10.30078125 0.03515625 C12.06966022 0.04017182 13.83854053 0.04473463 15.60742188 0.04882812 C19.94274144 0.05985129 24.27799677 0.07711287 28.61328125 0.09765625 C28.28328125 1.41765625 27.95328125 2.73765625 27.61328125 4.09765625 C26.95328125 3.76765625 26.29328125 3.43765625 25.61328125 3.09765625 C25.61328125 2.43765625 25.61328125 1.77765625 25.61328125 1.09765625 C21.55023571 1.20779501 17.48809458 1.3383649 13.42578125 1.47265625 C11.70004883 1.5190625 11.70004883 1.5190625 9.93945312 1.56640625 C8.82763672 1.60507812 7.71582031 1.64375 6.5703125 1.68359375 C5.5491333 1.71501465 4.5279541 1.74643555 3.47583008 1.77880859 C0.5173605 2.10834047 -1.67365621 2.91002993 -4.38671875 4.09765625 C-6.41806772 4.52503097 -8.46130084 4.89890605 -10.51171875 5.22265625 C-12.06246094 5.47402344 -12.06246094 5.47402344 -13.64453125 5.73046875 C-16.38671875 6.09765625 -16.38671875 6.09765625 -19.38671875 6.09765625 C-18.11840182 5.28123371 -16.84695944 4.4696652 -15.57421875 3.66015625 C-14.86652344 3.20769531 -14.15882812 2.75523438 -13.4296875 2.2890625 C-9.05418281 -0.26261805 -4.9038982 -0.03188329 0 0 Z " fill="#CF9356" transform="translate(139.38671875,52.90234375)"/>
<path d="M0 0 C1.32 0.66 2.64 1.32 4 2 C4 2.99 4 3.98 4 5 C5.32 5.33 6.64 5.66 8 6 C6.92598892 8.91517292 6.22189824 10.77810176 4 13 C1.17875799 13.36169769 -0.36656913 13.42982809 -2.75 11.8125 C-4 10 -4 10 -5 5 C-8.63 4.67 -12.26 4.34 -16 4 C-16 3.67 -16 3.34 -16 3 C-14.06440687 2.86495862 -12.126128 2.76798871 -10.1875 2.6875 C-9.10855469 2.62949219 -8.02960938 2.57148438 -6.91796875 2.51171875 C-5.95503906 2.67285156 -4.99210938 2.83398438 -4 3 C-2.36328125 5.51953125 -2.36328125 5.51953125 -1 8 C0.32 8 1.64 8 3 8 C2.01 5.36 1.02 2.72 0 0 Z " fill="#FEF3DB" transform="translate(191,138)"/>
<path d="M0 0 C2.64 0 5.28 0 8 0 C7.67 0.66 7.34 1.32 7 2 C5.35 2 3.7 2 2 2 C1.43410156 3.13179688 0.86820313 4.26359375 0.28515625 5.4296875 C-2.14322917 10.28645833 -4.57161458 15.14322917 -7 20 C-7.66 20 -8.32 20 -9 20 C-9.83819158 18.37750059 -10.6704116 16.75191503 -11.5 15.125 C-11.9640625 14.22007812 -12.428125 13.31515625 -12.90625 12.3828125 C-14 10 -14 10 -14 8 C-13.01 8 -12.02 8 -11 8 C-10.67 9.98 -10.34 11.96 -10 14 C-9.01 14 -8.02 14 -7 14 C-6.67 12.35 -6.34 10.7 -6 9 C-5.34 9 -4.68 9 -4 9 C-3.67 8.01 -3.34 7.02 -3 6 C-2.01577854 3.99218823 -1.01765927 1.99107248 0 0 Z " fill="#FBEED5" transform="translate(88,122)"/>
<path d="M0 0 C0.33 0.66 0.66 1.32 1 2 C1.99 2 2.98 2 4 2 C4 4.97 4 7.94 4 11 C0.16380575 11.95904856 -1.32431536 11.91892116 -5 11 C-6 8 -6 8 -4.75 4.9375 C-3 2 -3 2 0 0 Z " fill="#E6E8E6" transform="translate(90,152)"/>
<path d="M0 0 C6.15234375 -0.09765625 6.15234375 -0.09765625 8 0 C9 1 9 1 9.125 4 C9 7 9 7 8 8 C5.32941149 8.14115161 2.67567762 8.04247107 0 8 C0 5.36 0 2.72 0 0 Z " fill="#979594" transform="translate(199,154)"/>
<path d="M0 0 C0.33 0.66 0.66 1.32 1 2 C0.67 2.66 0.34 3.32 0 4 C0.66 4 1.32 4 2 4 C2.66 2.68 3.32 1.36 4 0 C4.33 0.66 4.66 1.32 5 2 C5.66 2 6.32 2 7 2 C6.01 5.63 5.02 9.26 4 13 C-1 13 -1 13 -2.75 11.3125 C-4.08182447 8.84862472 -4.61629106 6.76270435 -5 4 C-4.34 4 -3.68 4 -3 4 C-2.34 5.32 -1.68 6.64 -1 8 C-0.34 8 0.32 8 1 8 C1 8.66 1 9.32 1 10 C1.66 10 2.32 10 3 10 C3 8.68 3 7.36 3 6 C1.68 5.67 0.36 5.34 -1 5 C-0.67 3.35 -0.34 1.7 0 0 Z " fill="#E0A568" transform="translate(124,98)"/>
<path d="M0 0 C1.98 0 3.96 0 6 0 C6.33 0.99 6.66 1.98 7 3 C5.35 3 3.7 3 2 3 C2 10.92 2 18.84 2 27 C1.34 27 0.68 27 0 27 C0 18.09 0 9.18 0 0 Z " fill="#FDEEC9" transform="translate(98,120)"/>
<path d="M0 0 C0.99 0.33 1.98 0.66 3 1 C2.67 2.65 2.34 4.3 2 6 C1.06027344 6.16435547 1.06027344 6.16435547 0.1015625 6.33203125 C-1.12433594 6.56986328 -1.12433594 6.56986328 -2.375 6.8125 C-3.59316406 7.03873047 -3.59316406 7.03873047 -4.8359375 7.26953125 C-7.35820641 7.87544942 -7.35820641 7.87544942 -9 11 C-10.32 11 -11.64 11 -13 11 C-12.9375 9.25 -12.9375 9.25 -12 7 C-7.90850818 4.16742874 -5.10170244 2.38161182 0 3 C0 2.01 0 1.02 0 0 Z " fill="#FDF0C9" transform="translate(149,82)"/>
<path d="M0 0 C0.495 1.485 0.495 1.485 1 3 C0.1028125 3.01458252 -0.794375 3.02916504 -1.71875 3.04418945 C-5.081307 3.1056308 -8.44309703 3.1798513 -11.80517578 3.26245117 C-13.25396281 3.29548803 -14.70287199 3.32358455 -16.15185547 3.34643555 C-29.79741474 3.31477027 -29.79741474 3.31477027 -41.5 9.6875 C-42.325 10.450625 -43.15 11.21375 -44 12 C-43.6875 10.0625 -43.6875 10.0625 -43 8 C-42.01 7.67 -41.02 7.34 -40 7 C-40 6.01 -40 5.02 -40 4 C-31.6524725 1.63098102 -23.52598948 1.77108722 -14.9375 1.875 C-13.48503222 1.88505168 -12.0325577 1.89417365 -10.58007812 1.90234375 C-7.05324318 1.92417983 -3.5266658 1.95858851 0 2 C0 1.34 0 0.68 0 0 Z " fill="#DC9758" transform="translate(164,59)"/>
<path d="M0 0 C0.66 0 1.32 0 2 0 C2 6.6 2 13.2 2 20 C0.68 20.33 -0.64 20.66 -2 21 C-1.86179731 17.6871348 -1.71316222 14.37482011 -1.5625 11.0625 C-1.52318359 10.11697266 -1.48386719 9.17144531 -1.44335938 8.19726562 C-1.40146484 7.29814453 -1.35957031 6.39902344 -1.31640625 5.47265625 C-1.27974854 4.64000244 -1.24309082 3.80734863 -1.20532227 2.94946289 C-1 1 -1 1 0 0 Z " fill="#E18A3B" transform="translate(157,124)"/>
<path d="M0 0 C2.56278699 -0.05420701 5.12441483 -0.09377007 7.6875 -0.125 C8.40873047 -0.14175781 9.12996094 -0.15851563 9.87304688 -0.17578125 C14.1027543 -0.21440872 17.15259133 0.30114422 21 2 C21.66 1.67 22.32 1.34 23 1 C23 5.29 23 9.58 23 14 C21.68 14.33 20.36 14.66 19 15 C19.33 16.32 19.66 17.64 20 19 C19.34 19 18.68 19 18 19 C17.25 16.75 17.25 16.75 17 14 C18.33333333 12.66666667 19.66666667 11.33333333 21 10 C21.33448259 6.832168 21.33448259 6.832168 21 4 C16.37025009 2.22598368 12.03955157 1.60358379 7.125 1.375 C6.43664062 1.33632812 5.74828125 1.29765625 5.0390625 1.2578125 C3.35976754 1.16451834 1.67992233 1.08121762 0 1 C0 0.67 0 0.34 0 0 Z " fill="#FBDFB5" transform="translate(113,122)"/>
<path d="M0 0 C1.65 0 3.3 0 5 0 C3.31326082 4.49797113 1.18326108 8.72886302 -1 13 C-1.33 12.01 -1.66 11.02 -2 10 C-2.66 10 -3.32 10 -4 10 C-4.33 10.99 -4.66 11.98 -5 13 C-5.33 12.34 -5.66 11.68 -6 11 C-4.78515625 8.3984375 -4.78515625 8.3984375 -3.0625 5.375 C-2.21365234 3.87066406 -2.21365234 3.87066406 -1.34765625 2.3359375 C-0.90292969 1.56507812 -0.45820312 0.79421875 0 0 Z " fill="#D29553" transform="translate(90,123)"/>
<path d="M0 0 C-0.33 0.99 -0.66 1.98 -1 3 C-1.65355469 2.67257813 -2.30710938 2.34515625 -2.98046875 2.0078125 C-6.79757696 0.73379708 -10.34455199 0.78352226 -14.3125 0.875 C-16.849375 0.91625 -19.38625 0.9575 -22 1 C-22.33 7.93 -22.66 14.86 -23 22 C-23.33 22 -23.66 22 -24 22 C-24 14.41 -24 6.82 -24 -1 C-21.15375 -1.20625 -18.3075 -1.4125 -15.375 -1.625 C-14.48989746 -1.69541504 -13.60479492 -1.76583008 -12.69287109 -1.83837891 C-7.98122581 -2.13849046 -4.43993032 -1.88230055 0 0 Z " fill="#FEF8DF" transform="translate(135,122)"/>
<path d="M0 0 C0.33 0.99 0.66 1.98 1 3 C-0.65 3 -2.3 3 -4 3 C-4 9.27 -4 15.54 -4 22 C-4.66 22.33 -5.32 22.66 -6 23 C-6 15.74 -6 8.48 -6 1 C-4 0 -4 0 0 0 Z " fill="#FDEDCB" transform="translate(159,120)"/>
<path d="M0 0 C0.66 0 1.32 0 2 0 C5 5.625 5 5.625 5 9 C2.36 9 -0.28 9 -3 9 C-2.25 2.25 -2.25 2.25 0 0 Z " fill="#FADEAA" transform="translate(179,128)"/>
<path d="M0 0 C1.31484375 -0.01417969 2.6296875 -0.02835937 3.984375 -0.04296875 C7.25 0.1875 7.25 0.1875 9.25 2.1875 C7.25 4.1875 7.25 4.1875 3.9921875 4.3828125 C2.71601563 4.35960938 1.43984375 4.33640625 0.125 4.3125 C-1.79699219 4.28542969 -1.79699219 4.28542969 -3.7578125 4.2578125 C-5.23894531 4.22300781 -5.23894531 4.22300781 -6.75 4.1875 C-6.75 3.8575 -6.75 3.5275 -6.75 3.1875 C-9.06 2.8575 -11.37 2.5275 -13.75 2.1875 C-13.75 1.8575 -13.75 1.5275 -13.75 1.1875 C-9.12708544 0.29019516 -4.70686059 0.02325524 0 0 Z " fill="#EC8330" transform="translate(147.75,65.8125)"/>
<path d="M0 0 C2.64 0 5.28 0 8 0 C8 2.64 8 5.28 8 8 C7.34 8 6.68 8 6 8 C5.67 7.34 5.34 6.68 5 6 C4.01 5.67 3.02 5.34 2 5 C2 5.99 2 6.98 2 8 C1.34 8 0.68 8 0 8 C0 5.36 0 2.72 0 0 Z " fill="#B1B1B1" transform="translate(48,154)"/>
<path d="M0 0 C0.144375 0.61875 0.28875 1.2375 0.4375 1.875 C0.93152225 4.03258322 0.93152225 4.03258322 2 6 C1.00390625 7.9453125 1.00390625 7.9453125 -0.4375 10.125 C-0.91058594 10.84945312 -1.38367188 11.57390625 -1.87109375 12.3203125 C-2.24363281 12.87460938 -2.61617188 13.42890625 -3 14 C-3.33 13.01 -3.66 12.02 -4 11 C-4.66 11 -5.32 11 -6 11 C-6 11.66 -6 12.32 -6 13 C-6.66 12.67 -7.32 12.34 -8 12 C-6.85573734 10.186508 -5.70954608 8.37423275 -4.5625 6.5625 C-3.60537109 5.04849609 -3.60537109 5.04849609 -2.62890625 3.50390625 C-1 1 -1 1 0 0 Z " fill="#E09B52" transform="translate(130,80)"/>
<path d="M0 0 C11.55 0 23.1 0 35 0 C36 3 36 3 35.25 5.625 C34 8 34 8 31 9 C31.309375 8.236875 31.61875 7.47375 31.9375 6.6875 C32.67893593 4.81210323 33.36228217 2.91315348 34 1 C22.78 1 11.56 1 0 1 C0 0.67 0 0.34 0 0 Z " fill="#FDE6BD" transform="translate(134,52)"/>
<path d="M0 0 C2.64 0 5.28 0 8 0 C8 2.64 8 5.28 8 8 C5.36 8 2.72 8 0 8 C0.33 7.34 0.66 6.68 1 6 C3.97 6.495 3.97 6.495 7 7 C7 6.34 7 5.68 7 5 C4.69 5 2.38 5 0 5 C0 3.35 0 1.7 0 0 Z " fill="#B1AFB0" transform="translate(123,154)"/>
<path d="M0 0 C-0.43820891 4.55737263 -0.85041169 7.57653445 -4 11 C-6.31 10.67 -8.62 10.34 -11 10 C-10.34 9.34 -9.68 8.68 -9 8 C-8.34 8.33 -7.68 8.66 -7 9 C-6.5978125 7.6078125 -6.5978125 7.6078125 -6.1875 6.1875 C-3.88235294 0 -3.88235294 0 0 0 Z " fill="#E09146" transform="translate(88,133)"/>
<path d="M0 0 C0 2.97 0 5.94 0 9 C-0.66 9 -1.32 9 -2 9 C-2.33 7.02 -2.66 5.04 -3 3 C-4.32 3 -5.64 3 -7 3 C-7 4.98 -7 6.96 -7 9 C-7.66 9 -8.32 9 -9 9 C-9 6.69 -9 4.38 -9 2 C-9.99 1.67 -10.98 1.34 -12 1 C-10.56496445 0.63597631 -9.12683494 0.28413409 -7.6875 -0.0625 C-6.88699219 -0.25972656 -6.08648437 -0.45695313 -5.26171875 -0.66015625 C-3 -1 -3 -1 0 0 Z " fill="#B4B6B8" transform="translate(108,153)"/>
<path d="M0 0 C1.60157425 2.03836723 2.90494913 3.7440938 3.8125 6.1875 C4.94236333 8.36374675 4.94236333 8.36374675 8.125 8.75 C9.07375 8.8325 10.0225 8.915 11 9 C11.12375 8.38125 11.2475 7.7625 11.375 7.125 C12 5 12 5 14 3 C14 4.32 14 5.64 14 7 C13.34 7 12.68 7 12 7 C11.67 8.32 11.34 9.64 11 11 C7.7 11 4.4 11 1 11 C0.0318352 7.1273408 -0.07622858 3.96388638 0 0 Z " fill="#FCE5C6" transform="translate(72,138)"/>
<path d="M0 0 C2.29896116 2.89869016 4 5.15093412 4 9 C5.32 9.33 6.64 9.66 8 10 C8 10.99 8 11.98 8 13 C6.02 13 4.04 13 2 13 C0.68 10.36 -0.64 7.72 -2 5 C-1.34 5 -0.68 5 0 5 C0 3.35 0 1.7 0 0 Z " fill="#D89458" transform="translate(75,134)"/>
<path d="M0 0 C0.33 0.66 0.66 1.32 1 2 C2.32 1.67 3.64 1.34 5 1 C5 1.99 5 2.98 5 4 C4.67 4.33 4.34 4.66 4 5 C5.32 5 6.64 5 8 5 C7.34 7.64 6.68 10.28 6 13 C6.66 13.33 7.32 13.66 8 14 C7.34 14.66 6.68 15.32 6 16 C4.9901527 14.08850332 3.99245505 12.17058431 3 10.25 C2.443125 9.18265625 1.88625 8.1153125 1.3125 7.015625 C0 4 0 4 0 0 Z " fill="#F8FAEA" transform="translate(184,122)"/>
<path d="M0 0 C0.25 7.625 0.25 7.625 -2 11 C-2 9.68 -2 8.36 -2 7 C-2.66 7 -3.32 7 -4 7 C-4.33 8.32 -4.66 9.64 -5 11 C-6.1577506 7.52674819 -6.06866652 4.63932552 -6 1 C-3.92446352 0.4465236 -2.15634036 0 0 0 Z " fill="#F4F5F5" transform="translate(199,154)"/>
<path d="M0 0 C0.33 0 0.66 0 1 0 C1.02908357 3.41664873 1.04682691 6.8332655 1.0625 10.25 C1.07087891 11.21808594 1.07925781 12.18617188 1.08789062 13.18359375 C1.09111328 14.11816406 1.09433594 15.05273438 1.09765625 16.015625 C1.10289307 16.87446289 1.10812988 17.73330078 1.11352539 18.61816406 C1 21 1 21 0 25 C-6.435 25.495 -6.435 25.495 -13 26 C-13 25.67 -13 25.34 -13 25 C-12.30132812 24.81824219 -11.60265625 24.63648438 -10.8828125 24.44921875 C-9.97273437 24.19785156 -9.06265625 23.94648438 -8.125 23.6875 C-6.76761719 23.32205078 -6.76761719 23.32205078 -5.3828125 22.94921875 C-2.67886681 22.13330148 -2.67886681 22.13330148 -1 19 C-0.63566627 16.87662229 -0.63566627 16.87662229 -0.5859375 14.55078125 C-0.52792969 13.27944336 -0.52792969 13.27944336 -0.46875 11.98242188 C-0.4378125 11.10134766 -0.406875 10.22027344 -0.375 9.3125 C-0.33632812 8.41982422 -0.29765625 7.52714844 -0.2578125 6.60742188 C-0.16359782 4.4051538 -0.07798412 2.20289278 0 0 Z " fill="#FCE8C5" transform="translate(160,123)"/>
<path d="M0 0 C1.54571278 2.31856917 2.79618552 4.50638429 4 7 C4.66 7 5.32 7 6 7 C6 8.32 6 9.64 6 11 C5.01 11.66 4.02 12.32 3 13 C1.80767387 15.05003955 1.80767387 15.05003955 1 17 C-0.13480527 13.39006828 -0.10015767 10.0157673 -0.0625 6.25 C-0.05347656 5.07953125 -0.04445312 3.9090625 -0.03515625 2.703125 C-0.02355469 1.81109375 -0.01195312 0.9190625 0 0 Z " fill="#FDFBEF" transform="translate(161,131)"/>
<path d="M0 0 C1.79133978 -0.05391993 3.58313899 -0.09275571 5.375 -0.125 C6.37273437 -0.14820312 7.37046875 -0.17140625 8.3984375 -0.1953125 C11 0 11 0 13 2 C13.125 4.625 13.125 4.625 13 7 C10.35541621 8.32229189 8.32238699 8.09677194 5.375 8.0625 C4.37210937 8.05347656 3.36921875 8.04445312 2.3359375 8.03515625 C1.56507812 8.02355469 0.79421875 8.01195312 0 8 C0 5.36 0 2.72 0 0 Z M1 1 C1.33 2.98 1.66 4.96 2 7 C5.41656024 7.16677282 5.41656024 7.16677282 9 7 C9.66 6.34 10.32 5.68 11 5 C11 3.68 11 2.36 11 1 C7.7 1 4.4 1 1 1 Z " fill="#FDE1B1" transform="translate(117,126)"/>
<path d="M0 0 C2.97 0 5.94 0 9 0 C7.68 0.33 6.36 0.66 5 1 C5 3.64 5 6.28 5 9 C4.01 9.495 4.01 9.495 3 10 C3 9.34 3 8.68 3 8 C0.03 8 -2.94 8 -6 8 C-6 5.69 -6 3.38 -6 1 C-5.67 1 -5.34 1 -5 1 C-5 2.98 -5 4.96 -5 7 C-2.36 7 0.28 7 3 7 C3 5.35 3 3.7 3 2 C2.01 2 1.02 2 0 2 C0 1.34 0 0.68 0 0 Z " fill="#A7A9AA" transform="translate(188,154)"/>
<path d="M0 0 C3 3.625 3 3.625 3 7 C3.66 7 4.32 7 5 7 C8 12.75 8 12.75 8 15 C7.34 15 6.68 15 6 15 C5.67 14.34 5.34 13.68 5 13 C3.35 13.33 1.7 13.66 0 14 C0.66 11.03 1.32 8.06 2 5 C1.34 5 0.68 5 0 5 C0 3.35 0 1.7 0 0 Z " fill="#F9E2C4" transform="translate(64,123)"/>
<path d="M0 0 C2.64 0 5.28 0 8 0 C8 1.65 8 3.3 8 5 C5.69 5 3.38 5 1 5 C0.67 5.99 0.34 6.98 0 8 C0 5.36 0 2.72 0 0 Z " fill="#848584" transform="translate(141,154)"/>
<path d="M0 0 C3.95431169 4.39367965 6.86631108 9.49527743 9 15 C8.67 15.66 8.34 16.32 8 17 C6.68 16.34 5.36 15.68 4 15 C4 12.69 4 10.38 4 8 C2.68 7.67 1.36 7.34 0 7 C0 4.69 0 2.38 0 0 Z " fill="#F9E2C0" transform="translate(112,92)"/>
<path d="M0 0 C1.8156735 0.06411688 3.6290486 0.20097477 5.4375 0.375 C6.42621094 0.46523437 7.41492188 0.55546875 8.43359375 0.6484375 C11 1 11 1 13 2 C13 2.66 13 3.32 13 4 C9.81225917 5.59387042 6.46072041 5.52663137 3 5 C0.5 3 0.5 3 -1 1 C-0.67 0.67 -0.34 0.34 0 0 Z " fill="#CB9358" transform="translate(141,143)"/>
<path d="M0 0 C0.598125 0.350625 1.19625 0.70125 1.8125 1.0625 C1.8125 2.3825 1.8125 3.7025 1.8125 5.0625 C1.1525 5.0625 0.4925 5.0625 -0.1875 5.0625 C-0.5175 6.3825 -0.8475 7.7025 -1.1875 9.0625 C-1.8475 8.7325 -2.5075 8.4025 -3.1875 8.0625 C-3.1875 6.7425 -3.1875 5.4225 -3.1875 4.0625 C-3.8475 4.0625 -4.5075 4.0625 -5.1875 4.0625 C-5.1875 2.7425 -5.1875 1.4225 -5.1875 0.0625 C-2.1875 -0.9375 -2.1875 -0.9375 0 0 Z " fill="#FC8017" transform="translate(112.1875,75.9375)"/>
<path d="M0 0 C0.66 0.99 1.32 1.98 2 3 C1.67 3.33 1.34 3.66 1 4 C0.95907063 6.33297433 0.95758277 8.66705225 1 11 C0.401875 11.144375 -0.19625 11.28875 -0.8125 11.4375 C-2.56150404 11.8872439 -4.28677023 12.42892341 -6 13 C-4.75696561 7.82069003 -3.14512215 4.29833361 0 0 Z " fill="#FBEBCB" transform="translate(94,125)"/>
<path d="M0 0 C0.99 0.33 1.98 0.66 3 1 C2.47731534 3.76276177 1.89130413 6.3260876 1 9 C-0.65 9 -2.3 9 -4 9 C-3.46930939 5.17902761 -2.50298434 2.93828597 0 0 Z " fill="#D89550" transform="translate(169,138)"/>
<path d="M0 0 C0.99 0.33 1.98 0.66 3 1 C2.360625 1.928125 1.72125 2.85625 1.0625 3.8125 C-1.08622093 6.84219943 -1.08622093 6.84219943 -2 10 C-2.99 10.33 -3.98 10.66 -5 11 C-5.6875 9.3125 -5.6875 9.3125 -6 7 C-4.75 4.25 -4.75 4.25 -3 2 C-2.01 2 -1.02 2 0 2 C0 1.34 0 0.68 0 0 Z " fill="#FAE6BA" transform="translate(119,74)"/>
<path d="M0 0 C-0.33 1.32 -0.66 2.64 -1 4 C-2.93697967 4.33634376 -4.87460486 4.66897165 -6.8125 5 C-8.43091797 5.2784375 -8.43091797 5.2784375 -10.08203125 5.5625 C-13 6 -13 6 -16 6 C-14.73168307 5.18357746 -13.46024069 4.37200895 -12.1875 3.5625 C-11.47980469 3.11003906 -10.77210937 2.65757813 -10.04296875 2.19140625 C-6.60586789 0.18697841 -3.90084143 -0.10542815 0 0 Z " fill="#E29E5C" transform="translate(136,53)"/>
<path d="M0 0 C-0.556875 0.268125 -1.11375 0.53625 -1.6875 0.8125 C-4.08933398 2.00699665 -4.08933398 2.00699665 -6.625 3.625 C-9 5 -9 5 -11 5 C-11 5.66 -11 6.32 -11 7 C-11.99 6.67 -12.98 6.34 -14 6 C-13.25 3.5625 -13.25 3.5625 -12 1 C-8.5059324 -0.7470338 -3.81424515 -0.06357075 0 0 Z " fill="#DA8C3E" transform="translate(144,78)"/>
<path d="M0 0 C-1.98 0.99 -1.98 0.99 -4 2 C-4 2.99 -4 3.98 -4 5 C-5.32 5 -6.64 5 -8 5 C-8 5.99 -8 6.98 -8 8 C-9.65 8 -11.3 8 -13 8 C-13 7.34 -13 6.68 -13 6 C-11.42578125 4.4921875 -11.42578125 4.4921875 -9.3125 2.875 C-8.62800781 2.33617187 -7.94351563 1.79734375 -7.23828125 1.2421875 C-4.62067341 -0.21051633 -2.94824985 -0.23751225 0 0 Z " fill="#F67F1C" transform="translate(132,58)"/>
<path d="M0 0 C2.1875 -0.5 2.1875 -0.5 5 0 C7.10353811 2.43100182 8.75029061 5.03640346 10 8 C9.67 8.66 9.34 9.32 9 10 C8.34 9.34 7.68 8.68 7 8 C7 7.01 7 6.02 7 5 C5.35 5.33 3.7 5.66 2 6 C0 3 0 3 0 0 Z " fill="#DCA571" transform="translate(91,53)"/>
<path d="M0 0 C2.64 0 5.28 0 8 0 C8 0.33 8 0.66 8 1 C6.02 1 4.04 1 2 1 C2 1.66 2 2.32 2 3 C2.99 3 3.98 3 5 3 C5 3.66 5 4.32 5 5 C4.01 5 3.02 5 2 5 C2 5.66 2 6.32 2 7 C3.98 7 5.96 7 8 7 C8 7.33 8 7.66 8 8 C5.36 8 2.72 8 0 8 C0 5.36 0 2.72 0 0 Z " fill="#98989A" transform="translate(112,154)"/>
<path d="M0 0 C1.65 0 3.3 0 5 0 C5.38218767 1.65614657 5.71395102 3.32457024 6 5 C5 6 5 6 2.4375 6.0625 C1.2309375 6.0315625 1.2309375 6.0315625 0 6 C0 4.02 0 2.04 0 0 Z " fill="#F1EEEB" transform="translate(200,155)"/>
<path d="M0 0 C-0.66 3.3 -1.32 6.6 -2 10 C-2.99 9.67 -3.98 9.34 -5 9 C-5 6.36 -5 3.72 -5 1 C-3 0 -3 0 0 0 Z " fill="#F3811D" transform="translate(119,85)"/>
<path d="M0 0 C0.66 0 1.32 0 2 0 C2 2.97 2 5.94 2 9 C0.68 9 -0.64 9 -2 9 C-2.125 5.625 -2.125 5.625 -2 2 C-1.34 1.34 -0.68 0.68 0 0 Z " fill="#CE8F53" transform="translate(115,138)"/>
<path d="M0 0 C2.67901932 2.31881505 3.66204403 4.31814468 4.6875 7.6875 C4.93886719 8.49574219 5.19023438 9.30398437 5.44921875 10.13671875 C5.63097656 10.75160156 5.81273438 11.36648437 6 12 C5.01 12.33 4.02 12.66 3 13 C0.78145293 8.37802694 -0.38281159 5.23175837 0 0 Z " fill="#FCF1E0" transform="translate(96,64)"/>
<path d="M0 0 C2.64 0 5.28 0 8 0 C8 0.33 8 0.66 8 1 C5.69 1 3.38 1 1 1 C1 1.66 1 2.32 1 3 C2.32 3 3.64 3 5 3 C5 3.66 5 4.32 5 5 C4.01 5 3.02 5 2 5 C2 5.66 2 6.32 2 7 C3.98 7 5.96 7 8 7 C8 7.33 8 7.66 8 8 C5.36 8 2.72 8 0 8 C0 5.36 0 2.72 0 0 Z " fill="#989898" transform="translate(60,154)"/>
<path d="M0 0 C2.475 0.495 2.475 0.495 5 1 C6.125 6.75 6.125 6.75 5 9 C4.01 8.67 3.02 8.34 2 8 C1.26953125 6.15234375 1.26953125 6.15234375 0.8125 3.9375 C0.65394531 3.20402344 0.49539062 2.47054687 0.33203125 1.71484375 C0.22246094 1.14894531 0.11289063 0.58304687 0 0 Z " fill="#D08D49" transform="translate(129,125)"/>
<path d="M0 0 C7 8.44827586 7 8.44827586 7 12 C6.34 12 5.68 12 5 12 C5 11.34 5 10.68 5 10 C4.01 10 3.02 10 2 10 C2 8.68 2 7.36 2 6 C1.34 6 0.68 6 0 6 C0 4.02 0 2.04 0 0 Z " fill="#FAE5CA" transform="translate(105,80)"/>
<path d="M0 0 C0.33 0.66 0.66 1.32 1 2 C1.66 2 2.32 2 3 2 C4.06775224 3.96466413 5.06553465 5.96855359 6 8 C5.67 8.66 5.34 9.32 5 10 C4.01 10 3.02 10 2 10 C-1.07692308 4.58461538 -1.07692308 4.58461538 -0.6875 1.625 C-0.460625 1.08875 -0.23375 0.5525 0 0 Z " fill="#DD8C44" transform="translate(95,56)"/>
<path d="M0 0 C0 0.99 0 1.98 0 3 C-3.3 3.33 -6.6 3.66 -10 4 C-10.33 3.34 -10.66 2.68 -11 2 C-7.17679443 0.57741188 -4.08718695 -0.24042276 0 0 Z " fill="#C39362" transform="translate(149,82)"/>
<path d="M0 0 C1.875 0.3125 1.875 0.3125 4 1 C6.4294516 4.6441774 6.16179575 6.71241272 6 11 C3.13546142 7.58983503 1.65296434 4.09305456 0 0 Z " fill="#FDF3D3" transform="translate(98,56)"/>
<path d="M0 0 C0.99 0.33 1.98 0.66 3 1 C2.67 2.65 2.34 4.3 2 6 C-1.63 6 -5.26 6 -9 6 C-8.67 5.34 -8.34 4.68 -8 4 C-5.35139573 3.40644386 -2.70802678 3.25790731 0 3 C0 2.01 0 1.02 0 0 Z " fill="#F5DFC0" transform="translate(149,82)"/>
<path d="M0 0 C1.9375 0.5 1.9375 0.5 4 2 C4.68790422 4.69658452 4.81946464 7.2017019 5 10 C2.69 10 0.38 10 -2 10 C-1.67 9.34 -1.34 8.68 -1 8 C0.32 8 1.64 8 3 8 C2.01 5.36 1.02 2.72 0 0 Z " fill="#F5E0BF" transform="translate(191,138)"/>
<path d="M0 0 C0.33 0 0.66 0 1 0 C1.10251672 5.12583611 1.03590199 9.94997778 0 15 C-0.99 14.67 -1.98 14.34 -3 14 C-3.33 12.35 -3.66 10.7 -4 9 C-3.01 8.67 -2.02 8.34 -1 8 C-0.67 5.36 -0.34 2.72 0 0 Z " fill="#FDF8E4" transform="translate(136,128)"/>
<path d="M0 0 C3.05882701 1.52941351 3.68951234 3.94219546 5 7 C4.67 7.66 4.34 8.32 4 9 C2.35 8.67 0.7 8.34 -1 8 C-1.33 6.68 -1.66 5.36 -2 4 C-1.34 4 -0.68 4 0 4 C0 2.68 0 1.36 0 0 Z " fill="#DC9D67" transform="translate(184,126)"/>
<path d="M0 0 C0.33 0.66 0.66 1.32 1 2 C0.67 2.99 0.34 3.98 0 5 C1.65 5 3.3 5 5 5 C5.33 4.01 5.66 3.02 6 2 C5.67 3.65 5.34 5.3 5 7 C2.69 7 0.38 7 -2 7 C-2.125 4.625 -2.125 4.625 -2 2 C-1.34 1.34 -0.68 0.68 0 0 Z " fill="#FAE7C8" transform="translate(165,142)"/>
<path d="M0 0 C0.66 0 1.32 0 2 0 C1.67 0.99 1.34 1.98 1 3 C0.91978001 4.40824893 0.89234023 5.81997231 0.90234375 7.23046875 C0.90556641 8.03291016 0.90878906 8.83535156 0.91210938 9.66210938 C0.92048828 10.49548828 0.92886719 11.32886719 0.9375 12.1875 C0.94201172 13.03248047 0.94652344 13.87746094 0.95117188 14.74804688 C0.96294597 16.83206155 0.9808811 18.91603977 1 21 C0.01 20.67 -0.98 20.34 -2 20 C-1.86177801 16.85378318 -1.71314916 13.70814434 -1.5625 10.5625 C-1.52318359 9.66466797 -1.48386719 8.76683594 -1.44335938 7.84179688 C-1.40146484 6.98779297 -1.35957031 6.13378906 -1.31640625 5.25390625 C-1.27974854 4.46314697 -1.24309082 3.6723877 -1.20532227 2.85766602 C-1 1 -1 1 0 0 Z " fill="#CC8A49" transform="translate(157,124)"/>
<path d="M0 0 C2.64 0 5.28 0 8 0 C6.63016497 3.16115776 6.0109362 3.9927092 3 6 C2.01 4.02 1.02 2.04 0 0 Z " fill="#FEF1D6" transform="translate(104,67)"/>
<path d="M0 0 C0.66 0 1.32 0 2 0 C2.66 1.32 3.32 2.64 4 4 C4.66 4 5.32 4 6 4 C6 4.66 6 5.32 6 6 C6.66 6 7.32 6 8 6 C8 6.66 8 7.32 8 8 C6.35 8 4.7 8 3 8 C0 2.25 0 2.25 0 0 Z " fill="#D89354" transform="translate(119,102)"/>
<path d="M0 0 C0.66 0.66 1.32 1.32 2 2 C4.06874034 2.6425235 4.06874034 2.6425235 6 3 C6 4.32 6 5.64 6 7 C5.38125 6.814375 4.7625 6.62875 4.125 6.4375 C1.95839822 5.76313824 1.95839822 5.76313824 0 7 C0 4.69 0 2.38 0 0 Z " fill="#E8E5DD" transform="translate(166,155)"/>
<path d="M0 0 C1.98 0 3.96 0 6 0 C6.33 1.65 6.66 3.3 7 5 C6.01 4.67 5.02 4.34 4 4 C4 3.34 4 2.68 4 2 C0.9254644 2.7763932 0.9254644 2.7763932 -1 5 C-0.67 3.35 -0.34 1.7 0 0 Z " fill="#D29354" transform="translate(177,123)"/>
<path d="M0 0 C1.65 0 3.3 0 5 0 C5.33 1.65 5.66 3.3 6 5 C5.34 5 4.68 5 4 5 C3.34 5.66 2.68 6.32 2 7 C1.34 4.69 0.68 2.38 0 0 Z " fill="#D2905A" transform="translate(65,123)"/>
<path d="M0 0 C0 0.99 0 1.98 0 3 C-0.66 3 -1.32 3 -2 3 C-2.33 4.32 -2.66 5.64 -3 7 C-3.99 7 -4.98 7 -6 7 C-5.6875 4.625 -5.6875 4.625 -5 2 C-2 0 -2 0 0 0 Z " fill="#F8811D" transform="translate(125,77)"/>
<path d="M0 0 C0.33 0 0.66 0 1 0 C0.75 3.375 0.75 3.375 0 7 C-2 8.25 -2 8.25 -4 9 C-4.33 9.99 -4.66 10.98 -5 12 C-5.99 11.34 -6.98 10.68 -8 10 C-7.05125 9.46375 -6.1025 8.9275 -5.125 8.375 C-1.63260408 5.7207791 -0.95264124 4.19162145 0 0 Z " fill="#FEFBEA" transform="translate(170,53)"/>
<path d="M0 0 C2.31 0 4.62 0 7 0 C6.625 2.4375 6.625 2.4375 6 5 C5.01 5.495 5.01 5.495 4 6 C2.62437146 4.71034824 1.29233607 3.37310707 0 2 C0 1.34 0 0.68 0 0 Z " fill="#E3E2E0" transform="translate(151,154)"/>
<path d="M0 0 C1.98 0.495 1.98 0.495 4 1 C4 2.32 4 3.64 4 5 C2.35 5 0.7 5 -1 5 C-0.67 3.35 -0.34 1.7 0 0 Z " fill="#F8FCEA" transform="translate(178,131)"/>
<path d="M0 0 C2.97 0.495 2.97 0.495 6 1 C5.34 2.32 4.68 3.64 4 5 C3.67 4.67 3.34 4.34 3 4 C1.31816052 3.76712992 -0.3712416 3.58735834 -2.0625 3.4375 C-3.44115234 3.31181641 -3.44115234 3.31181641 -4.84765625 3.18359375 C-5.91306641 3.09271484 -5.91306641 3.09271484 -7 3 C-7 2.67 -7 2.34 -7 2 C-4.69 2 -2.38 2 0 2 C0 1.34 0 0.68 0 0 Z " fill="#DB955F" transform="translate(125,123)"/>
<path d="M0 0 C1.0625 1.875 1.0625 1.875 2 4 C1.67 4.66 1.34 5.32 1 6 C0.9603287 7.66619446 0.95615553 9.33391013 1 11 C-1.15377564 8.37801226 -2.40072174 6.35595828 -3 3 C-2.34 3 -1.68 3 -1 3 C-0.67 2.01 -0.34 1.02 0 0 Z " fill="#DD9E61" transform="translate(101,63)"/>
<path d="M0 0 C0.99 0 1.98 0 3 0 C3 0.99 3 1.98 3 3 C3.99 3 4.98 3 6 3 C6 4.65 6 6.3 6 8 C5.01 8 4.02 8 3 8 C2.67 6.02 2.34 4.04 2 2 C1.34 2 0.68 2 0 2 C0 1.34 0 0.68 0 0 Z " fill="#ECFCFC" transform="translate(75,128)"/>
<path d="M0 0 C0.66 0.33 1.32 0.66 2 1 C1.34 2.98 0.68 4.96 0 7 C0.66 7.33 1.32 7.66 2 8 C1.34 8.66 0.68 9.32 0 10 C-1.32 7.03 -2.64 4.06 -4 1 C-2.68 1.33 -1.36 1.66 0 2 C0 1.34 0 0.68 0 0 Z " fill="#FAF1D6" transform="translate(190,128)"/>
<path d="M0 0 C1 2 1 2 0.0625 5.125 C-0.288125 6.07375 -0.63875 7.0225 -1 8 C-1.66 8 -2.32 8 -3 8 C-3 8.99 -3 9.98 -3 11 C-3.66 11 -4.32 11 -5 11 C-3.92289822 6.69159287 -2.96052484 3.36423277 0 0 Z " fill="#FBE2C2" transform="translate(135,93)"/>
<path d="M0 0 C0.33 0.66 0.66 1.32 1 2 C0.06421005 4.35981813 -0.93347808 6.69631264 -2 9 C-2.66 9 -3.32 9 -4 9 C-3.47731534 6.23723823 -2.89130413 3.6739124 -2 1 C-1.34 0.67 -0.68 0.34 0 0 Z " fill="#CF8A4E" transform="translate(133,91)"/>
<path d="M0 0 C2.475 0.495 2.475 0.495 5 1 C4.67 2.65 4.34 4.3 4 6 C3.01 5.67 2.02 5.34 1 5 C0.67 3.35 0.34 1.7 0 0 Z " fill="#EB862B" transform="translate(184,134)"/>
<path d="M0 0 C0.66 0 1.32 0 2 0 C1.74438677 2.3431213 1.40729228 4.67843403 1 7 C0.01 7.495 0.01 7.495 -1 8 C-1.33 6.02 -1.66 4.04 -2 2 C-1.34 2 -0.68 2 0 2 C0 1.34 0 0.68 0 0 Z " fill="#DD8739" transform="translate(124,91)"/>
<path d="M0 0 C-0.33 1.32 -0.66 2.64 -1 4 C-1.66 4 -2.32 4 -3 4 C-3.33 4.99 -3.66 5.98 -4 7 C-4.99 7 -5.98 7 -7 7 C-5.84933177 3.5479953 -4.01648928 0 0 0 Z " fill="#EDFEFD" transform="translate(144,89)"/>
<path d="M0 0 C1.35303489 2.70606979 0.7884698 4.1328371 0 7 C-2 9 -2 9 -5 10 C-3.66511872 6.40608886 -2.03977277 3.24509304 0 0 Z " fill="#F4D7A8" transform="translate(127,78)"/>
<path d="M0 0 C2.475 0.495 2.475 0.495 5 1 C5.33 3.64 5.66 6.28 6 9 C5.34 9 4.68 9 4 9 C3.67 7.02 3.34 5.04 3 3 C2.01 3 1.02 3 0 3 C0 2.01 0 1.02 0 0 Z " fill="#F2FBFC" transform="translate(104,150)"/>
<path d="M0 0 C1.485 0.99 1.485 0.99 3 2 C3.99 2.33 4.98 2.66 6 3 C6.6875 5.0625 6.6875 5.0625 7 7 C6.34 7 5.68 7 5 7 C4.67 6.34 4.34 5.68 4 5 C2.35 5.33 0.7 5.66 -1 6 C-0.67 4.02 -0.34 2.04 0 0 Z " fill="#FAEFDC" transform="translate(65,131)"/>
<path d="M0 0 C0.33 1.32 0.66 2.64 1 4 C1.66 4 2.32 4 3 4 C2.34 5.32 1.68 6.64 1 8 C1 7.01 1 6.02 1 5 C0.34 5 -0.32 5 -1 5 C-1.33 5.99 -1.66 6.98 -2 8 C-2.33 7.34 -2.66 6.68 -3 6 C-2.06553465 3.96855359 -1.06775224 1.96466413 0 0 Z " fill="#DB9E60" transform="translate(87,128)"/>
<path d="M0 0 C3 0 3 0 4.6875 1.375 C6 3 6 3 6 5 C5.01 5 4.02 5 3 5 C3 4.34 3 3.68 3 3 C1.68 3.33 0.36 3.66 -1 4 C-0.67 2.68 -0.34 1.36 0 0 Z " fill="#E88D38" transform="translate(178,125)"/>
<path d="M0 0 C0.33 0 0.66 0 1 0 C1.33 3.3 1.66 6.6 2 10 C-0.7824349 8.60878255 -1.55210065 6.69835788 -3 4 C-3 3.34 -3 2.68 -3 2 C-2.34 2 -1.68 2 -1 2 C-0.67 1.34 -0.34 0.68 0 0 Z " fill="#D68C42" transform="translate(117,92)"/>
<path d="M0 0 C0.99 0 1.98 0 3 0 C1.6302836 3.99500618 -0.25722422 6.80009492 -3 10 C-2.39009109 6.44219804 -1.4216319 3.3171411 0 0 Z " fill="#D1945C" transform="translate(123,80)"/>
<path d="M0 0 C0.33 0.66 0.66 1.32 1 2 C-0.28062485 3.7074998 -1.61767557 5.37373596 -3 7 C-3.66 7 -4.32 7 -5 7 C-4.75 4.625 -4.75 4.625 -4 2 C-1.9375 0.6875 -1.9375 0.6875 0 0 Z " fill="#FDEEC8" transform="translate(132,76)"/>
<path d="M0 0 C2.31 0.33 4.62 0.66 7 1 C7 1.66 7 2.32 7 3 C4.69 3 2.38 3 0 3 C0 2.01 0 1.02 0 0 Z " fill="#FDF9E7" transform="translate(88,119)"/>
<path d="M0 0 C1.32 0 2.64 0 4 0 C4 0.66 4 1.32 4 2 C3.34 2 2.68 2 2 2 C1.67 3.32 1.34 4.64 1 6 C0.34 5.67 -0.32 5.34 -1 5 C-0.67 3.35 -0.34 1.7 0 0 Z " fill="#F28626" transform="translate(110,79)"/>
<path d="M0 0 C0.99 0 1.98 0 3 0 C2.60196439 2.88575819 2.20990931 3.82189513 -0.0625 5.75 C-0.701875 6.1625 -1.34125 6.575 -2 7 C-2 5.68 -2 4.36 -2 3 C-1.34 3 -0.68 3 0 3 C0 2.01 0 1.02 0 0 Z " fill="#FCEFD3" transform="translate(114,60)"/>
<path d="M0 0 C0 0.99 0 1.98 0 3 C-2.64 3 -5.28 3 -8 3 C-5.53387212 -0.1151089 -3.89156016 -0.31553191 0 0 Z " fill="#FC7C18" transform="translate(144,56)"/>
<path d="M0 0 C1.98 0 3.96 0 6 0 C6 0.99 6 1.98 6 3 C4.02 3 2.04 3 0 3 C0 2.01 0 1.02 0 0 Z " fill="#E7E7E4" transform="translate(142,155)"/>
<path d="M0 0 C0.99 0 1.98 0 3 0 C3 1.32 3 2.64 3 4 C1.02 4.99 1.02 4.99 -1 6 C-1.042721 4.33388095 -1.04063832 2.66617115 -1 1 C-0.67 0.67 -0.34 0.34 0 0 Z " fill="#DD893B" transform="translate(114,134)"/>
<path d="M0 0 C0.66 0.33 1.32 0.66 2 1 C1.67 2.65 1.34 4.3 1 6 C0.34 6 -0.32 6 -1 6 C-1.66 7.32 -2.32 8.64 -3 10 C-2.67 7.69 -2.34 5.38 -2 3 C-1.34 3 -0.68 3 0 3 C0 2.01 0 1.02 0 0 Z " fill="#FEFCEB" transform="translate(132,101)"/>
<path d="M0 0 C1.32 0 2.64 0 4 0 C2.25 4.875 2.25 4.875 0 6 C-0.38218767 4.34385343 -0.71395102 2.67542976 -1 1 C-0.67 0.67 -0.34 0.34 0 0 Z " fill="#DE8A3D" transform="translate(114,73)"/>
<path d="M0 0 C0.66 1.32 1.32 2.64 2 4 C0.35 4.33 -1.3 4.66 -3 5 C-3 5.66 -3 6.32 -3 7 C-3.66 6.67 -4.32 6.34 -5 6 C-3.35 4.02 -1.7 2.04 0 0 Z " fill="#F6D6A9" transform="translate(122,69)"/>
<path d="M0 0 C0.66 0.33 1.32 0.66 2 1 C1.67 1.99 1.34 2.98 1 4 C0.34 4 -0.32 4 -1 4 C-1.33 5.32 -1.66 6.64 -2 8 C-2.66 8 -3.32 8 -4 8 C-3.40072174 4.64404172 -2.15377564 2.62198774 0 0 Z " fill="#DB9858" transform="translate(118,60)"/>
<path d="M0 0 C0.99 0.33 1.98 0.66 3 1 C3 2.32 3 3.64 3 5 C1.35 5 -0.3 5 -2 5 C-1.34 3.35 -0.68 1.7 0 0 Z " fill="#CBCACA" transform="translate(73,154)"/>
<path d="M0 0 C3 3.875 3 3.875 3 5 C1.35 5 -0.3 5 -2 5 C-2.33 4.01 -2.66 3.02 -3 2 C-2.01 2 -1.02 2 0 2 C0 1.34 0 0.68 0 0 Z " fill="#C69866" transform="translate(192,142)"/>
</svg>
